<?xml version="1.0" encoding="UTF-8"?>
<svg data-bbox="0 0 620 450" xmlns="http://www.w3.org/2000/svg" viewBox="0 0 620 450" height="450" width="620" data-type="ugc">
    <g>
        <g filter="url(#f4599ebe-176c-4abc-9de2-41d1e1320dc5)">
            <path fill="#ffffff" d="M277 16v147c0 8.837-7.163 16-16 16H16c-8.837 0-16-7.163-16-16V16C0 7.163 7.163 0 16 0h245c8.837 0 16 7.163 16 16"/>
            <g filter="url(#5acc1b55-5744-46cd-822f-a81532064a3b)">
                <path fill="#0092CA" d="M114.5 30c0-5.523 4.477-10 10-10h28c5.523 0 10 4.477 10 10v28c0 5.523-4.477 10-10 10h-28c-5.523 0-10-4.477-10-10z"/>
                <path stroke-width="2" stroke="url(#31ae2ce5-0f62-492c-8a92-bb59bf7c9044)" d="M124.5 21h28a9 9 0 0 1 9 9v28a9 9 0 0 1-9 9h-28a9 9 0 0 1-9-9V30a9 9 0 0 1 9-9Z" fill="none"/>
                <g clip-path="url(#160c1029-1e0c-41b7-bd23-416a0991a8bb)">
                    <path stroke-linejoin="round" stroke-linecap="round" stroke-width="2" stroke="#ffffff" d="M129.5 53h18" fill="none"/>
                    <path stroke-linejoin="round" stroke-linecap="round" stroke-width="2" stroke="#ffffff" d="M131.5 53V37a2 2 0 0 1 2-2h10a2 2 0 0 1 2 2v16" fill="none"/>
                    <path stroke-linejoin="round" stroke-linecap="round" stroke-width="2" stroke="#ffffff" d="M135.5 53v-4a2 2 0 0 1 2-2h2a2 2 0 0 1 2 2v4" fill="none"/>
                    <path stroke-linejoin="round" stroke-linecap="round" stroke-width="2" stroke="#ffffff" d="M136.5 41h4" fill="none"/>
                    <path stroke-linejoin="round" stroke-linecap="round" stroke-width="2" stroke="#ffffff" d="M138.5 39v4" fill="none"/>
                </g>
            </g>
            <path fill="#04082B" d="M73.944 106V92.91h2.371v5.541h6.066v-5.542h2.378V106H82.38v-5.561h-6.066V106zm17.638.192q-1.476 0-2.55-.614a4.15 4.15 0 0 1-1.643-1.751q-.575-1.138-.575-2.679 0-1.515.575-2.659a4.35 4.35 0 0 1 1.624-1.79q1.041-.645 2.448-.645.908 0 1.713.294.811.288 1.432.895.626.607.984 1.547.358.933.358 2.224v.71h-8.047v-1.56h5.83a2.5 2.5 0 0 0-.288-1.183 2.1 2.1 0 0 0-.787-.824q-.498-.3-1.163-.3-.71 0-1.247.345a2.4 2.4 0 0 0-.837.895q-.294.55-.3 1.208v1.361q0 .857.313 1.47.313.607.876.934.563.32 1.316.319.506 0 .914-.14.41-.147.71-.429.3-.28.454-.696l2.16.242a3.4 3.4 0 0 1-.78 1.496q-.569.633-1.457.985-.888.345-2.033.345m9.149.006a4.1 4.1 0 0 1-1.681-.332 2.74 2.74 0 0 1-1.176-.997q-.429-.659-.428-1.624 0-.831.306-1.374.307-.543.838-.87a4.2 4.2 0 0 1 1.195-.492q.671-.172 1.387-.249.863-.09 1.4-.16.537-.077.78-.23.249-.16.249-.492v-.038q0-.723-.428-1.12-.429-.395-1.234-.395-.85 0-1.349.37-.492.372-.664.876l-2.16-.307q.254-.895.843-1.495a3.7 3.7 0 0 1 1.438-.908 5.5 5.5 0 0 1 1.879-.307q.71 0 1.413.166t1.285.55q.582.377.933 1.029.358.652.358 1.63V106h-2.224v-1.349h-.077a2.8 2.8 0 0 1-.595.767 2.9 2.9 0 0 1-.952.569q-.569.211-1.336.211m.601-1.7q.696 0 1.208-.275a2.03 2.03 0 0 0 .786-.741q.282-.46.281-1.004v-1.157q-.108.09-.37.166a5 5 0 0 1-.576.134 17 17 0 0 1-.632.103l-.544.076a4 4 0 0 0-.927.231 1.53 1.53 0 0 0-.645.447q-.237.28-.237.729 0 .64.467.965.466.326 1.189.326m9.224-11.589V106h-2.314V92.91zm7.282 3.273v1.79h-5.644v-1.79zm-4.251-2.353h2.314v9.218q0 .467.141.716a.75.75 0 0 0 .383.332q.236.09.524.09.217 0 .397-.032.185-.033.281-.058l.39 1.809q-.186.064-.531.141a4.3 4.3 0 0 1-.831.089q-.868.026-1.566-.262a2.44 2.44 0 0 1-1.106-.908q-.402-.613-.396-1.534zm8.711 6.418V106h-2.314V92.91h2.263v4.94h.115q.345-.83 1.067-1.31.729-.486 1.854-.486 1.023 0 1.783.428a2.9 2.9 0 0 1 1.176 1.253q.423.825.422 2.014V106h-2.314v-5.893q0-.991-.511-1.54-.506-.557-1.419-.557-.614 0-1.1.268a1.9 1.9 0 0 0-.754.761q-.268.498-.268 1.208m13.008 5.945q-1.471 0-2.525-.646a4.3 4.3 0 0 1-1.617-1.783q-.563-1.145-.563-2.634 0-1.496.575-2.64a4.3 4.3 0 0 1 1.624-1.79q1.054-.645 2.493-.645 1.195 0 2.116.441.926.435 1.476 1.234.55.792.627 1.853H137.3a2.12 2.12 0 0 0-.639-1.182q-.5-.48-1.336-.48a2.1 2.1 0 0 0-1.247.384q-.537.377-.837 1.087-.294.709-.294 1.7 0 1.003.294 1.726.294.716.825 1.106a2.1 2.1 0 0 0 1.259.383 2.1 2.1 0 0 0 .914-.192q.41-.197.684-.569.275-.37.377-.901h2.212q-.084 1.043-.614 1.847a3.6 3.6 0 0 1-1.445 1.253q-.914.448-2.147.448m8.931.006a4.1 4.1 0 0 1-1.681-.332 2.74 2.74 0 0 1-1.176-.997q-.429-.659-.429-1.624 0-.831.307-1.374t.838-.87a4.2 4.2 0 0 1 1.195-.492q.671-.172 1.387-.249.863-.09 1.4-.16.537-.077.78-.23.249-.16.249-.492v-.038q0-.723-.428-1.12-.429-.395-1.234-.395-.85 0-1.349.37-.492.372-.665.876l-2.16-.307q.255-.895.844-1.495a3.7 3.7 0 0 1 1.438-.908 5.5 5.5 0 0 1 1.879-.307q.71 0 1.413.166t1.285.55q.58.377.933 1.029.358.652.358 1.63V106h-2.225v-1.349h-.076a2.8 2.8 0 0 1-.595.767 2.9 2.9 0 0 1-.952.569q-.569.211-1.336.211m.601-1.7q.696 0 1.208-.275a2.03 2.03 0 0 0 .786-.741q.281-.46.281-1.004v-1.157q-.108.09-.37.166a5 5 0 0 1-.576.134q-.32.058-.633.103l-.543.076a4 4 0 0 0-.927.231 1.53 1.53 0 0 0-.645.447q-.237.28-.237.729 0 .64.467.965.466.326 1.189.326m6.91 1.502v-9.818h2.243v1.636h.102q.268-.85.921-1.31a2.53 2.53 0 0 1 1.502-.467q.192 0 .428.02.243.012.403.044v2.129a2.4 2.4 0 0 0-.467-.09 4 4 0 0 0-.607-.045q-.633 0-1.138.275a2 2 0 0 0-.786.748q-.288.48-.288 1.106V106zm11.079.192q-1.477 0-2.551-.614a4.16 4.16 0 0 1-1.643-1.751q-.575-1.138-.575-2.679 0-1.515.575-2.659a4.35 4.35 0 0 1 1.624-1.79q1.042-.645 2.448-.645.907 0 1.713.294.812.288 1.432.895.627.607.984 1.547.358.933.358 2.224v.71h-8.047v-1.56h5.829a2.5 2.5 0 0 0-.287-1.183 2.1 2.1 0 0 0-.787-.824q-.498-.3-1.163-.3-.71 0-1.246.345a2.4 2.4 0 0 0-.838.895q-.294.55-.3 1.208v1.361q0 .857.313 1.47.313.607.876.934.563.32 1.316.319.505 0 .915-.14.408-.147.709-.429.3-.28.454-.696l2.16.242a3.4 3.4 0 0 1-.779 1.496q-.57.633-1.458.985-.888.345-2.032.345m22.587-6.737q0 2.115-.792 3.624-.786 1.502-2.148 2.301-1.355.8-3.074.799-1.72 0-3.081-.799-1.356-.805-2.148-2.308-.786-1.507-.786-3.618 0-2.115.786-3.617.792-1.509 2.148-2.308 1.36-.8 3.081-.799 1.72 0 3.074.8 1.362.798 2.148 2.307.792 1.502.792 3.617m-2.384 0q0-1.489-.466-2.513-.46-1.029-1.279-1.553-.818-.53-1.885-.53t-1.886.53q-.819.524-1.285 1.553-.46 1.023-.46 2.513 0 1.488.46 2.518.466 1.023 1.285 1.553.818.524 1.886.524 1.067 0 1.885-.524.819-.53 1.279-1.553.466-1.03.466-2.519m4.524 6.545V96.18h2.244v1.636h.102q.269-.85.92-1.31.659-.467 1.503-.467.19 0 .428.02.243.012.403.044v2.129a2.4 2.4 0 0 0-.467-.09 4 4 0 0 0-.607-.045q-.633 0-1.138.275a2 2 0 0 0-.786.748q-.288.48-.288 1.106V106zm11.002 3.886q-1.246 0-2.141-.338-.894-.333-1.438-.895a3.1 3.1 0 0 1-.754-1.247l2.083-.505q.141.288.41.569.268.288.722.473.46.192 1.157.192.984 0 1.63-.479.645-.474.645-1.56v-1.86h-.115a3.3 3.3 0 0 1-.524.735 2.7 2.7 0 0 1-.901.633q-.556.255-1.4.255a4.03 4.03 0 0 1-2.052-.53q-.914-.537-1.457-1.598-.537-1.068-.537-2.672 0-1.617.537-2.73.543-1.118 1.464-1.693a3.76 3.76 0 0 1 2.051-.582q.864 0 1.419.294.563.288.895.697.333.403.505.76h.128V96.18h2.282v9.978q0 1.259-.601 2.084-.6.824-1.642 1.233t-2.366.409m.02-5.842q.735 0 1.252-.358.519-.359.787-1.029t.268-1.611q0-.927-.268-1.623-.263-.698-.78-1.08-.512-.39-1.259-.39-.773 0-1.292.402-.518.403-.779 1.106-.262.697-.262 1.585 0 .901.262 1.579.269.671.786 1.048.524.37 1.285.371"/>
            <path fill="#F8F9FC" d="M109.5 118.5h58c11.046 0 20 8.954 20 20s-8.954 20-20 20h-58c-11.046 0-20-8.954-20-20s8.954-20 20-20"/>
            <path stroke="#D5D9EB" d="M109.5 118.5h58c11.046 0 20 8.954 20 20s-8.954 20-20 20h-58c-11.046 0-20-8.954-20-20s8.954-20 20-20Z" fill="none"/>
            <path fill="#363F72" d="M102.202 133.614v-1.25h8.728v1.25h-3.659V144h-1.409v-10.386zm12.101 10.591a3.55 3.55 0 0 1-1.505-.313 2.6 2.6 0 0 1-1.074-.915q-.398-.602-.398-1.454 0-.75.295-1.216.296-.472.79-.739.495-.266 1.091-.398.603-.135 1.21-.215.797-.103 1.29-.154.5-.057.727-.187.234-.13.233-.455v-.045q0-.842-.46-1.307-.454-.466-1.381-.466-.96 0-1.505.42-.546.421-.767.898l-1.273-.454q.34-.797.909-1.239a3.4 3.4 0 0 1 1.25-.625 5.2 5.2 0 0 1 1.341-.182q.42 0 .966.102.55.097 1.062.404.517.306.858.926t.341 1.659V144h-1.341v-1.182h-.068q-.136.284-.454.608-.319.324-.847.551t-1.29.228m.205-1.205q.795 0 1.341-.312a2.13 2.13 0 0 0 1.113-1.847v-1.227q-.084.102-.375.187a6 6 0 0 1-.659.142 28 28 0 0 1-.721.102q-.347.04-.563.069a5 5 0 0 0-.977.221 1.7 1.7 0 0 0-.727.449q-.273.296-.273.807 0 .699.517 1.057.523.352 1.324.352m7.243-7.727 2.091 3.568 2.091-3.568h1.545l-2.818 4.363 2.818 4.364h-1.545l-2.091-3.386-2.091 3.386h-1.546l2.773-4.364-2.773-4.363zm13.731-2.909V144h-1.409v-11.636zM141.898 144h-3.59v-11.636h3.75q1.692 0 2.897.698 1.205.694 1.847 1.995.642 1.295.642 3.102 0 1.818-.648 3.131a4.6 4.6 0 0 1-1.886 2.011q-1.239.699-3.012.699m-2.181-1.25h2.091q1.443 0 2.392-.557a3.43 3.43 0 0 0 1.414-1.585q.466-1.029.466-2.449 0-1.409-.46-2.426-.46-1.023-1.375-1.568-.915-.552-2.278-.551h-2.25zm19.409-5.193v1.25h-5.091v-1.25zm7.518 6.443h-1.477l4.273-11.636h1.454L175.167 144h-1.477l-3.478-9.795h-.091zm.546-4.545h5.954v1.25h-5.954z"/>
        </g>
        <g filter="url(#f5a19932-5fdf-487f-9326-699b0ce04421)">
            <path fill="#ffffff" d="M620 16v147c0 8.837-7.163 16-16 16H359c-8.837 0-16-7.163-16-16V16c0-8.837 7.163-16 16-16h245c8.837 0 16 7.163 16 16"/>
            <g filter="url(#f45dc576-40f0-42bc-a1d9-718de7aa2e9b)">
                <path fill="#0092CA" d="M457.5 30c0-5.523 4.477-10 10-10h28c5.523 0 10 4.477 10 10v28c0 5.523-4.477 10-10 10h-28c-5.523 0-10-4.477-10-10z"/>
                <path stroke-width="2" stroke="url(#6bbb6c08-a8ea-48aa-8d65-67d34631c783)" d="M467.5 21h28a9 9 0 0 1 9 9v28a9 9 0 0 1-9 9h-28a9 9 0 0 1-9-9V30a9 9 0 0 1 9-9Z" fill="none"/>
                <g clip-path="url(#7dfb8231-15a5-471c-906c-c8bf2acb28ee)">
                    <path stroke-linejoin="round" stroke-linecap="round" stroke-width="2" stroke="#ffffff" d="M472.5 53h18" fill="none"/>
                    <path stroke-linejoin="round" stroke-linecap="round" stroke-width="2" stroke="#ffffff" d="M474.5 53V37a2 2 0 0 1 2-2h10a2 2 0 0 1 2 2v16" fill="none"/>
                    <path stroke-linejoin="round" stroke-linecap="round" stroke-width="2" stroke="#ffffff" d="M478.5 53v-4a2 2 0 0 1 2-2h2a2 2 0 0 1 2 2v4" fill="none"/>
                    <path stroke-linejoin="round" stroke-linecap="round" stroke-width="2" stroke="#ffffff" d="M479.5 41h4" fill="none"/>
                    <path stroke-linejoin="round" stroke-linecap="round" stroke-width="2" stroke="#ffffff" d="M481.5 39v4" fill="none"/>
                </g>
            </g>
            <path fill="#04082B" d="M416.944 106V92.91h2.371v5.541h6.066v-5.542h2.378V106h-2.378v-5.561h-6.066V106zm17.638.192q-1.476 0-2.55-.614a4.16 4.16 0 0 1-1.643-1.751q-.575-1.138-.575-2.679 0-1.515.575-2.659a4.35 4.35 0 0 1 1.624-1.79q1.041-.645 2.448-.645.908 0 1.713.294a3.9 3.9 0 0 1 1.432.895q.626.607.984 1.547.358.933.358 2.224v.71h-8.047v-1.56h5.829a2.5 2.5 0 0 0-.288-1.183 2.1 2.1 0 0 0-.786-.824q-.498-.3-1.163-.3-.71 0-1.247.345a2.4 2.4 0 0 0-.837.895q-.294.55-.3 1.208v1.361q0 .857.313 1.47.313.607.876.934.563.32 1.316.319.506 0 .914-.14a2 2 0 0 0 .71-.429q.3-.28.454-.696l2.16.242a3.36 3.36 0 0 1-.78 1.496q-.569.633-1.457.985-.888.345-2.033.345m9.149.006a4.1 4.1 0 0 1-1.681-.332 2.75 2.75 0 0 1-1.176-.997q-.429-.659-.429-1.624 0-.831.307-1.374t.838-.87a4.2 4.2 0 0 1 1.195-.492q.671-.172 1.387-.249.863-.09 1.4-.16.537-.077.78-.23.249-.16.249-.492v-.038q0-.723-.428-1.12-.429-.395-1.234-.395-.85 0-1.349.37-.492.372-.664.876l-2.161-.307q.256-.895.844-1.495a3.7 3.7 0 0 1 1.438-.908 5.5 5.5 0 0 1 1.879-.307q.71 0 1.413.166t1.285.55q.582.377.933 1.029.358.652.358 1.63V106h-2.224v-1.349h-.077a2.8 2.8 0 0 1-.595.767 2.9 2.9 0 0 1-.952.569q-.569.211-1.336.211m.601-1.7q.696 0 1.208-.275a2.03 2.03 0 0 0 .786-.741q.281-.46.281-1.004v-1.157q-.109.09-.37.166a5 5 0 0 1-.576.134 17 17 0 0 1-.632.103l-.544.076a4 4 0 0 0-.927.231 1.53 1.53 0 0 0-.645.447q-.237.28-.237.729 0 .64.467.965.466.326 1.189.326m9.224-11.589V106h-2.314V92.91zm7.282 3.273v1.79h-5.644v-1.79zm-4.251-2.353h2.314v9.218q0 .467.141.716a.75.75 0 0 0 .383.332q.236.09.524.09.217 0 .397-.032.185-.033.281-.058l.39 1.809q-.186.064-.531.141a4.3 4.3 0 0 1-.831.089q-.869.026-1.566-.262a2.44 2.44 0 0 1-1.106-.908q-.402-.613-.396-1.534zm8.711 6.418V106h-2.314V92.91h2.263v4.94h.115q.345-.83 1.067-1.31.729-.486 1.854-.486 1.023 0 1.783.428a2.9 2.9 0 0 1 1.176 1.253q.423.825.422 2.014V106h-2.314v-5.893q0-.991-.511-1.54-.505-.557-1.419-.557-.614 0-1.1.268a1.9 1.9 0 0 0-.754.761q-.268.498-.268 1.208m13.008 5.945q-1.471 0-2.525-.646a4.3 4.3 0 0 1-1.617-1.783q-.563-1.145-.563-2.634 0-1.496.575-2.64a4.3 4.3 0 0 1 1.624-1.79q1.055-.645 2.493-.645 1.195 0 2.116.441.926.435 1.476 1.234.55.792.627 1.853H480.3a2.12 2.12 0 0 0-.639-1.182q-.5-.48-1.336-.48a2.1 2.1 0 0 0-1.247.384q-.537.377-.837 1.087-.294.709-.294 1.7 0 1.003.294 1.726.294.716.825 1.106a2.1 2.1 0 0 0 1.259.383 2.1 2.1 0 0 0 .914-.192q.41-.197.684-.569.275-.37.377-.901h2.212q-.084 1.043-.614 1.847a3.6 3.6 0 0 1-1.445 1.253q-.914.448-2.147.448m8.931.006a4.1 4.1 0 0 1-1.681-.332 2.74 2.74 0 0 1-1.176-.997q-.429-.659-.429-1.624 0-.831.307-1.374t.838-.87a4.2 4.2 0 0 1 1.195-.492q.671-.172 1.387-.249.863-.09 1.4-.16.537-.077.78-.23.249-.16.249-.492v-.038q0-.723-.428-1.12-.429-.395-1.234-.395-.85 0-1.349.37-.491.372-.665.876l-2.16-.307q.256-.895.844-1.495a3.7 3.7 0 0 1 1.438-.908 5.5 5.5 0 0 1 1.879-.307q.71 0 1.413.166t1.285.55q.58.377.933 1.029.357.652.358 1.63V106h-2.225v-1.349h-.076a2.8 2.8 0 0 1-.595.767 2.9 2.9 0 0 1-.952.569q-.569.211-1.336.211m.601-1.7q.696 0 1.208-.275a2.03 2.03 0 0 0 .786-.741q.281-.46.281-1.004v-1.157q-.108.09-.37.166a5 5 0 0 1-.576.134q-.32.058-.633.103l-.543.076a4 4 0 0 0-.927.231 1.53 1.53 0 0 0-.645.447q-.237.28-.237.729 0 .64.467.965.466.326 1.189.326m6.91 1.502v-9.818h2.243v1.636h.102q.268-.85.921-1.31a2.53 2.53 0 0 1 1.502-.467q.192 0 .428.02.243.012.403.044v2.129a2.4 2.4 0 0 0-.467-.09 4 4 0 0 0-.607-.045q-.633 0-1.138.275a2 2 0 0 0-.786.748q-.288.48-.288 1.106V106zm11.079.192q-1.477 0-2.551-.614a4.16 4.16 0 0 1-1.643-1.751q-.575-1.138-.575-2.679 0-1.515.575-2.659a4.35 4.35 0 0 1 1.624-1.79q1.043-.645 2.448-.645.908 0 1.713.294.812.288 1.432.895.627.607.984 1.547.358.933.358 2.224v.71h-8.047v-1.56h5.829a2.5 2.5 0 0 0-.287-1.183 2.1 2.1 0 0 0-.787-.824q-.498-.3-1.163-.3-.71 0-1.246.345a2.4 2.4 0 0 0-.838.895q-.294.55-.3 1.208v1.361q0 .857.313 1.47.314.607.876.934.563.32 1.316.319.506 0 .915-.14.409-.147.709-.429.3-.28.454-.696l2.16.242a3.4 3.4 0 0 1-.779 1.496q-.57.633-1.458.985-.888.345-2.032.345m22.587-6.737q0 2.115-.792 3.624-.786 1.502-2.148 2.301-1.355.8-3.074.799-1.72 0-3.081-.799-1.356-.805-2.148-2.308-.786-1.507-.786-3.618 0-2.115.786-3.617.792-1.509 2.148-2.308 1.36-.8 3.081-.799 1.72 0 3.074.8 1.362.798 2.148 2.307.792 1.502.792 3.617m-2.384 0q0-1.489-.466-2.513-.46-1.029-1.279-1.553-.818-.53-1.885-.53t-1.886.53q-.819.524-1.285 1.553-.46 1.023-.46 2.513 0 1.488.46 2.518.466 1.023 1.285 1.553.818.524 1.886.524 1.067 0 1.885-.524.819-.53 1.279-1.553.466-1.03.466-2.519m4.524 6.545V96.18h2.244v1.636h.102q.269-.85.92-1.31.658-.467 1.503-.467.19 0 .428.02.243.012.403.044v2.129a2.4 2.4 0 0 0-.467-.09 4 4 0 0 0-.607-.045q-.633 0-1.138.275a2 2 0 0 0-.786.748q-.288.48-.288 1.106V106zm11.002 3.886q-1.246 0-2.141-.338-.894-.333-1.438-.895a3.1 3.1 0 0 1-.754-1.247l2.083-.505q.141.288.41.569.268.288.722.473.46.192 1.157.192.984 0 1.63-.479.645-.474.645-1.56v-1.86h-.115a3.3 3.3 0 0 1-.524.735 2.7 2.7 0 0 1-.901.633q-.556.255-1.4.255a4.03 4.03 0 0 1-2.052-.53q-.914-.537-1.457-1.598-.537-1.068-.537-2.672 0-1.617.537-2.73.543-1.118 1.464-1.693a3.76 3.76 0 0 1 2.051-.582q.864 0 1.419.294.563.288.895.697.333.403.505.76h.128V96.18h2.282v9.978q0 1.259-.601 2.084-.6.824-1.642 1.233t-2.366.409m.02-5.842q.735 0 1.252-.358.519-.359.787-1.029t.268-1.611q0-.927-.268-1.623-.262-.698-.78-1.08-.512-.39-1.259-.39-.774 0-1.292.402-.518.403-.779 1.106-.262.697-.262 1.585 0 .901.262 1.579.269.671.786 1.048.524.37 1.285.371"/>
            <path fill="#F8F9FC" d="M453 118.5h57c11.046 0 20 8.954 20 20s-8.954 20-20 20h-57c-11.046 0-20-8.954-20-20s8.954-20 20-20"/>
            <path stroke="#D5D9EB" d="M453 118.5h57c11.046 0 20 8.954 20 20s-8.954 20-20 20h-57c-11.046 0-20-8.954-20-20s8.954-20 20-20Z" fill="none"/>
            <path fill="#363F72" d="M445.406 133.614v-1.25h8.727v1.25h-3.659V144h-1.409v-10.386zm12.1 10.591a3.55 3.55 0 0 1-1.505-.313 2.6 2.6 0 0 1-1.074-.915q-.398-.602-.398-1.454 0-.75.296-1.216.296-.472.789-.739a4.2 4.2 0 0 1 1.091-.398q.603-.135 1.21-.215.797-.103 1.29-.154.5-.057.728-.187.232-.13.232-.455v-.045q0-.842-.46-1.307-.454-.466-1.38-.466-.96 0-1.506.42-.546.421-.767.898l-1.273-.454q.34-.797.909-1.239a3.4 3.4 0 0 1 1.25-.625 5.2 5.2 0 0 1 1.341-.182q.42 0 .966.102.551.097 1.063.404.516.306.857.926t.341 1.659V144h-1.341v-1.182h-.068q-.136.284-.454.608-.319.324-.847.551t-1.29.228m.205-1.205q.795 0 1.341-.312a2.13 2.13 0 0 0 1.113-1.847v-1.227q-.084.102-.375.187a6 6 0 0 1-.659.142 28 28 0 0 1-.721.102q-.347.04-.563.069a5 5 0 0 0-.977.221 1.7 1.7 0 0 0-.727.449q-.273.296-.273.807 0 .699.517 1.057.523.352 1.324.352m7.243-7.727 2.091 3.568 2.091-3.568h1.545l-2.818 4.363 2.818 4.364h-1.545l-2.091-3.386-2.091 3.386h-1.546l2.773-4.364-2.773-4.363zm13.731-2.909V144h-1.409v-11.636zM485.102 144h-3.591v-11.636h3.75q1.692 0 2.897.698 1.205.694 1.847 1.995.642 1.295.642 3.102 0 1.818-.648 3.131a4.6 4.6 0 0 1-1.886 2.011q-1.24.699-3.011.699m-2.182-1.25h2.091q1.443 0 2.392-.557a3.43 3.43 0 0 0 1.414-1.585q.466-1.029.466-2.449 0-1.409-.46-2.426-.46-1.023-1.375-1.568-.915-.552-2.278-.551h-2.25zm19.409-5.193v1.25h-5.091v-1.25zM509.37 144v-11.636h4.068q1.216 0 2.006.42.789.416 1.176 1.119.387.699.386 1.552 0 .75-.267 1.238a2.1 2.1 0 0 1-.693.773 3.2 3.2 0 0 1-.926.42V138q.534.034 1.074.375t.903.977q.364.637.364 1.557 0 .875-.398 1.574t-1.255 1.108q-.859.41-2.233.409zm1.409-1.25h2.796q1.38 0 1.96-.534.585-.54.585-1.307 0-.59-.301-1.091a2.2 2.2 0 0 0-.858-.807q-.557-.306-1.318-.306h-2.864zm0-5.273h2.614q.636 0 1.147-.25.518-.25.819-.704.306-.455.306-1.068 0-.768-.534-1.302-.534-.539-1.693-.539h-2.659z"/>
        </g>
        <g filter="url(#e11e79e3-4ac1-4587-9ddd-c8cf4e6f7d01)">
            <path fill="#ffffff" d="M620 287v147c0 8.837-7.163 16-16 16H359c-8.837 0-16-7.163-16-16V287c0-8.837 7.163-16 16-16h245c8.837 0 16 7.163 16 16"/>
            <g filter="url(#7d7c7427-c24d-40ab-ab30-3c10f657ca1b)">
                <path fill="#0092CA" d="M457.5 301c0-5.523 4.477-10 10-10h28c5.523 0 10 4.477 10 10v28c0 5.523-4.477 10-10 10h-28c-5.523 0-10-4.477-10-10z"/>
                <path stroke-width="2" stroke="url(#54263f7c-66f9-45f0-9b09-573438fa58d6)" d="M467.5 292h28a9 9 0 0 1 9 9v28a9 9 0 0 1-9 9h-28a9 9 0 0 1-9-9v-28a9 9 0 0 1 9-9Z" fill="none"/>
                <g clip-path="url(#967973bd-08c2-4bf5-b2b5-acd738e4721d)">
                    <path stroke-linejoin="round" stroke-linecap="round" stroke-width="2" stroke="#ffffff" d="M481.5 314a4 4 0 1 0 0-8 4 4 0 0 0 0 8" fill="none"/>
                    <path stroke-linejoin="round" stroke-linecap="round" stroke-width="2" stroke="#ffffff" d="M475.5 324v-2c0-1.061.421-2.078 1.172-2.828A4 4 0 0 1 479.5 318h4c1.061 0 2.078.421 2.828 1.172A4 4 0 0 1 487.5 322v2" fill="none"/>
                </g>
            </g>
            <path fill="#04082B" d="M396.333 377v-13.091h2.372v5.542h6.066v-5.542h2.378V377h-2.378v-5.561h-6.066V377zm17.639.192q-1.476 0-2.55-.614a4.15 4.15 0 0 1-1.643-1.751q-.575-1.139-.575-2.679 0-1.515.575-2.659a4.35 4.35 0 0 1 1.623-1.789q1.042-.646 2.449-.646.907 0 1.713.294.811.288 1.431.895.627.607.985 1.547.358.933.358 2.224v.71h-8.048v-1.56h5.83a2.5 2.5 0 0 0-.288-1.182 2.1 2.1 0 0 0-.786-.825q-.498-.3-1.163-.3-.71 0-1.247.345a2.4 2.4 0 0 0-.837.895 2.6 2.6 0 0 0-.301 1.208v1.361q0 .857.314 1.47.312.607.875.934.563.32 1.317.319.505 0 .914-.14.409-.147.71-.429.3-.28.453-.696l2.161.242a3.36 3.36 0 0 1-.78 1.496q-.569.633-1.457.985-.889.345-2.033.345m9.149.006q-.934 0-1.681-.332a2.74 2.74 0 0 1-1.177-.997q-.428-.659-.428-1.624 0-.831.307-1.374t.837-.87a4.2 4.2 0 0 1 1.196-.492 10 10 0 0 1 1.387-.249q.863-.09 1.4-.16.537-.077.779-.23.25-.16.25-.492v-.039q0-.722-.429-1.118-.428-.396-1.233-.396-.85 0-1.349.37-.492.37-.665.876l-2.16-.307q.255-.894.843-1.496a3.7 3.7 0 0 1 1.439-.907 5.5 5.5 0 0 1 1.879-.307q.71 0 1.413.166t1.284.55q.582.376.934 1.029.357.652.358 1.63V377h-2.225v-1.349h-.077a2.8 2.8 0 0 1-1.546 1.336q-.57.211-1.336.211m.601-1.7q.696 0 1.208-.275a2.03 2.03 0 0 0 .786-.741q.28-.46.281-1.004v-1.157q-.108.09-.371.166-.255.077-.575.134t-.633.103l-.543.076a4 4 0 0 0-.927.231 1.53 1.53 0 0 0-.646.447q-.236.28-.236.729 0 .64.467.965.466.326 1.189.326m9.223-11.589V377h-2.314v-13.091zm7.282 3.273v1.79h-5.644v-1.79zm-4.25-2.352h2.314v9.217q0 .467.14.716a.75.75 0 0 0 .384.332q.236.09.524.09.218 0 .396-.032a4 4 0 0 0 .281-.058l.39 1.809q-.185.064-.53.141a4.3 4.3 0 0 1-.831.089q-.87.026-1.566-.262a2.43 2.43 0 0 1-1.106-.908q-.404-.613-.396-1.534zm8.71 6.417V377h-2.314v-13.091h2.263v4.941h.115q.345-.831 1.068-1.31.728-.486 1.853-.486 1.023 0 1.784.428a2.9 2.9 0 0 1 1.176 1.253q.422.825.422 2.014V377h-2.314v-5.893q0-.991-.511-1.541-.505-.556-1.419-.556-.615 0-1.1.268a1.9 1.9 0 0 0-.754.761q-.269.498-.269 1.208m13.008 5.945q-1.47 0-2.525-.646a4.3 4.3 0 0 1-1.617-1.783q-.562-1.144-.562-2.634 0-1.495.575-2.64a4.3 4.3 0 0 1 1.624-1.789q1.055-.646 2.492-.646 1.196 0 2.116.441.927.435 1.477 1.234.55.792.626 1.853h-2.211a2.1 2.1 0 0 0-.64-1.182q-.498-.48-1.336-.48-.71 0-1.246.384-.537.377-.837 1.087-.294.709-.294 1.7 0 1.003.294 1.726.293.716.824 1.106.537.383 1.259.383.512 0 .914-.192.41-.198.684-.569t.378-.901h2.211a3.85 3.85 0 0 1-.613 1.847 3.63 3.63 0 0 1-1.445 1.253q-.913.448-2.148.448m8.932.006a4.1 4.1 0 0 1-1.682-.332 2.75 2.75 0 0 1-1.176-.997q-.428-.659-.428-1.624 0-.831.307-1.374.306-.543.837-.87a4.2 4.2 0 0 1 1.195-.492q.671-.173 1.388-.249.862-.09 1.399-.16.537-.077.78-.23.25-.16.25-.492v-.039q0-.722-.429-1.118-.428-.396-1.233-.396-.85 0-1.349.37-.492.37-.665.876l-2.16-.307q.255-.894.843-1.496a3.7 3.7 0 0 1 1.439-.907 5.5 5.5 0 0 1 1.879-.307 6 6 0 0 1 1.412.166q.703.166 1.285.55.582.376.934 1.029.357.652.357 1.63V377h-2.224v-1.349h-.077a2.8 2.8 0 0 1-1.547 1.336q-.569.211-1.335.211m.6-1.7q.698 0 1.208-.275a2.04 2.04 0 0 0 .787-.741q.28-.46.281-1.004v-1.157q-.109.09-.371.166-.255.077-.575.134t-.633.103l-.543.076a4 4 0 0 0-.927.231 1.53 1.53 0 0 0-.646.447q-.236.28-.236.729 0 .64.466.965.468.326 1.189.326m6.91 1.502v-9.818h2.244v1.636h.102q.269-.85.92-1.31.659-.467 1.503-.467.19 0 .428.019.243.014.403.045v2.129a2.5 2.5 0 0 0-.467-.09 4 4 0 0 0-.607-.045q-.633 0-1.138.275a2 2 0 0 0-.786.748q-.288.48-.288 1.106V377zm11.079.192q-1.476 0-2.55-.614a4.16 4.16 0 0 1-1.643-1.751q-.576-1.139-.575-2.679 0-1.515.575-2.659a4.35 4.35 0 0 1 1.624-1.789q1.041-.646 2.448-.646.908 0 1.713.294a3.9 3.9 0 0 1 1.432.895q.625.607.984 1.547.358.933.358 2.224v.71h-8.048v-1.56h5.83a2.5 2.5 0 0 0-.288-1.182 2.1 2.1 0 0 0-.786-.825q-.498-.3-1.163-.3-.71 0-1.247.345a2.4 2.4 0 0 0-.837.895 2.6 2.6 0 0 0-.301 1.208v1.361q0 .857.314 1.47.312.607.875.934.563.32 1.317.319.505 0 .914-.14.409-.147.71-.429.3-.28.454-.696l2.16.242a3.36 3.36 0 0 1-.78 1.496q-.569.633-1.457.985-.888.345-2.033.345m10.891-.192v-13.091h4.909q1.508 0 2.531.563 1.03.562 1.553 1.546.531.978.531 2.225 0 1.259-.531 2.237-.53.978-1.566 1.541-1.035.555-2.55.556h-3.254v-1.95h2.934q.882 0 1.445-.307.563-.306.831-.843.275-.537.275-1.234t-.275-1.227a1.86 1.86 0 0 0-.838-.825q-.562-.3-1.451-.3h-2.173V377zm11.481 0v-9.818h2.244v1.636h.102q.268-.85.921-1.31a2.53 2.53 0 0 1 1.502-.467q.192 0 .428.019.243.014.403.045v2.129a2.5 2.5 0 0 0-.467-.09 4 4 0 0 0-.607-.045q-.633 0-1.138.275a2 2 0 0 0-.786.748q-.288.48-.288 1.106V377zm11.015.192q-1.437 0-2.492-.633a4.3 4.3 0 0 1-1.637-1.771q-.575-1.137-.575-2.659 0-1.52.575-2.665a4.3 4.3 0 0 1 1.637-1.777q1.055-.633 2.492-.633t2.493.633a4.24 4.24 0 0 1 1.63 1.777q.582 1.144.582 2.665t-.582 2.659a4.25 4.25 0 0 1-1.63 1.771q-1.054.633-2.493.633m.013-1.854q.78 0 1.304-.428.525-.435.78-1.164a4.8 4.8 0 0 0 .262-1.623q0-.901-.262-1.63-.255-.735-.78-1.17-.524-.435-1.304-.435-.799 0-1.329.435-.525.435-.787 1.17a4.9 4.9 0 0 0-.255 1.63q0 .895.255 1.623.262.729.787 1.164.53.428 1.329.428m15.092-8.156L530.211 377h-2.556l-3.497-9.818h2.467l2.257 7.293h.102l2.263-7.293zm1.601 9.818v-9.818h2.314V377zm1.163-11.212q-.549 0-.946-.364a1.17 1.17 0 0 1-.396-.888q0-.525.396-.889a1.34 1.34 0 0 1 .946-.371q.556 0 .946.371.397.364.397.889 0 .517-.397.888-.39.364-.946.364m7.174 11.385a3.7 3.7 0 0 1-2.071-.595q-.915-.594-1.445-1.726-.53-1.131-.53-2.748 0-1.637.537-2.762.543-1.131 1.463-1.706a3.76 3.76 0 0 1 2.052-.582q.864 0 1.419.294.557.288.882.697.327.402.505.76h.096v-4.896h2.321V377h-2.276v-1.547h-.141a4 4 0 0 1-.517.761q-.34.396-.895.677-.557.282-1.4.282m.645-1.899q.736 0 1.253-.396.518-.403.787-1.119.267-.716.268-1.668 0-.952-.268-1.656-.262-.703-.78-1.093-.511-.39-1.26-.39-.773 0-1.291.403t-.78 1.112-.262 1.624q0 .92.262 1.643.268.715.787 1.131.524.41 1.284.409m11.396 1.918q-1.476 0-2.551-.614a4.15 4.15 0 0 1-1.642-1.751q-.576-1.139-.576-2.679 0-1.515.576-2.659a4.35 4.35 0 0 1 1.623-1.789q1.043-.646 2.448-.646.909 0 1.713.294.813.288 1.432.895.627.607.985 1.547.358.933.358 2.224v.71h-8.048v-1.56h5.83a2.5 2.5 0 0 0-.288-1.182 2.1 2.1 0 0 0-.786-.825q-.499-.3-1.164-.3-.71 0-1.246.345a2.4 2.4 0 0 0-.837.895 2.6 2.6 0 0 0-.301 1.208v1.361q0 .857.313 1.47.313.607.876.934.563.32 1.317.319.504 0 .914-.14.41-.147.709-.429.301-.28.454-.696l2.161.242a3.4 3.4 0 0 1-.78 1.496q-.569.633-1.457.985-.889.345-2.033.345m6.323-.192v-9.818h2.244v1.636h.102q.268-.85.921-1.31a2.53 2.53 0 0 1 1.502-.467q.192 0 .428.019.243.014.403.045v2.129a2.5 2.5 0 0 0-.467-.09 4 4 0 0 0-.607-.045q-.633 0-1.138.275a2 2 0 0 0-.786.748q-.288.48-.288 1.106V377z"/>
            <path fill="#F8F9FC" d="M457.5 389.5h48c11.046 0 20 8.954 20 20s-8.954 20-20 20h-48c-11.046 0-20-8.954-20-20s8.954-20 20-20"/>
            <path stroke="#D5D9EB" d="M457.5 389.5h48c11.046 0 20 8.954 20 20s-8.954 20-20 20h-48c-11.046 0-20-8.954-20-20s8.954-20 20-20Z" fill="none"/>
            <path fill="#363F72" d="M450.806 409.182q0-2.148.557-3.949a12.3 12.3 0 0 1 1.602-3.324h1.182a7.3 7.3 0 0 0-.767 1.386 13.5 13.5 0 0 0-.619 1.802 17 17 0 0 0-.421 2.022 15 15 0 0 0-.148 2.063q0 1.352.262 2.744.261 1.392.704 2.585.444 1.194.989 1.944h-1.182a12.4 12.4 0 0 1-1.602-3.319q-.557-1.806-.557-3.954m14.729-5.818V415h-1.364l-6.341-9.136h-.113V415h-1.409v-11.636h1.363l6.364 9.159h.113v-9.159zM468.354 415v-11.636h3.932q1.37 0 2.239.494.875.489 1.295 1.324.421.835.421 1.863t-.421 1.87q-.414.84-1.284 1.341-.869.494-2.227.494h-2.818v-1.25h2.772q.938 0 1.506-.324.569-.323.824-.875.261-.557.261-1.256a2.9 2.9 0 0 0-.261-1.25 1.86 1.86 0 0 0-.83-.863q-.573-.318-1.522-.318h-2.478V415zm11.566-11.636V415h-1.409v-11.636zm5.507 5.818q0 2.148-.563 3.954a12.2 12.2 0 0 1-1.596 3.319h-1.182q.409-.563.761-1.387.358-.818.625-1.795.267-.984.415-2.029a14.3 14.3 0 0 0-.108-4.806 16 16 0 0 0-.704-2.586q-.444-1.193-.989-1.943h1.182a12.2 12.2 0 0 1 1.596 3.324q.563 1.801.563 3.949m12.433-.625v1.25h-5.091v-1.25zm7.041 6.443v-11.636h4.068q1.217 0 2.006.42.79.415 1.176 1.119.387.699.387 1.552 0 .75-.267 1.238a2.1 2.1 0 0 1-.694.773 3.2 3.2 0 0 1-.926.42V409q.534.034 1.074.375t.904.977q.363.637.363 1.557 0 .875-.398 1.574-.397.699-1.255 1.108t-2.233.409zm1.409-1.25h2.796q1.38 0 1.96-.534.585-.54.585-1.307 0-.59-.301-1.091a2.2 2.2 0 0 0-.858-.807q-.556-.306-1.318-.306h-2.864zm0-5.273h2.614q.636 0 1.148-.25.516-.25.818-.704.306-.454.307-1.068 0-.768-.534-1.302-.534-.539-1.694-.539h-2.659z"/>
        </g>
        <g filter="url(#7d9702c2-6a76-4412-8675-4fe68bd04b26)">
            <path fill="#ffffff" d="M277 287v147c0 8.837-7.163 16-16 16H16c-8.837 0-16-7.163-16-16V287c0-8.837 7.163-16 16-16h245c8.837 0 16 7.163 16 16"/>
            <g filter="url(#d2255091-39a2-49ea-82cd-482a6d74b6db)">
                <path fill="#0092CA" d="M114.5 301c0-5.523 4.477-10 10-10h28c5.523 0 10 4.477 10 10v28c0 5.523-4.477 10-10 10h-28c-5.523 0-10-4.477-10-10z"/>
                <path stroke-width="2" stroke="url(#b2ea7a25-fe05-4c3f-935b-fc9d0a85647f)" d="M124.5 292h28a9 9 0 0 1 9 9v28a9 9 0 0 1-9 9h-28a9 9 0 0 1-9-9v-28a9 9 0 0 1 9-9Z" fill="none"/>
                <g clip-path="url(#8a128614-d736-4121-babd-6e2fdbf0a1f8)">
                    <path stroke-linejoin="round" stroke-linecap="round" stroke-width="2" stroke="#ffffff" d="M138.5 314a4 4 0 1 0 0-8 4 4 0 0 0 0 8" fill="none"/>
                    <path stroke-linejoin="round" stroke-linecap="round" stroke-width="2" stroke="#ffffff" d="M132.5 324v-2c0-1.061.421-2.078 1.172-2.828A4 4 0 0 1 136.5 318h4c1.061 0 2.078.421 2.828 1.172A4 4 0 0 1 144.5 322v2" fill="none"/>
                </g>
            </g>
            <path fill="#04082B" d="M53.333 377v-13.091h2.372v5.542h6.066v-5.542h2.377V377h-2.377v-5.561h-6.066V377zm17.639.192q-1.476 0-2.55-.614a4.15 4.15 0 0 1-1.643-1.751q-.576-1.139-.575-2.679 0-1.515.575-2.659a4.35 4.35 0 0 1 1.623-1.789q1.042-.646 2.449-.646.908 0 1.713.294.81.288 1.432.895.626.607.984 1.547.358.933.358 2.224v.71H67.29v-1.56h5.83a2.5 2.5 0 0 0-.288-1.182 2.1 2.1 0 0 0-.786-.825q-.499-.3-1.164-.3-.71 0-1.246.345a2.4 2.4 0 0 0-.837.895 2.6 2.6 0 0 0-.3 1.208v1.361q0 .857.313 1.47.312.607.875.934.562.32 1.317.319.505 0 .914-.14.41-.147.71-.429.3-.28.453-.696l2.16.242a3.4 3.4 0 0 1-.779 1.496q-.57.633-1.457.985-.889.345-2.033.345m9.149.006a4.1 4.1 0 0 1-1.681-.332 2.74 2.74 0 0 1-1.177-.997q-.428-.659-.428-1.624 0-.831.307-1.374.308-.543.837-.87a4.2 4.2 0 0 1 1.196-.492 10 10 0 0 1 1.387-.249q.863-.09 1.4-.16.536-.077.78-.23.249-.16.249-.492v-.039q0-.722-.429-1.118-.427-.396-1.233-.396-.85 0-1.349.37-.492.37-.665.876l-2.16-.307q.255-.894.844-1.496a3.7 3.7 0 0 1 1.438-.907 5.5 5.5 0 0 1 1.879-.307q.71 0 1.413.166t1.284.55q.583.376.934 1.029.358.652.358 1.63V377H83.08v-1.349h-.076q-.212.41-.595.767a2.9 2.9 0 0 1-.952.569q-.57.211-1.336.211m.6-1.7q.698 0 1.209-.275.51-.281.786-.741.28-.46.281-1.004v-1.157q-.108.09-.37.166-.257.077-.576.134-.32.058-.633.103l-.543.076a4 4 0 0 0-.927.231 1.53 1.53 0 0 0-.645.447q-.237.28-.237.729 0 .64.467.965.465.326 1.189.326m9.224-11.589V377h-2.314v-13.091zm7.282 3.273v1.79h-5.644v-1.79zm-4.25-2.352h2.314v9.217q0 .467.14.716a.76.76 0 0 0 .384.332q.236.09.524.09.218 0 .396-.032.186-.033.281-.058l.39 1.809q-.185.064-.53.141a4.3 4.3 0 0 1-.831.089q-.87.026-1.566-.262a2.43 2.43 0 0 1-1.106-.908q-.403-.613-.396-1.534zm8.71 6.417V377h-2.313v-13.091h2.262v4.941h.115q.345-.831 1.068-1.31.728-.486 1.853-.486 1.023 0 1.784.428a2.9 2.9 0 0 1 1.176 1.253q.422.825.422 2.014V377h-2.314v-5.893q0-.991-.511-1.541-.505-.556-1.419-.556-.614 0-1.1.268a1.9 1.9 0 0 0-.754.761q-.269.498-.269 1.208m13.008 5.945q-1.47 0-2.525-.646a4.3 4.3 0 0 1-1.617-1.783q-.562-1.144-.562-2.634 0-1.495.575-2.64a4.3 4.3 0 0 1 1.624-1.789q1.055-.646 2.492-.646 1.196 0 2.116.441.927.435 1.477 1.234.55.792.626 1.853h-2.211a2.1 2.1 0 0 0-.64-1.182q-.498-.48-1.336-.48-.71 0-1.246.384-.537.377-.837 1.087-.294.709-.294 1.7 0 1.003.294 1.726.293.716.824 1.106.537.383 1.259.383.512 0 .914-.192.41-.198.684-.569t.378-.901h2.211a3.85 3.85 0 0 1-.613 1.847 3.63 3.63 0 0 1-1.445 1.253q-.914.448-2.148.448m8.932.006a4.1 4.1 0 0 1-1.682-.332 2.75 2.75 0 0 1-1.176-.997q-.428-.659-.428-1.624 0-.831.307-1.374.306-.543.837-.87a4.2 4.2 0 0 1 1.195-.492q.671-.173 1.388-.249.862-.09 1.399-.16.537-.077.78-.23.25-.16.25-.492v-.039q0-.722-.429-1.118-.427-.396-1.233-.396-.85 0-1.349.37-.492.37-.665.876l-2.16-.307q.255-.894.843-1.496a3.7 3.7 0 0 1 1.439-.907 5.5 5.5 0 0 1 1.879-.307 6 6 0 0 1 1.412.166q.703.166 1.285.55.582.376.934 1.029.357.652.357 1.63V377h-2.224v-1.349h-.077a2.8 2.8 0 0 1-1.547 1.336q-.569.211-1.335.211m.6-1.7q.698 0 1.208-.275a2.04 2.04 0 0 0 .787-.741q.28-.46.281-1.004v-1.157q-.109.09-.371.166-.255.077-.575.134t-.633.103l-.543.076a4 4 0 0 0-.927.231 1.53 1.53 0 0 0-.646.447q-.236.28-.236.729 0 .64.466.965.468.326 1.189.326m6.91 1.502v-9.818h2.244v1.636h.102q.269-.85.92-1.31.659-.467 1.503-.467.19 0 .428.019.243.014.403.045v2.129a2.5 2.5 0 0 0-.467-.09 4 4 0 0 0-.607-.045q-.633 0-1.138.275a2 2 0 0 0-.786.748q-.288.48-.288 1.106V377zm11.079.192q-1.476 0-2.55-.614a4.16 4.16 0 0 1-1.643-1.751q-.575-1.139-.575-2.679 0-1.515.575-2.659a4.35 4.35 0 0 1 1.624-1.789q1.041-.646 2.448-.646.907 0 1.713.294a3.9 3.9 0 0 1 1.432.895q.625.607.984 1.547.358.933.358 2.224v.71h-8.048v-1.56h5.83a2.5 2.5 0 0 0-.288-1.182 2.1 2.1 0 0 0-.786-.825q-.498-.3-1.163-.3-.71 0-1.247.345a2.4 2.4 0 0 0-.837.895 2.6 2.6 0 0 0-.301 1.208v1.361q0 .857.314 1.47.312.607.875.934.562.32 1.317.319.505 0 .914-.14.409-.147.71-.429.3-.28.454-.696l2.16.242a3.36 3.36 0 0 1-.78 1.496q-.569.633-1.457.985-.888.345-2.033.345m10.891-.192v-13.091h4.909q1.508 0 2.531.563 1.03.562 1.553 1.546.531.978.531 2.225 0 1.259-.531 2.237-.53.978-1.566 1.541-1.035.555-2.55.556h-3.254v-1.95h2.934q.882 0 1.445-.307.562-.306.831-.843.275-.537.275-1.234t-.275-1.227a1.86 1.86 0 0 0-.838-.825q-.562-.3-1.451-.3h-2.173V377zm11.481 0v-9.818h2.244v1.636h.102q.268-.85.921-1.31a2.53 2.53 0 0 1 1.502-.467q.191 0 .428.019.243.014.403.045v2.129a2.5 2.5 0 0 0-.467-.09 4 4 0 0 0-.607-.045q-.633 0-1.138.275a2 2 0 0 0-.786.748q-.288.48-.288 1.106V377zm11.015.192q-1.437 0-2.492-.633a4.3 4.3 0 0 1-1.637-1.771q-.575-1.137-.575-2.659 0-1.52.575-2.665a4.3 4.3 0 0 1 1.637-1.777q1.055-.633 2.492-.633t2.493.633a4.24 4.24 0 0 1 1.63 1.777q.582 1.144.582 2.665t-.582 2.659a4.25 4.25 0 0 1-1.63 1.771q-1.055.633-2.493.633m.013-1.854q.78 0 1.304-.428.525-.435.78-1.164a4.8 4.8 0 0 0 .262-1.623q0-.901-.262-1.63-.255-.735-.78-1.17-.524-.435-1.304-.435-.799 0-1.329.435-.525.435-.787 1.17a4.9 4.9 0 0 0-.255 1.63q0 .895.255 1.623.262.729.787 1.164.53.428 1.329.428m15.092-8.156L187.211 377h-2.556l-3.497-9.818h2.467l2.257 7.293h.102l2.263-7.293zM192.31 377v-9.818h2.314V377zm1.163-11.212q-.549 0-.946-.364a1.17 1.17 0 0 1-.396-.888q0-.525.396-.889a1.34 1.34 0 0 1 .946-.371q.556 0 .946.371.397.364.397.889 0 .517-.397.888-.39.364-.946.364m7.174 11.385a3.7 3.7 0 0 1-2.071-.595q-.914-.594-1.445-1.726-.53-1.131-.53-2.748 0-1.637.537-2.762.543-1.131 1.463-1.706a3.76 3.76 0 0 1 2.052-.582q.864 0 1.419.294.556.288.882.697.327.402.505.76h.096v-4.896h2.321V377H203.6v-1.547h-.141a4 4 0 0 1-.517.761q-.34.396-.895.677-.557.282-1.4.282m.645-1.899q.736 0 1.253-.396.518-.403.787-1.119.268-.716.268-1.668t-.268-1.656q-.263-.703-.78-1.093-.512-.39-1.26-.39-.773 0-1.291.403t-.78 1.112-.262 1.624q0 .92.262 1.643.268.715.787 1.131.523.41 1.284.409m11.396 1.918q-1.476 0-2.551-.614a4.15 4.15 0 0 1-1.642-1.751q-.576-1.139-.576-2.679 0-1.515.576-2.659a4.35 4.35 0 0 1 1.623-1.789q1.042-.646 2.448-.646.909 0 1.713.294.813.288 1.432.895.627.607.985 1.547.358.933.358 2.224v.71h-8.048v-1.56h5.83a2.5 2.5 0 0 0-.288-1.182 2.1 2.1 0 0 0-.786-.825q-.499-.3-1.164-.3-.71 0-1.246.345a2.4 2.4 0 0 0-.837.895 2.6 2.6 0 0 0-.301 1.208v1.361q0 .857.313 1.47.313.607.876.934.562.32 1.317.319.504 0 .914-.14.41-.147.709-.429.301-.28.454-.696l2.161.242a3.4 3.4 0 0 1-.78 1.496q-.569.633-1.457.985-.889.345-2.033.345m6.323-.192v-9.818h2.244v1.636h.102q.269-.85.921-1.31a2.53 2.53 0 0 1 1.502-.467q.192 0 .428.019.243.014.403.045v2.129a2.5 2.5 0 0 0-.467-.09 4 4 0 0 0-.607-.045q-.633 0-1.138.275a2 2 0 0 0-.786.748q-.288.48-.288 1.106V377z"/>
            <path fill="#F8F9FC" d="M114 389.5h49c11.046 0 20 8.954 20 20s-8.954 20-20 20h-49c-11.046 0-20-8.954-20-20s8.954-20 20-20"/>
            <path stroke="#D5D9EB" d="M114 389.5h49c11.046 0 20 8.954 20 20s-8.954 20-20 20h-49c-11.046 0-20-8.954-20-20s8.954-20 20-20Z" fill="none"/>
            <path fill="#363F72" d="M107.603 409.182q0-2.148.557-3.949a12.3 12.3 0 0 1 1.602-3.324h1.182a7.3 7.3 0 0 0-.767 1.386 13.5 13.5 0 0 0-.619 1.802 17 17 0 0 0-.421 2.022 15 15 0 0 0-.148 2.063q0 1.352.262 2.744.261 1.392.704 2.585.444 1.194.989 1.944h-1.182a12.4 12.4 0 0 1-1.602-3.319q-.557-1.806-.557-3.954m14.729-5.818V415h-1.364l-6.341-9.136h-.114V415h-1.409v-11.636h1.364l6.364 9.159h.113v-9.159zM125.151 415v-11.636h3.932q1.37 0 2.239.494.875.489 1.295 1.324a4.1 4.1 0 0 1 .421 1.863q0 1.029-.421 1.87-.414.84-1.284 1.341-.869.494-2.227.494h-2.818v-1.25h2.772q.938 0 1.506-.324a1.93 1.93 0 0 0 .824-.875q.261-.557.261-1.256a2.9 2.9 0 0 0-.261-1.25 1.87 1.87 0 0 0-.83-.863q-.573-.318-1.522-.318h-2.478V415zm11.566-11.636V415h-1.409v-11.636zm5.507 5.818q0 2.148-.563 3.954a12.2 12.2 0 0 1-1.596 3.319h-1.182q.409-.563.761-1.387.358-.818.625-1.795.267-.984.415-2.029a14.3 14.3 0 0 0-.108-4.806 15.7 15.7 0 0 0-.705-2.586q-.443-1.193-.988-1.943h1.182a12.2 12.2 0 0 1 1.596 3.324q.563 1.801.563 3.949m12.433-.625v1.25h-5.091v-1.25zm7.518 6.443h-1.477l4.273-11.636h1.454L170.698 415h-1.477l-3.477-9.795h-.091zm.546-4.545h5.954v1.25h-5.954z"/>
        </g>
        <path fill="#A1A3BC" d="M140.067 185.939a1.5 1.5 0 0 0-2.122 0l-9.546 9.545a1.501 1.501 0 0 0 2.121 2.122l8.486-8.485 8.484 8.486a1.5 1.5 0 0 0 2.122-2.121zm-2.561 3.172v1.5h3v-1.5zm2.999 8.445v-1.5l-3-.001v1.5l1.5.001zm-3 4.222v1.5h3v-1.5zm2.999 8.444v-1.5h-3v1.5zm-3 4.222v1.5l3 .001v-1.5l-1.5-.001zm2.999 8.445v-1.5h-3v1.5zm-3 4.222v1.5h3v-1.5zm2.999 8.445v-1.5l-3-.001v1.5l1.5.001zm-3 4.222v1.5h3v-1.5zm2.999 8.444v-1.5h-3v1.5zm-3 4.222v1.5l3 .001v-1.5l-1.5-.001zm2.999 8.445v-1.5h-3v1.5zM139.006 187h-1.5v2.111h3V187zm-.001 10.556-1.5-.001v4.223h3v-4.222zm-.001 12.666h-1.5v4.222h1.5l1.5.001v-4.223zm-.001 12.667h-1.5v4.222h3v-4.222zm-.001 12.667-1.5-.001v4.223h3v-4.222zm-.001 12.666h-1.5v4.222h1.5l1.5.001v-4.223zM139 260.889h-1.5V263h3v-2.111z"/>
        <path fill="#A1A3BC" d="M515.067 185.939a1.5 1.5 0 0 0-2.122 0l-9.546 9.545a1.501 1.501 0 0 0 2.121 2.122l8.486-8.485 8.484 8.486a1.5 1.5 0 0 0 2.122-2.121zm-2.561 3.172v1.5h3v-1.5zm2.999 8.445v-1.5l-3-.001v1.5l1.5.001zm-3 4.222v1.5h3v-1.5zm2.999 8.444v-1.5h-3v1.5zm-3 4.222v1.5l3 .001v-1.5l-1.5-.001zm2.999 8.445v-1.5h-3v1.5zm-3 4.222v1.5h3v-1.5zm2.999 8.445v-1.5l-3-.001v1.5l1.5.001zm-3 4.222v1.5h3v-1.5zm2.999 8.444v-1.5h-3v1.5zm-3 4.222v1.5l3 .001v-1.5l-1.5-.001zm2.999 8.445v-1.5h-3v1.5zM514.006 187h-1.5v2.111h3V187zm-.001 10.556-1.5-.001v4.223h3v-4.222zm-.001 12.666h-1.5v4.222h1.5l1.5.001v-4.223zm-.001 12.667h-1.5v4.222h3v-4.222zm-.001 12.667-1.5-.001v4.223h3v-4.222zm-.001 12.666h-1.5v4.222h1.5l1.5.001v-4.223zM514 260.889h-1.5V263h3v-2.111z"/>
        <path fill="#A1A3BC" d="M483.061 185.939a1.5 1.5 0 0 0-2.122 0l-9.546 9.546a1.5 1.5 0 0 0 0 2.122 1.5 1.5 0 0 0 2.122 0l8.485-8.486 8.485 8.486a1.5 1.5 0 0 0 2.122 0 1.5 1.5 0 0 0 0-2.122zm-2.561 3.228v1.5h3v-1.5zm3 8.666v-1.5h-3v1.5zm-3 4.334v1.5h3v-1.5zm3 8.666v-1.5h-3v1.5zm-3 4.334v1.5h3v-1.5zm3 8.666v-1.5h-3v1.5zM482 187h-1.5v2.167h3V187zm0 10.833h-1.5v4.334h3v-4.334zm0 13h-1.5v4.334h3v-4.334zm0 13h-1.5V226h3v-2.167z"/>
        <path stroke-dasharray="4 8" stroke-width="3" stroke="#A1A3BC" d="M484 225H137" fill="none"/>
        <defs fill="none">
            <filter color-interpolation-filters="sRGB" filterUnits="userSpaceOnUse" height="182" width="277" y="-2" x="0" id="f4599ebe-176c-4abc-9de2-41d1e1320dc5">
                <feFlood result="BackgroundImageFix" flood-opacity="0"/>
                <feBlend result="shape" in2="BackgroundImageFix" in="SourceGraphic"/>
                <feColorMatrix result="hardAlpha" values="0 0 0 0 0 0 0 0 0 0 0 0 0 0 0 0 0 0 127 0" in="SourceAlpha"/>
                <feOffset dy="1"/>
                <feGaussianBlur stdDeviation="1"/>
                <feComposite k3="1" k2="-1" operator="arithmetic" in2="hardAlpha"/>
                <feColorMatrix values="0 0 0 0 1 0 0 0 0 1 0 0 0 0 1 0 0 0 1 0"/>
                <feBlend result="effect1_innerShadow_84_7840" in2="shape"/>
                <feColorMatrix result="hardAlpha" values="0 0 0 0 0 0 0 0 0 0 0 0 0 0 0 0 0 0 127 0" in="SourceAlpha"/>
                <feOffset/>
                <feGaussianBlur stdDeviation="1"/>
                <feComposite k3="1" k2="-1" operator="arithmetic" in2="hardAlpha"/>
                <feColorMatrix values="0 0 0 0 0.768924 0 0 0 0 0.802984 0 0 0 0 0.858333 0 0 0 1 0"/>
                <feBlend result="effect2_innerShadow_84_7840" in2="effect1_innerShadow_84_7840"/>
                <feColorMatrix result="hardAlpha" values="0 0 0 0 0 0 0 0 0 0 0 0 0 0 0 0 0 0 127 0" in="SourceAlpha"/>
                <feOffset dy="-3"/>
                <feGaussianBlur stdDeviation="1"/>
                <feComposite k3="1" k2="-1" operator="arithmetic" in2="hardAlpha"/>
                <feColorMatrix values="0 0 0 0 0.86566 0 0 0 0 0.880943 0 0 0 0 0.891667 0 0 0 1 0"/>
                <feBlend result="effect3_innerShadow_84_7840" in2="effect2_innerShadow_84_7840"/>
            </filter>
            <filter color-interpolation-filters="sRGB" filterUnits="userSpaceOnUse" height="52" width="52" y="19" x="112.5" id="5acc1b55-5744-46cd-822f-a81532064a3b">
                <feFlood result="BackgroundImageFix" flood-opacity="0"/>
                <feColorMatrix result="hardAlpha" values="0 0 0 0 0 0 0 0 0 0 0 0 0 0 0 0 0 0 127 0" in="SourceAlpha"/>
                <feOffset dy="1"/>
                <feGaussianBlur stdDeviation="1"/>
                <feComposite operator="out" in2="hardAlpha"/>
                <feColorMatrix values="0 0 0 0 0.0392157 0 0 0 0 0.0496732 0 0 0 0 0.0705882 0 0 0 0.05 0"/>
                <feBlend result="effect1_dropShadow_84_7840" in2="BackgroundImageFix"/>
                <feBlend result="shape" in2="effect1_dropShadow_84_7840" in="SourceGraphic"/>
                <feColorMatrix result="hardAlpha" values="0 0 0 0 0 0 0 0 0 0 0 0 0 0 0 0 0 0 127 0" in="SourceAlpha"/>
                <feOffset dy="-2"/>
                <feComposite k3="1" k2="-1" operator="arithmetic" in2="hardAlpha"/>
                <feColorMatrix values="0 0 0 0 0.0392157 0 0 0 0 0.0496732 0 0 0 0 0.0705882 0 0 0 0.05 0"/>
                <feBlend result="effect2_innerShadow_84_7840" in2="shape"/>
                <feColorMatrix result="hardAlpha" values="0 0 0 0 0 0 0 0 0 0 0 0 0 0 0 0 0 0 127 0" in="SourceAlpha"/>
                <feMorphology result="effect3_innerShadow_84_7840" in="SourceAlpha" radius="1"/>
                <feOffset/>
                <feComposite k3="1" k2="-1" operator="arithmetic" in2="hardAlpha"/>
                <feColorMatrix values="0 0 0 0 0.0392157 0 0 0 0 0.0496732 0 0 0 0 0.0705882 0 0 0 0.18 0"/>
                <feBlend result="effect3_innerShadow_84_7840" in2="effect2_innerShadow_84_7840"/>
            </filter>
            <filter color-interpolation-filters="sRGB" filterUnits="userSpaceOnUse" height="182" width="277" y="-2" x="343" id="f5a19932-5fdf-487f-9326-699b0ce04421">
                <feFlood result="BackgroundImageFix" flood-opacity="0"/>
                <feBlend result="shape" in2="BackgroundImageFix" in="SourceGraphic"/>
                <feColorMatrix result="hardAlpha" values="0 0 0 0 0 0 0 0 0 0 0 0 0 0 0 0 0 0 127 0" in="SourceAlpha"/>
                <feOffset dy="1"/>
                <feGaussianBlur stdDeviation="1"/>
                <feComposite k3="1" k2="-1" operator="arithmetic" in2="hardAlpha"/>
                <feColorMatrix values="0 0 0 0 1 0 0 0 0 1 0 0 0 0 1 0 0 0 1 0"/>
                <feBlend result="effect1_innerShadow_84_7840" in2="shape"/>
                <feColorMatrix result="hardAlpha" values="0 0 0 0 0 0 0 0 0 0 0 0 0 0 0 0 0 0 127 0" in="SourceAlpha"/>
                <feOffset/>
                <feGaussianBlur stdDeviation="1"/>
                <feComposite k3="1" k2="-1" operator="arithmetic" in2="hardAlpha"/>
                <feColorMatrix values="0 0 0 0 0.768924 0 0 0 0 0.802984 0 0 0 0 0.858333 0 0 0 1 0"/>
                <feBlend result="effect2_innerShadow_84_7840" in2="effect1_innerShadow_84_7840"/>
                <feColorMatrix result="hardAlpha" values="0 0 0 0 0 0 0 0 0 0 0 0 0 0 0 0 0 0 127 0" in="SourceAlpha"/>
                <feOffset dy="-3"/>
                <feGaussianBlur stdDeviation="1"/>
                <feComposite k3="1" k2="-1" operator="arithmetic" in2="hardAlpha"/>
                <feColorMatrix values="0 0 0 0 0.86566 0 0 0 0 0.880943 0 0 0 0 0.891667 0 0 0 1 0"/>
                <feBlend result="effect3_innerShadow_84_7840" in2="effect2_innerShadow_84_7840"/>
            </filter>
            <filter color-interpolation-filters="sRGB" filterUnits="userSpaceOnUse" height="52" width="52" y="19" x="455.5" id="f45dc576-40f0-42bc-a1d9-718de7aa2e9b">
                <feFlood result="BackgroundImageFix" flood-opacity="0"/>
                <feColorMatrix result="hardAlpha" values="0 0 0 0 0 0 0 0 0 0 0 0 0 0 0 0 0 0 127 0" in="SourceAlpha"/>
                <feOffset dy="1"/>
                <feGaussianBlur stdDeviation="1"/>
                <feComposite operator="out" in2="hardAlpha"/>
                <feColorMatrix values="0 0 0 0 0.0392157 0 0 0 0 0.0496732 0 0 0 0 0.0705882 0 0 0 0.05 0"/>
                <feBlend result="effect1_dropShadow_84_7840" in2="BackgroundImageFix"/>
                <feBlend result="shape" in2="effect1_dropShadow_84_7840" in="SourceGraphic"/>
                <feColorMatrix result="hardAlpha" values="0 0 0 0 0 0 0 0 0 0 0 0 0 0 0 0 0 0 127 0" in="SourceAlpha"/>
                <feOffset dy="-2"/>
                <feComposite k3="1" k2="-1" operator="arithmetic" in2="hardAlpha"/>
                <feColorMatrix values="0 0 0 0 0.0392157 0 0 0 0 0.0496732 0 0 0 0 0.0705882 0 0 0 0.05 0"/>
                <feBlend result="effect2_innerShadow_84_7840" in2="shape"/>
                <feColorMatrix result="hardAlpha" values="0 0 0 0 0 0 0 0 0 0 0 0 0 0 0 0 0 0 127 0" in="SourceAlpha"/>
                <feMorphology result="effect3_innerShadow_84_7840" in="SourceAlpha" radius="1"/>
                <feOffset/>
                <feComposite k3="1" k2="-1" operator="arithmetic" in2="hardAlpha"/>
                <feColorMatrix values="0 0 0 0 0.0392157 0 0 0 0 0.0496732 0 0 0 0 0.0705882 0 0 0 0.18 0"/>
                <feBlend result="effect3_innerShadow_84_7840" in2="effect2_innerShadow_84_7840"/>
            </filter>
            <filter color-interpolation-filters="sRGB" filterUnits="userSpaceOnUse" height="182" width="277" y="269" x="343" id="e11e79e3-4ac1-4587-9ddd-c8cf4e6f7d01">
                <feFlood result="BackgroundImageFix" flood-opacity="0"/>
                <feBlend result="shape" in2="BackgroundImageFix" in="SourceGraphic"/>
                <feColorMatrix result="hardAlpha" values="0 0 0 0 0 0 0 0 0 0 0 0 0 0 0 0 0 0 127 0" in="SourceAlpha"/>
                <feOffset dy="1"/>
                <feGaussianBlur stdDeviation="1"/>
                <feComposite k3="1" k2="-1" operator="arithmetic" in2="hardAlpha"/>
                <feColorMatrix values="0 0 0 0 1 0 0 0 0 1 0 0 0 0 1 0 0 0 1 0"/>
                <feBlend result="effect1_innerShadow_84_7840" in2="shape"/>
                <feColorMatrix result="hardAlpha" values="0 0 0 0 0 0 0 0 0 0 0 0 0 0 0 0 0 0 127 0" in="SourceAlpha"/>
                <feOffset/>
                <feGaussianBlur stdDeviation="1"/>
                <feComposite k3="1" k2="-1" operator="arithmetic" in2="hardAlpha"/>
                <feColorMatrix values="0 0 0 0 0.768924 0 0 0 0 0.802984 0 0 0 0 0.858333 0 0 0 1 0"/>
                <feBlend result="effect2_innerShadow_84_7840" in2="effect1_innerShadow_84_7840"/>
                <feColorMatrix result="hardAlpha" values="0 0 0 0 0 0 0 0 0 0 0 0 0 0 0 0 0 0 127 0" in="SourceAlpha"/>
                <feOffset dy="-3"/>
                <feGaussianBlur stdDeviation="1"/>
                <feComposite k3="1" k2="-1" operator="arithmetic" in2="hardAlpha"/>
                <feColorMatrix values="0 0 0 0 0.86566 0 0 0 0 0.880943 0 0 0 0 0.891667 0 0 0 1 0"/>
                <feBlend result="effect3_innerShadow_84_7840" in2="effect2_innerShadow_84_7840"/>
            </filter>
            <filter color-interpolation-filters="sRGB" filterUnits="userSpaceOnUse" height="52" width="52" y="290" x="455.5" id="7d7c7427-c24d-40ab-ab30-3c10f657ca1b">
                <feFlood result="BackgroundImageFix" flood-opacity="0"/>
                <feColorMatrix result="hardAlpha" values="0 0 0 0 0 0 0 0 0 0 0 0 0 0 0 0 0 0 127 0" in="SourceAlpha"/>
                <feOffset dy="1"/>
                <feGaussianBlur stdDeviation="1"/>
                <feComposite operator="out" in2="hardAlpha"/>
                <feColorMatrix values="0 0 0 0 0.0392157 0 0 0 0 0.0496732 0 0 0 0 0.0705882 0 0 0 0.05 0"/>
                <feBlend result="effect1_dropShadow_84_7840" in2="BackgroundImageFix"/>
                <feBlend result="shape" in2="effect1_dropShadow_84_7840" in="SourceGraphic"/>
                <feColorMatrix result="hardAlpha" values="0 0 0 0 0 0 0 0 0 0 0 0 0 0 0 0 0 0 127 0" in="SourceAlpha"/>
                <feOffset dy="-2"/>
                <feComposite k3="1" k2="-1" operator="arithmetic" in2="hardAlpha"/>
                <feColorMatrix values="0 0 0 0 0.0392157 0 0 0 0 0.0496732 0 0 0 0 0.0705882 0 0 0 0.05 0"/>
                <feBlend result="effect2_innerShadow_84_7840" in2="shape"/>
                <feColorMatrix result="hardAlpha" values="0 0 0 0 0 0 0 0 0 0 0 0 0 0 0 0 0 0 127 0" in="SourceAlpha"/>
                <feMorphology result="effect3_innerShadow_84_7840" in="SourceAlpha" radius="1"/>
                <feOffset/>
                <feComposite k3="1" k2="-1" operator="arithmetic" in2="hardAlpha"/>
                <feColorMatrix values="0 0 0 0 0.0392157 0 0 0 0 0.0496732 0 0 0 0 0.0705882 0 0 0 0.18 0"/>
                <feBlend result="effect3_innerShadow_84_7840" in2="effect2_innerShadow_84_7840"/>
            </filter>
            <filter color-interpolation-filters="sRGB" filterUnits="userSpaceOnUse" height="182" width="277" y="269" x="0" id="7d9702c2-6a76-4412-8675-4fe68bd04b26">
                <feFlood result="BackgroundImageFix" flood-opacity="0"/>
                <feBlend result="shape" in2="BackgroundImageFix" in="SourceGraphic"/>
                <feColorMatrix result="hardAlpha" values="0 0 0 0 0 0 0 0 0 0 0 0 0 0 0 0 0 0 127 0" in="SourceAlpha"/>
                <feOffset dy="1"/>
                <feGaussianBlur stdDeviation="1"/>
                <feComposite k3="1" k2="-1" operator="arithmetic" in2="hardAlpha"/>
                <feColorMatrix values="0 0 0 0 1 0 0 0 0 1 0 0 0 0 1 0 0 0 1 0"/>
                <feBlend result="effect1_innerShadow_84_7840" in2="shape"/>
                <feColorMatrix result="hardAlpha" values="0 0 0 0 0 0 0 0 0 0 0 0 0 0 0 0 0 0 127 0" in="SourceAlpha"/>
                <feOffset/>
                <feGaussianBlur stdDeviation="1"/>
                <feComposite k3="1" k2="-1" operator="arithmetic" in2="hardAlpha"/>
                <feColorMatrix values="0 0 0 0 0.768924 0 0 0 0 0.802984 0 0 0 0 0.858333 0 0 0 1 0"/>
                <feBlend result="effect2_innerShadow_84_7840" in2="effect1_innerShadow_84_7840"/>
                <feColorMatrix result="hardAlpha" values="0 0 0 0 0 0 0 0 0 0 0 0 0 0 0 0 0 0 127 0" in="SourceAlpha"/>
                <feOffset dy="-3"/>
                <feGaussianBlur stdDeviation="1"/>
                <feComposite k3="1" k2="-1" operator="arithmetic" in2="hardAlpha"/>
                <feColorMatrix values="0 0 0 0 0.86566 0 0 0 0 0.880943 0 0 0 0 0.891667 0 0 0 1 0"/>
                <feBlend result="effect3_innerShadow_84_7840" in2="effect2_innerShadow_84_7840"/>
            </filter>
            <filter color-interpolation-filters="sRGB" filterUnits="userSpaceOnUse" height="52" width="52" y="290" x="112.5" id="d2255091-39a2-49ea-82cd-482a6d74b6db">
                <feFlood result="BackgroundImageFix" flood-opacity="0"/>
                <feColorMatrix result="hardAlpha" values="0 0 0 0 0 0 0 0 0 0 0 0 0 0 0 0 0 0 127 0" in="SourceAlpha"/>
                <feOffset dy="1"/>
                <feGaussianBlur stdDeviation="1"/>
                <feComposite operator="out" in2="hardAlpha"/>
                <feColorMatrix values="0 0 0 0 0.0392157 0 0 0 0 0.0496732 0 0 0 0 0.0705882 0 0 0 0.05 0"/>
                <feBlend result="effect1_dropShadow_84_7840" in2="BackgroundImageFix"/>
                <feBlend result="shape" in2="effect1_dropShadow_84_7840" in="SourceGraphic"/>
                <feColorMatrix result="hardAlpha" values="0 0 0 0 0 0 0 0 0 0 0 0 0 0 0 0 0 0 127 0" in="SourceAlpha"/>
                <feOffset dy="-2"/>
                <feComposite k3="1" k2="-1" operator="arithmetic" in2="hardAlpha"/>
                <feColorMatrix values="0 0 0 0 0.0392157 0 0 0 0 0.0496732 0 0 0 0 0.0705882 0 0 0 0.05 0"/>
                <feBlend result="effect2_innerShadow_84_7840" in2="shape"/>
                <feColorMatrix result="hardAlpha" values="0 0 0 0 0 0 0 0 0 0 0 0 0 0 0 0 0 0 127 0" in="SourceAlpha"/>
                <feMorphology result="effect3_innerShadow_84_7840" in="SourceAlpha" radius="1"/>
                <feOffset/>
                <feComposite k3="1" k2="-1" operator="arithmetic" in2="hardAlpha"/>
                <feColorMatrix values="0 0 0 0 0.0392157 0 0 0 0 0.0496732 0 0 0 0 0.0705882 0 0 0 0.18 0"/>
                <feBlend result="effect3_innerShadow_84_7840" in2="effect2_innerShadow_84_7840"/>
            </filter>
            <linearGradient gradientUnits="userSpaceOnUse" y2="68" x2="138.5" y1="20" x1="138.5" id="31ae2ce5-0f62-492c-8a92-bb59bf7c9044">
                <stop stop-opacity=".12" stop-color="#ffffff"/>
                <stop stop-opacity="0" stop-color="#ffffff" offset="1"/>
            </linearGradient>
            <linearGradient gradientUnits="userSpaceOnUse" y2="68" x2="481.5" y1="20" x1="481.5" id="6bbb6c08-a8ea-48aa-8d65-67d34631c783">
                <stop stop-opacity=".12" stop-color="#ffffff"/>
                <stop stop-opacity="0" stop-color="#ffffff" offset="1"/>
            </linearGradient>
            <linearGradient gradientUnits="userSpaceOnUse" y2="339" x2="481.5" y1="291" x1="481.5" id="54263f7c-66f9-45f0-9b09-573438fa58d6">
                <stop stop-opacity=".12" stop-color="#ffffff"/>
                <stop stop-opacity="0" stop-color="#ffffff" offset="1"/>
            </linearGradient>
            <linearGradient gradientUnits="userSpaceOnUse" y2="339" x2="138.5" y1="291" x1="138.5" id="b2ea7a25-fe05-4c3f-935b-fc9d0a85647f">
                <stop stop-opacity=".12" stop-color="#ffffff"/>
                <stop stop-opacity="0" stop-color="#ffffff" offset="1"/>
            </linearGradient>
            <clipPath id="160c1029-1e0c-41b7-bd23-416a0991a8bb">
                <path fill="#ffffff" d="M150.5 32v24h-24V32z"/>
            </clipPath>
            <clipPath id="7dfb8231-15a5-471c-906c-c8bf2acb28ee">
                <path fill="#ffffff" d="M493.5 32v24h-24V32z"/>
            </clipPath>
            <clipPath id="967973bd-08c2-4bf5-b2b5-acd738e4721d">
                <path fill="#ffffff" d="M493.5 303v24h-24v-24z"/>
            </clipPath>
            <clipPath id="8a128614-d736-4121-babd-6e2fdbf0a1f8">
                <path fill="#ffffff" d="M150.5 303v24h-24v-24z"/>
            </clipPath>
        </defs>
    </g>
</svg>
