<?xml version="1.0" encoding="UTF-8"?>
<svg data-bbox="0 0 291 221" xmlns="http://www.w3.org/2000/svg" viewBox="0 0 293 221" height="221" width="293" data-type="ugc">
    <g>
        <path fill="#ffffff" d="M81 7v88a7 7 0 0 1-7 7H7a7 7 0 0 1-7-7V7a7 7 0 0 1 7-7h67a7 7 0 0 1 7 7"/>
        <path stroke-opacity=".1" stroke="#535862" d="M80.5 7v88a6.5 6.5 0 0 1-6.5 6.5H7A6.5 6.5 0 0 1 .5 95V7A6.5 6.5 0 0 1 7 .5h67A6.5 6.5 0 0 1 80.5 7z" fill="none"/>
        <path fill="#ffffff" d="M291 25v91a7 7 0 0 1-7 7h-70a7 7 0 0 1-7-7V25a7 7 0 0 1 7-7h70a7 7 0 0 1 7 7"/>
        <path stroke-opacity=".1" stroke="#535862" d="M290.5 25v91a6.5 6.5 0 0 1-6.5 6.5h-70a6.5 6.5 0 0 1-6.5-6.5V25a6.5 6.5 0 0 1 6.5-6.5h70a6.5 6.5 0 0 1 6.5 6.5z" fill="none"/>
        <path stroke-dasharray="1.78 3.56" stroke-linecap="square" stroke-width="1.337" stroke="#A1A3BC" d="M185.286 164.267h64.853" fill="none"/>
        <path stroke-dasharray="1.78 3.56" stroke-linecap="square" stroke-width="1.337" stroke="#A1A3BC" d="M250.207 160.923v-37.492" fill="none"/>
        <path stroke-dasharray="1.78 3.56" stroke-linecap="square" stroke-width="1.337" stroke="#A1A3BC" d="M44.204 102.45v42.328" fill="none"/>
        <path stroke-dasharray="1.78 3.56" stroke-linecap="square" stroke-width="1.337" stroke="#A1A3BC" d="M44.752 144.779h67.188" fill="none"/>
        <g filter="url(#fb038e08-fcac-402d-b527-ec790296a730)">
            <path fill="#0092CA" d="M11.456 11.84a4.47 4.47 0 0 1 4.471-4.47h12.444a4.47 4.47 0 0 1 4.472 4.47v12.445a4.47 4.47 0 0 1-4.472 4.471H15.927a4.47 4.47 0 0 1-4.471-4.471z"/>
            <path stroke-width=".891" stroke="url(#6ec60f5b-3845-4574-824e-c4cc0a1aff75)" d="M15.928 7.814h12.444a4.026 4.026 0 0 1 4.025 4.027v12.444a4.026 4.026 0 0 1-4.025 4.026H15.928a4.026 4.026 0 0 1-4.027-4.026V11.841a4.027 4.027 0 0 1 4.027-4.027Z" fill="none"/>
            <g clip-path="url(#37286540-ca49-4ff1-a1f0-e7ef510107c9)">
                <path stroke-linejoin="round" stroke-linecap="round" stroke-width=".934" stroke="#ffffff" d="M20.052 14.516h-.908a.91.91 0 0 0-.909.908v6.36a.91.91 0 0 0 .909.908h5.45a.91.91 0 0 0 .91-.908v-.227m-1.818-7.041h.909a.91.91 0 0 1 .786.454m-5.329 5.905h.455m0-7.268h2.725c.251 0 .454.204.454.455v.908a.454.454 0 0 1-.454.454h-2.725a.454.454 0 0 1-.455-.454v-.908c0-.251.204-.455.455-.455m5.622 4.827a.965.965 0 0 0-1.364-1.364l-1.822 1.822a.9.9 0 0 0-.23.388l-.38 1.304a.227.227 0 0 0 .282.281l1.304-.38a.9.9 0 0 0 .387-.23z" fill="none"/>
            </g>
        </g>
        <path fill="#04082B" d="M12.031 40.32v-5.833h2.187q.673 0 1.128.234.46.234.692.655.237.42.237.977 0 .561-.24.974a1.6 1.6 0 0 1-.697.635q-.462.222-1.134.222h-1.558v-.877h1.416q.393 0 .644-.108a.77.77 0 0 0 .37-.322q.122-.213.122-.524 0-.31-.122-.53a.78.78 0 0 0-.373-.336q-.25-.117-.647-.117h-.968v4.95zm3.013-2.643 1.444 2.643H15.31l-1.418-2.643zm4.032 2.729q-.659 0-1.137-.274a1.85 1.85 0 0 1-.732-.78q-.255-.507-.256-1.193 0-.675.256-1.185.26-.513.724-.798.465-.287 1.09-.287.405 0 .764.13.362.13.638.4.279.27.439.689.16.416.16.99v.317h-3.587v-.695h2.598a1.1 1.1 0 0 0-.128-.527.93.93 0 0 0-.35-.367 1 1 0 0 0-.519-.134q-.316 0-.555.154-.24.15-.373.398a1.15 1.15 0 0 0-.134.539v.606q0 .382.14.655.138.271.39.416.25.143.586.143.225 0 .407-.063a.9.9 0 0 0 .317-.19.8.8 0 0 0 .202-.311l.962.108a1.5 1.5 0 0 1-.347.666 1.7 1.7 0 0 1-.65.439 2.5 2.5 0 0 1-.905.154m2.817 1.555v-6.015h1.014v.723h.06q.08-.16.225-.339.146-.182.393-.31.248-.132.632-.131.507 0 .915.259.41.256.649.76.242.502.242 1.23 0 .722-.236 1.225a1.8 1.8 0 0 1-.644.77q-.408.264-.923.264-.375 0-.624-.125a1.3 1.3 0 0 1-.398-.302 2 2 0 0 1-.231-.339h-.043v2.33zm1.011-3.828q0 .424.12.743.123.32.35.499.23.176.559.176.34 0 .572-.182.231-.184.347-.504.12-.323.12-.732a2.1 2.1 0 0 0-.117-.723 1.1 1.1 0 0 0-.347-.496.9.9 0 0 0-.575-.18.9.9 0 0 0-.562.174q-.23.175-.35.487a2.1 2.1 0 0 0-.117.738m5.91 2.273q-.64 0-1.11-.282a1.9 1.9 0 0 1-.73-.79q-.256-.506-.256-1.184t.256-1.188a1.9 1.9 0 0 1 .73-.791q.47-.282 1.11-.282t1.11.282.727.791q.26.51.26 1.188t-.26 1.185q-.256.506-.726.789-.47.282-1.11.282m.006-.826a.9.9 0 0 0 .58-.191 1.15 1.15 0 0 0 .348-.518q.117-.325.117-.724 0-.401-.117-.726a1.15 1.15 0 0 0-.347-.521.88.88 0 0 0-.581-.194.9.9 0 0 0-.593.194q-.233.194-.35.521a2.2 2.2 0 0 0-.114.726q0 .399.114.724.117.324.35.518.236.19.593.19m2.965.74v-4.374h1v.729h.046a1.09 1.09 0 0 1 1.079-.792q.085 0 .19.009.11.005.18.02v.948a1 1 0 0 0-.208-.04 2 2 0 0 0-.27-.02q-.282 0-.507.123a.9.9 0 0 0-.479.825v2.572zm5.6-4.374v.797H34.87v-.797zm-1.894-1.048h1.03v4.106q0 .209.063.32.066.108.171.148t.234.04q.096 0 .176-.015.083-.015.126-.025l.173.806a2 2 0 0 1-.607.102 1.7 1.7 0 0 1-.697-.117 1.1 1.1 0 0 1-.493-.404q-.18-.273-.176-.684zm2.756 5.422v-4.374h1.03v4.374zm.518-4.995a.6.6 0 0 1-.421-.163.52.52 0 0 1-.177-.395q0-.234.177-.396a.6.6 0 0 1 .421-.166.6.6 0 0 1 .422.166q.176.162.176.396a.52.52 0 0 1-.176.395.6.6 0 0 1-.422.163m2.604 2.432v2.563h-1.03v-4.374h.985v.743h.05q.152-.368.482-.584.334-.216.823-.216.453 0 .79.193.338.194.523.561.188.367.185.892v2.785h-1.03v-2.626q0-.437-.228-.686-.225-.248-.624-.248-.27 0-.482.12a.83.83 0 0 0-.327.339 1.15 1.15 0 0 0-.117.538m5.759 4.295q-.555 0-.954-.151a1.7 1.7 0 0 1-.641-.399 1.4 1.4 0 0 1-.336-.555l.928-.225q.063.128.183.253.12.129.322.211.204.086.515.086.438 0 .726-.214.288-.21.288-.695v-.829h-.051a1.5 1.5 0 0 1-.234.328q-.15.168-.401.282a1.5 1.5 0 0 1-.624.114q-.504 0-.914-.237a1.7 1.7 0 0 1-.65-.712q-.24-.476-.239-1.19 0-.72.24-1.216.24-.499.651-.755.411-.26.915-.26.384 0 .632.132.25.128.399.31.147.18.225.34h.057v-.724h1.016v4.446q0 .56-.267.928a1.6 1.6 0 0 1-.732.55q-.465.182-1.054.182m.008-2.603a.96.96 0 0 0 .559-.16 1 1 0 0 0 .35-.458q.12-.3.12-.718 0-.412-.12-.723a1.03 1.03 0 0 0-.348-.482.9.9 0 0 0-.56-.173q-.345 0-.576.179-.231.18-.347.493a2 2 0 0 0-.117.706q0 .402.117.703.12.3.35.468.233.165.572.165m5.137.871v-5.833h2.187q.672 0 1.128.251.459.25.692.69.237.435.237.99 0 .562-.237.997-.236.436-.698.687-.46.247-1.136.247h-1.45v-.868h1.308q.393 0 .643-.137a.86.86 0 0 0 .37-.376 1.2 1.2 0 0 0 .123-.55q0-.31-.122-.546a.83.83 0 0 0-.373-.368q-.252-.134-.647-.134h-.968v4.95zm6.147-5.833v5.833H57.39v-5.833zm2.319 5.922q-.416 0-.75-.148-.33-.152-.523-.445-.19-.293-.191-.723 0-.37.137-.613.136-.24.373-.387.236-.145.532-.22.3-.075.618-.11.386-.04.624-.072a.9.9 0 0 0 .348-.102q.11-.07.11-.22v-.016q0-.322-.19-.499-.19-.176-.55-.176-.379 0-.6.165a.8.8 0 0 0-.297.39l-.963-.137q.115-.398.376-.666.263-.27.641-.405.38-.136.838-.136.315 0 .629.074t.572.245q.26.168.416.458.16.29.16.727v2.927h-.992v-.6h-.034a1.26 1.26 0 0 1-.689.595 1.7 1.7 0 0 1-.595.094m.268-.758q.31 0 .538-.123a.9.9 0 0 0 .35-.33.84.84 0 0 0 .125-.447v-.515a.5.5 0 0 1-.165.074 2 2 0 0 1-.256.06 8 8 0 0 1-.282.045l-.242.034a1.8 1.8 0 0 0-.413.103.7.7 0 0 0-.288.199.5.5 0 0 0-.105.325q0 .285.208.43a.9.9 0 0 0 .53.145m4.11-1.894v2.563h-1.032v-4.374h.986v.743h.051q.15-.368.481-.584.334-.216.824-.216.452 0 .788.193.34.194.524.561.189.367.186.892v2.785h-1.031v-2.626q0-.437-.228-.686-.225-.248-.624-.248-.27 0-.481.12a.83.83 0 0 0-.328.339 1.15 1.15 0 0 0-.117.538"/>
        <path fill="#ffffff" d="M14.138 57.147H63.15a2.46 2.46 0 0 1 2.46 2.46v7.199a2.46 2.46 0 0 1-2.46 2.46H14.138a2.46 2.46 0 0 1-2.46-2.46v-7.2a2.46 2.46 0 0 1 2.46-2.46"/>
        <path stroke-width=".446" stroke="#D5D7DA" d="M14.138 57.147H63.15a2.46 2.46 0 0 1 2.46 2.46v7.199a2.46 2.46 0 0 1-2.46 2.46H14.138a2.46 2.46 0 0 1-2.46-2.46v-7.2a2.46 2.46 0 0 1 2.46-2.46Z" fill="none"/>
        <path fill="#ffffff" d="M15.473 59.42h4.442c.865 0 1.566.701 1.566 1.566v4.443c0 .864-.701 1.566-1.566 1.566h-4.442a1.567 1.567 0 0 1-1.567-1.566v-4.443c0-.864.702-1.566 1.567-1.566"/>
        <path stroke-width=".446" stroke="#D5D7DA" d="M15.473 59.42h4.442c.865 0 1.566.701 1.566 1.566v4.443c0 .864-.701 1.566-1.566 1.566h-4.442a1.567 1.567 0 0 1-1.567-1.566v-4.443c0-.864.702-1.566 1.567-1.566Z" fill="none"/>
        <path fill="#414651" d="M25.241 65.707v-5.185h1.848q.606 0 1.003.22t.595.603q.197.38.197.856 0 .479-.2.86-.197.381-.597.603-.398.22-1 .22h-1.271v-.663h1.2q.383 0 .62-.132a.83.83 0 0 0 .35-.364 1.2 1.2 0 0 0 .111-.524q0-.294-.111-.522a.8.8 0 0 0-.352-.357q-.238-.129-.628-.129h-.982v4.514zm5.257-5.185v5.185h-.757v-5.185zm2.15 5.271q-.37 0-.669-.137a1.13 1.13 0 0 1-.473-.402 1.16 1.16 0 0 1-.172-.646q0-.33.126-.541a.94.94 0 0 1 .342-.337q.215-.124.481-.187a5 5 0 0 1 .542-.097l.567-.066a.8.8 0 0 0 .316-.088q.099-.06.099-.198v-.017q0-.332-.187-.514-.184-.183-.552-.183-.383 0-.603.17a.9.9 0 0 0-.301.372l-.711-.162q.126-.354.37-.572.244-.22.564-.319.319-.1.67-.101.233 0 .494.056.264.052.491.197.231.144.378.413.147.265.146.69v2.583h-.739v-.532h-.03a1.1 1.1 0 0 1-.22.289 1.2 1.2 0 0 1-.378.235 1.5 1.5 0 0 1-.551.094m.164-.608q.314.001.537-.124a.87.87 0 0 0 .342-.324.84.84 0 0 0 .119-.432v-.502a.4.4 0 0 1-.157.076 2 2 0 0 1-.261.058l-.286.044-.233.03q-.22.028-.403.094a.7.7 0 0 0-.288.19.47.47 0 0 0-.107.323q0 .282.208.426a.9.9 0 0 0 .53.142m3.52-1.787v2.309h-.757V61.82h.726v.632h.048q.135-.308.42-.496.29-.187.727-.187.398 0 .696.167.3.165.464.491.164.327.164.808v2.473h-.757v-2.382q0-.423-.22-.661-.22-.24-.605-.24a.95.95 0 0 0-.468.113.8.8 0 0 0-.322.335q-.117.217-.116.526m9.636-2.876v5.185h-.72l-2.635-3.802h-.048v3.802h-.782v-5.185h.724l2.638 3.808h.048v-3.808zm2.212 5.271q-.37 0-.669-.137a1.13 1.13 0 0 1-.473-.402 1.15 1.15 0 0 1-.172-.646q0-.33.126-.541a.94.94 0 0 1 .342-.337q.216-.124.481-.187a5 5 0 0 1 .542-.097l.567-.066a.8.8 0 0 0 .316-.088q.1-.06.1-.198v-.017q0-.332-.188-.514-.184-.183-.552-.183-.383 0-.603.17a.9.9 0 0 0-.3.372l-.712-.162q.126-.354.37-.572.244-.22.564-.319.32-.1.67-.101.233 0 .495.056.263.052.49.197.231.144.378.413.147.265.147.69v2.583h-.74v-.532h-.03a1.1 1.1 0 0 1-.22.289 1.2 1.2 0 0 1-.377.235 1.5 1.5 0 0 1-.552.094m.164-.608q.314.001.537-.124a.87.87 0 0 0 .342-.324.84.84 0 0 0 .119-.432v-.502a.4.4 0 0 1-.157.076 2 2 0 0 1-.261.058l-.286.044-.233.03q-.22.028-.403.094a.7.7 0 0 0-.288.19.47.47 0 0 0-.106.323q0 .282.207.426a.9.9 0 0 0 .53.142m2.763.522v-3.888h.726v.632h.049q.12-.321.397-.5.276-.183.66-.183.39 0 .654.182.266.183.392.501h.04q.14-.311.444-.496.304-.187.724-.187.529 0 .863.331.337.333.337 1v2.608h-.757V63.17q0-.395-.215-.572a.78.78 0 0 0-.514-.177q-.37 0-.575.228a.83.83 0 0 0-.205.58v2.478h-.754v-2.585q0-.315-.198-.509a.7.7 0 0 0-.514-.192.74.74 0 0 0-.397.114.84.84 0 0 0-.291.311.95.95 0 0 0-.11.464v2.397zm7.976.079q-.575 0-.99-.246a1.67 1.67 0 0 1-.638-.696 2.36 2.36 0 0 1-.222-1.056q0-.598.223-1.053.225-.456.627-.712.405-.255.947-.255.33 0 .638.109.308.108.555.341.244.233.387.605.142.37.142.9v.268H57.66v-.568h2.349q0-.298-.122-.529a.92.92 0 0 0-.853-.5 1 1 0 0 0-.557.156 1.05 1.05 0 0 0-.364.405 1.2 1.2 0 0 0-.127.54v.442q0 .39.137.664a1 1 0 0 0 .387.417q.249.142.58.142.215 0 .392-.06a.81.81 0 0 0 .504-.494l.717.129q-.086.316-.31.554-.218.236-.554.367-.33.13-.757.13"/>
        <path fill="#ffffff" d="M14.138 72.826H60.15a2.46 2.46 0 0 1 2.46 2.46v7.2a2.46 2.46 0 0 1-2.46 2.46H14.138a2.46 2.46 0 0 1-2.46-2.46v-7.2a2.46 2.46 0 0 1 2.46-2.46"/>
        <path stroke-width=".446" stroke="#D5D7DA" d="M14.138 72.826H60.15a2.46 2.46 0 0 1 2.46 2.46v7.2a2.46 2.46 0 0 1-2.46 2.46H14.138a2.46 2.46 0 0 1-2.46-2.46v-7.2a2.46 2.46 0 0 1 2.46-2.46Z" fill="none"/>
        <path fill="#ffffff" d="M15.473 75.098h4.442c.865 0 1.567.701 1.567 1.566v4.442c0 .865-.702 1.567-1.567 1.567h-4.442a1.567 1.567 0 0 1-1.567-1.567v-4.442c0-.865.702-1.566 1.567-1.566"/>
        <path stroke-width=".446" stroke="#D5D7DA" d="M15.473 75.098h4.442c.865 0 1.567.701 1.567 1.566v4.442c0 .865-.702 1.567-1.567 1.567h-4.442a1.567 1.567 0 0 1-1.567-1.567v-4.442c0-.865.702-1.566 1.567-1.566Z" fill="none"/>
        <path fill="#414651" d="M25.266 81.385V76.2h1.848q.605 0 1.003.22t.595.603q.197.38.197.856 0 .478-.2.86-.197.38-.597.603-.398.22-1 .22H25.84v-.663h1.2q.382 0 .62-.132a.83.83 0 0 0 .35-.364 1.2 1.2 0 0 0 .11-.525q0-.293-.11-.521a.8.8 0 0 0-.352-.357q-.239-.13-.628-.13h-.983v4.515zm5.256-5.185v5.185h-.757V76.2zm2.15 5.27q-.37 0-.668-.136a1.13 1.13 0 0 1-.473-.402 1.15 1.15 0 0 1-.173-.646q0-.33.127-.542a.93.93 0 0 1 .342-.336q.215-.125.48-.188.267-.063.543-.096l.567-.066a.8.8 0 0 0 .316-.088q.099-.06.099-.198v-.018q0-.33-.187-.514-.186-.182-.552-.182-.383 0-.603.17a.9.9 0 0 0-.301.372l-.712-.162a1.4 1.4 0 0 1 .37-.572 1.5 1.5 0 0 1 .565-.32q.319-.1.67-.1.233 0 .494.055.264.054.491.198.231.144.377.412.147.267.147.691v2.583h-.739v-.532h-.03a1.1 1.1 0 0 1-.22.289 1.2 1.2 0 0 1-.378.235 1.5 1.5 0 0 1-.552.094m.165-.607q.314 0 .537-.124a.87.87 0 0 0 .341-.324.84.84 0 0 0 .12-.433v-.501a.4.4 0 0 1-.158.076 2 2 0 0 1-.26.058l-.286.043-.233.03q-.22.029-.403.094a.7.7 0 0 0-.288.19.47.47 0 0 0-.107.324q0 .282.208.425a.9.9 0 0 0 .529.142m3.52-1.787v2.309h-.758v-3.889h.727v.633h.048q.135-.309.42-.496.29-.187.727-.187.398 0 .696.167.3.165.464.49.164.328.164.808v2.474h-.757v-2.383q0-.422-.22-.66-.22-.24-.605-.24a.95.95 0 0 0-.468.113.8.8 0 0 0-.322.334q-.117.218-.117.527m5.195-2.203V76.2h4.013v.673h-1.618v4.512h-.78v-4.512zm4.871 5.97a1.6 1.6 0 0 1-.516-.084l.182-.62q.208.055.37.048a.44.44 0 0 0 .286-.121.94.94 0 0 0 .223-.372l.093-.259-1.422-3.939h.81l.985 3.018h.04l.985-3.018h.813l-1.603 4.408a1.8 1.8 0 0 1-.283.514 1.1 1.1 0 0 1-.41.319q-.239.106-.553.106m3.56 0v-5.347h.74v.63h.063q.065-.12.19-.28.123-.16.344-.279t.582-.121q.471 0 .84.237.37.24.58.687.213.448.213 1.078t-.21 1.081a1.64 1.64 0 0 1-.578.691q-.367.24-.837.24-.355 0-.58-.118a1.1 1.1 0 0 1-.35-.279q-.126-.159-.194-.283h-.046v2.063zm.742-3.403q0 .411.119.72.119.308.344.483.225.172.552.172.339 0 .567-.18.228-.182.344-.493.12-.312.12-.701 0-.385-.117-.692a1.06 1.06 0 0 0-.345-.483.9.9 0 0 0-.57-.177.9.9 0 0 0-.556.17q-.225.168-.342.473a2 2 0 0 0-.116.709m5.334 2.023q-.574 0-.99-.245a1.67 1.67 0 0 1-.638-.697 2.36 2.36 0 0 1-.223-1.055q0-.598.223-1.053.225-.456.628-.712.405-.255.947-.255.33 0 .638.108.309.11.554.342.246.234.387.605.142.37.142.899v.268h-3.09v-.567h2.348q0-.298-.121-.529a.92.92 0 0 0-.853-.501 1 1 0 0 0-.557.157 1.05 1.05 0 0 0-.365.405 1.2 1.2 0 0 0-.126.54v.442q0 .39.136.663a1 1 0 0 0 .388.418q.247.142.58.142.215 0 .392-.06a.81.81 0 0 0 .504-.494l.716.129q-.086.315-.309.554-.22.236-.554.367-.332.13-.757.13"/>
        <g filter="url(#f4709026-65da-410d-80fe-b24317bd8487)">
            <path fill="#0092CA" d="M214.237 34.726a4.47 4.47 0 0 1 4.471-4.472h12.444a4.47 4.47 0 0 1 4.472 4.471V47.17a4.47 4.47 0 0 1-4.472 4.472h-12.444a4.47 4.47 0 0 1-4.471-4.472z"/>
            <path stroke-width=".891" stroke="url(#1ad38ac2-e5aa-4f27-bd4f-94259b972fb5)" d="M218.708 30.7h12.445a4.026 4.026 0 0 1 4.025 4.026V47.17a4.025 4.025 0 0 1-4.025 4.025h-12.445a4.026 4.026 0 0 1-4.026-4.025V34.726a4.027 4.027 0 0 1 4.026-4.027Z" fill="none"/>
            <g clip-path="url(#597f5c66-4d85-4dea-afec-f98939145391)">
                <path stroke-linejoin="round" stroke-linecap="round" stroke-width=".934" stroke="#ffffff" d="m224.268 43.053.909.908a.95.95 0 0 0 .681.283.97.97 0 0 0 .89-.595.95.95 0 0 0 0-.738 1 1 0 0 0-.209-.312m-.908-.909 1.135 1.136a.965.965 0 0 0 1.363-1.363l-1.762-1.762a1.364 1.364 0 0 0-1.926 0l-.4.4a.964.964 0 0 1-1.363-1.363l1.277-1.277a2.63 2.63 0 0 1 3.207-.395l.213.127a.9.9 0 0 0 .645.114l.791-.16m0-.453.454 4.996h-.909m-7.722-4.996-.454 4.996 2.952 2.953a.965.965 0 0 0 1.363-1.363m-3.861-6.132h3.634" fill="none"/>
            </g>
        </g>
        <path fill="#04082B" d="M214.812 63.205v-5.833h2.187q.672 0 1.128.25.46.252.692.69.237.436.237.991 0 .562-.237.997-.236.436-.698.686-.46.248-1.136.248h-1.45v-.869h1.308q.393 0 .643-.136a.87.87 0 0 0 .371-.376q.122-.24.122-.55t-.122-.547a.84.84 0 0 0-.374-.367q-.25-.135-.646-.134h-.968v4.95zm5.116 0V58.83h1v.73h.045a1.096 1.096 0 0 1 1.08-.792q.084 0 .19.008.108.005.18.02v.949a1 1 0 0 0-.208-.04 2 2 0 0 0-.271-.02q-.282 0-.507.122a.9.9 0 0 0-.35.334.94.94 0 0 0-.128.492v2.572zm4.908.086q-.641 0-1.111-.282a1.9 1.9 0 0 1-.729-.79q-.256-.506-.256-1.184t.256-1.188q.26-.51.729-.792.47-.281 1.111-.282.64 0 1.111.282.47.282.726.792.26.51.259 1.188 0 .678-.259 1.185a1.9 1.9 0 0 1-.726.789q-.47.282-1.111.282m.005-.826a.9.9 0 0 0 .582-.191q.233-.194.347-.519.117-.324.117-.723 0-.402-.117-.726a1.16 1.16 0 0 0-.347-.521.88.88 0 0 0-.582-.194.9.9 0 0 0-.592.194q-.233.193-.35.52a2.2 2.2 0 0 0-.114.727q0 .399.114.723.117.325.35.519.237.19.592.19m6.725-3.635-1.558 4.375h-1.139l-1.558-4.375h1.099l1.006 3.25h.045l1.008-3.25zm.713 4.375V58.83h1.031v4.375zm.519-4.995a.6.6 0 0 1-.422-.163.52.52 0 0 1-.177-.396q0-.233.177-.396a.6.6 0 0 1 .422-.165q.247 0 .421.165.177.163.177.396a.52.52 0 0 1-.177.396.6.6 0 0 1-.421.163m3.196 5.072q-.516 0-.923-.265a1.8 1.8 0 0 1-.644-.769q-.236-.504-.236-1.224 0-.73.239-1.23.243-.505.652-.761a1.7 1.7 0 0 1 .915-.26q.384 0 .632.131.247.13.393.31t.225.34h.043v-2.182h1.034v5.833h-1.014v-.69h-.063q-.08.16-.231.34-.15.176-.398.302a1.4 1.4 0 0 1-.624.125m.287-.846a.9.9 0 0 0 .559-.176q.23-.18.35-.499t.12-.743-.12-.738a1.06 1.06 0 0 0-.347-.487.9.9 0 0 0-.562-.174.9.9 0 0 0-.575.18q-.23.18-.347.495-.117.316-.117.724 0 .41.117.732.119.318.35.504a.9.9 0 0 0 .572.182m5.078.855q-.658 0-1.136-.274a1.84 1.84 0 0 1-.732-.78q-.257-.507-.257-1.194 0-.675.257-1.184.258-.513.723-.798.464-.288 1.091-.288.404 0 .763.131.362.129.638.4.279.27.439.688.159.416.159.992v.316h-3.586v-.695h2.598a1.1 1.1 0 0 0-.128-.527.94.94 0 0 0-.351-.367 1 1 0 0 0-.518-.134q-.316 0-.555.153-.24.151-.373.4a1.14 1.14 0 0 0-.134.537v.607q0 .382.139.655.14.271.39.416.252.142.587.142.225 0 .407-.062a.9.9 0 0 0 .317-.191.8.8 0 0 0 .202-.31l.962.108q-.09.381-.347.666a1.7 1.7 0 0 1-.649.439 2.5 2.5 0 0 1-.906.154m2.817-.086V58.83h1v.73h.046q.119-.38.41-.584.293-.208.669-.208.086 0 .191.008.108.005.179.02v.949a1 1 0 0 0-.208-.04 2 2 0 0 0-.27-.02q-.282 0-.507.122a.9.9 0 0 0-.35.334.93.93 0 0 0-.129.492v2.572zm6.638-3.218-.94.102a.8.8 0 0 0-.14-.267.7.7 0 0 0-.262-.203.95.95 0 0 0-.404-.077 1 1 0 0 0-.541.14q-.217.14-.214.362a.38.38 0 0 0 .14.31q.145.12.478.197l.746.16q.621.132.923.424.305.29.308.76a1.2 1.2 0 0 1-.242.73 1.56 1.56 0 0 1-.658.489 2.5 2.5 0 0 1-.969.177q-.803 0-1.293-.337a1.35 1.35 0 0 1-.583-.942l1.005-.097a.7.7 0 0 0 .29.447q.223.15.579.151.367 0 .589-.151.225-.15.225-.373a.39.39 0 0 0-.145-.31q-.143-.123-.444-.189l-.747-.156q-.629-.131-.931-.442a1.1 1.1 0 0 1-.299-.791 1.12 1.12 0 0 1 .219-.7q.225-.3.624-.462.401-.165.926-.166.768 0 1.21.328.445.328.55.886"/>
        <path fill="#ffffff" d="M216.919 80.031h24.012a2.46 2.46 0 0 1 2.46 2.46v7.2a2.46 2.46 0 0 1-2.46 2.46h-24.012a2.46 2.46 0 0 1-2.46-2.46v-7.2a2.46 2.46 0 0 1 2.46-2.46"/>
        <path stroke-width=".446" stroke="#D5D7DA" d="M216.919 80.031h24.012a2.46 2.46 0 0 1 2.46 2.46v7.2a2.46 2.46 0 0 1-2.46 2.46h-24.012a2.46 2.46 0 0 1-2.46-2.46v-7.2a2.46 2.46 0 0 1 2.46-2.46Z" fill="none"/>
        <path fill="#ffffff" d="M218.254 82.305h4.442c.865 0 1.566.701 1.566 1.566v4.443c0 .864-.701 1.566-1.566 1.566h-4.442a1.567 1.567 0 0 1-1.567-1.566V83.87c0-.865.702-1.566 1.567-1.566"/>
        <path stroke-width=".446" stroke="#D5D7DA" d="M218.254 82.305h4.442c.865 0 1.566.701 1.566 1.566v4.443c0 .864-.701 1.566-1.566 1.566h-4.442a1.567 1.567 0 0 1-1.567-1.566V83.87c0-.865.702-1.566 1.567-1.566Z" fill="none"/>
        <path fill="#414651" d="M232.028 83.495v5.097h-.707l-2.591-3.738h-.047v3.738h-.769v-5.097h.712l2.593 3.743h.048v-3.743zm1.122 5.097v-5.097h1.817q.594 0 .985.216.391.217.585.593.194.373.194.84 0 .47-.196.847-.195.373-.588.592-.39.217-.983.217h-1.249v-.652h1.179q.376 0 .61-.13a.8.8 0 0 0 .344-.358q.11-.226.109-.515 0-.29-.109-.513a.8.8 0 0 0-.346-.35q-.234-.128-.617-.128h-.966v4.438zm5.252-5.097v5.097h-.769v-5.097z"/>
        <path fill="#ffffff" d="M216.919 95.71h24.012a2.46 2.46 0 0 1 2.46 2.46v7.2a2.46 2.46 0 0 1-2.46 2.46h-24.012a2.46 2.46 0 0 1-2.46-2.46v-7.2a2.46 2.46 0 0 1 2.46-2.46"/>
        <path stroke-width=".446" stroke="#D5D7DA" d="M216.919 95.71h24.012a2.46 2.46 0 0 1 2.46 2.46v7.2a2.46 2.46 0 0 1-2.46 2.46h-24.012a2.46 2.46 0 0 1-2.46-2.46v-7.2a2.46 2.46 0 0 1 2.46-2.46Z" fill="none"/>
        <path fill="#ffffff" d="M218.254 97.982h4.442c.865 0 1.566.702 1.566 1.567v4.442c0 .865-.701 1.567-1.566 1.567h-4.442a1.57 1.57 0 0 1-1.567-1.567v-4.442c0-.865.702-1.567 1.567-1.567"/>
        <path stroke-width=".446" stroke="#D5D7DA" d="M218.254 97.982h4.442c.865 0 1.566.702 1.566 1.567v4.442c0 .865-.701 1.567-1.566 1.567h-4.442a1.57 1.57 0 0 1-1.567-1.567v-4.442c0-.865.702-1.567 1.567-1.567Z" fill="none"/>
        <path fill="#414651" d="M227.622 99.835v-.662h3.944v.662h-1.59v4.435h-.766v-4.435zm5.585-.662v5.097h-.769v-5.097zm5.234 0v5.097h-.707l-2.591-3.739h-.047v3.739h-.769v-5.097h.712l2.593 3.743h.047v-3.743z"/>
        <path fill="#ffffff" d="M189 118v96a7 7 0 0 1-7 7h-70a7 7 0 0 1-7-7v-96a7 7 0 0 1 7-7h70a7 7 0 0 1 7 7"/>
        <path stroke-opacity=".1" stroke="#535862" d="M188.5 118v96a6.5 6.5 0 0 1-6.5 6.5h-70a6.5 6.5 0 0 1-6.5-6.5v-96a6.5 6.5 0 0 1 6.5-6.5h70a6.5 6.5 0 0 1 6.5 6.5z" fill="none"/>
        <g filter="url(#dd271972-0fa6-44b2-9f01-257d478b590a)">
            <path fill="#0092CA" d="M111.262 119.427a4.47 4.47 0 0 1 4.472-4.472h12.444a4.47 4.47 0 0 1 4.471 4.472v12.444a4.47 4.47 0 0 1-4.471 4.471h-12.444a4.47 4.47 0 0 1-4.472-4.471z"/>
            <path stroke-width=".891" stroke="url(#c895db43-8991-4af0-9805-66f45ccbc2b7)" d="M115.734 115.4h12.444a4.027 4.027 0 0 1 4.025 4.027v12.444a4.025 4.025 0 0 1-4.025 4.025h-12.444a4.027 4.027 0 0 1-4.027-4.025v-12.444a4.027 4.027 0 0 1 4.027-4.027Z" fill="none"/>
            <g clip-path="url(#c2e9434e-0931-4907-be95-fe893599a2a7)">
                <path stroke-linejoin="round" stroke-linecap="round" stroke-width=".934" stroke="#ffffff" d="M124.139 122.366h.908a.91.91 0 0 1 .909.908v6.359a.91.91 0 0 1-.909.909h-5.451a.91.91 0 0 1-.908-.909v-6.359a.91.91 0 0 1 .908-.908h.909m.454 4.542h2.726m-1.363 1.363v-2.726m-1.363-4.088h2.726c.25 0 .454.203.454.454v.909a.454.454 0 0 1-.454.454h-2.726a.454.454 0 0 1-.454-.454v-.909c0-.251.203-.454.454-.454" fill="none"/>
            </g>
        </g>
        <path fill="#04082B" d="M115.007 143.677a.77.77 0 0 0-.336-.581q-.293-.208-.763-.208-.33 0-.567.1a.84.84 0 0 0-.362.27.66.66 0 0 0-.128.39q0 .183.083.317a.75.75 0 0 0 .231.227q.145.091.321.154t.356.106l.547.136q.331.078.635.208.308.131.55.331.245.199.387.481t.143.661q0 .512-.262.902a1.73 1.73 0 0 1-.758.607q-.492.216-1.193.217-.681 0-1.182-.211a1.77 1.77 0 0 1-.78-.615q-.28-.405-.302-.986h1.039a.9.9 0 0 0 .188.507q.166.203.43.302.268.1.598.1.345 0 .604-.103a1 1 0 0 0 .41-.29.7.7 0 0 0 .151-.439.56.56 0 0 0-.134-.376 1 1 0 0 0-.367-.251 3.6 3.6 0 0 0-.547-.182l-.664-.171q-.72-.184-1.139-.561-.416-.378-.416-1.005 0-.516.28-.903a1.85 1.85 0 0 1 .766-.601 2.7 2.7 0 0 1 1.096-.216q.621 0 1.088.216.47.214.738.595.267.379.276.872zm3.93 4.315q-.658 0-1.136-.274a1.84 1.84 0 0 1-.732-.78q-.257-.507-.257-1.193 0-.675.257-1.185.259-.513.723-.798a2.03 2.03 0 0 1 1.091-.287q.404 0 .763.131.362.128.638.398.279.272.439.69.159.415.159.991v.316h-3.586v-.695h2.598a1.1 1.1 0 0 0-.128-.527.93.93 0 0 0-.351-.367 1 1 0 0 0-.518-.134 1 1 0 0 0-.555.154q-.24.15-.373.398a1.15 1.15 0 0 0-.134.539v.606q0 .382.139.655a1 1 0 0 0 .39.416q.251.143.587.143.225 0 .407-.063a.9.9 0 0 0 .317-.191.8.8 0 0 0 .202-.31l.962.108q-.09.381-.347.666a1.7 1.7 0 0 1-.649.439 2.5 2.5 0 0 1-.906.154m2.817-.086v-4.374h1v.729h.046q.119-.379.41-.584.293-.208.669-.208a3 3 0 0 1 .37.028v.949a1 1 0 0 0-.208-.04 2 2 0 0 0-.27-.02 1.05 1.05 0 0 0-.507.122.9.9 0 0 0-.35.334.93.93 0 0 0-.129.492v2.572zm7.221-4.374-1.558 4.374h-1.139l-1.558-4.374h1.099l1.006 3.249h.045l1.008-3.249zm.713 4.374v-4.374h1.031v4.374zm.519-4.995a.6.6 0 0 1-.422-.163.52.52 0 0 1-.176-.395q0-.234.176-.396a.6.6 0 0 1 .422-.166q.247 0 .421.166.177.162.177.396a.52.52 0 0 1-.177.395.6.6 0 0 1-.421.163m3.481 5.081q-.656 0-1.125-.288a1.9 1.9 0 0 1-.721-.795 2.6 2.6 0 0 1-.25-1.173q0-.666.256-1.176.257-.513.723-.798.47-.287 1.111-.287.532 0 .943.196.412.194.658.55.244.353.279.826h-.986a.93.93 0 0 0-.284-.527q-.222-.214-.596-.214a.93.93 0 0 0-.555.171q-.24.168-.373.484a2 2 0 0 0-.131.758q0 .447.131.769.131.32.367.493.24.171.561.171a.94.94 0 0 0 .408-.086.8.8 0 0 0 .304-.253 1 1 0 0 0 .168-.402h.986q-.037.465-.274.823a1.6 1.6 0 0 1-.643.558q-.408.2-.957.2m4.657 0q-.657 0-1.136-.274a1.85 1.85 0 0 1-.732-.78q-.257-.507-.257-1.193 0-.675.257-1.185.26-.513.723-.798.464-.287 1.091-.287.405 0 .763.131.362.128.638.398.28.272.439.69.159.415.159.991v.316h-3.585v-.695h2.597a1.1 1.1 0 0 0-.128-.527.93.93 0 0 0-.35-.367 1 1 0 0 0-.519-.134 1 1 0 0 0-.555.154q-.24.15-.373.398a1.15 1.15 0 0 0-.134.539v.606q0 .382.139.655.14.271.391.416.25.143.586.143.225 0 .408-.063a.9.9 0 0 0 .316-.191.8.8 0 0 0 .202-.31l.963.108a1.5 1.5 0 0 1-.348.666 1.7 1.7 0 0 1-.649.439 2.5 2.5 0 0 1-.906.154m6.275-3.304-.94.102a.8.8 0 0 0-.139-.267.7.7 0 0 0-.262-.202.94.94 0 0 0-.405-.077 1 1 0 0 0-.541.139q-.216.14-.213.362a.38.38 0 0 0 .139.31q.145.12.479.197l.746.159q.62.135.923.425t.307.76a1.2 1.2 0 0 1-.242.729 1.56 1.56 0 0 1-.658.49 2.5 2.5 0 0 1-.968.177q-.804 0-1.293-.336a1.35 1.35 0 0 1-.584-.943l1.005-.097a.7.7 0 0 0 .291.447q.222.151.578.151.367 0 .59-.151.225-.15.225-.373a.39.39 0 0 0-.146-.31q-.142-.123-.444-.188l-.746-.157q-.63-.13-.932-.441a1.1 1.1 0 0 1-.299-.792q-.002-.404.22-.701a1.44 1.44 0 0 1 .623-.461q.402-.165.926-.165.77 0 1.21.327.445.328.55.886"/>
        <path fill="#ffffff" d="M113.945 155.936h52.011a2.46 2.46 0 0 1 2.46 2.46v7.199a2.46 2.46 0 0 1-2.46 2.46h-52.011a2.46 2.46 0 0 1-2.46-2.46v-7.199a2.46 2.46 0 0 1 2.46-2.46"/>
        <path stroke-width=".446" stroke="#D5D7DA" d="M113.945 155.936h52.011a2.46 2.46 0 0 1 2.46 2.46v7.199a2.46 2.46 0 0 1-2.46 2.46h-52.011a2.46 2.46 0 0 1-2.46-2.46v-7.199a2.46 2.46 0 0 1 2.46-2.46Z" fill="none"/>
        <path fill="#ffffff" d="M115.279 158.209h4.442c.865 0 1.567.702 1.567 1.566v4.443c0 .865-.702 1.566-1.567 1.566h-4.442a1.566 1.566 0 0 1-1.566-1.566v-4.443c0-.864.701-1.566 1.566-1.566"/>
        <path stroke-width=".446" stroke="#D5D7DA" d="M115.279 158.209h4.442c.865 0 1.567.702 1.567 1.566v4.443c0 .865-.702 1.566-1.567 1.566h-4.442a1.566 1.566 0 0 1-1.566-1.566v-4.443c0-.864.701-1.566 1.566-1.566Z" fill="none"/>
        <path fill="#414651" d="M124.725 164.496v-4.537h1.661q.483 0 .8.16.316.157.474.427.157.269.157.605 0 .284-.104.479a.9.9 0 0 1-.279.31 1.2 1.2 0 0 1-.381.168v.044q.225.012.441.147.216.133.358.378.142.246.142.599 0 .347-.164.624a1.1 1.1 0 0 1-.5.437q-.339.159-.867.159zm.684-.587h.988q.492 0 .704-.19a.61.61 0 0 0 .213-.477.75.75 0 0 0-.419-.68 1 1 0 0 0-.474-.106h-1.012zm0-1.987h.917a.9.9 0 0 0 .414-.089.7.7 0 0 0 .295-.248.65.65 0 0 0 .111-.381.63.63 0 0 0-.197-.471q-.198-.19-.605-.191h-.935zm3.407 2.574v-3.888h.757v3.888zm.383-4.488a.48.48 0 0 1-.34-.132.43.43 0 0 1-.139-.319q0-.187.139-.319a.48.48 0 0 1 .34-.134q.197 0 .336.134a.42.42 0 0 1 .142.319.42.42 0 0 1-.142.319.47.47 0 0 1-.336.132m2.15-.697v5.185h-.757v-5.185zm1.775 0v5.185h-.757v-5.185zm1.018 5.185v-3.888h.757v3.888zm.383-4.488a.48.48 0 0 1-.34-.132.43.43 0 0 1-.139-.319q0-.187.139-.319a.48.48 0 0 1 .34-.134q.197 0 .336.134a.42.42 0 0 1 .142.319.42.42 0 0 1-.142.319.47.47 0 0 1-.336.132m2.15 2.179v2.309h-.757v-3.888h.726v.632h.048q.135-.308.421-.496.288-.187.726-.187.398 0 .696.167.3.165.464.491.164.327.164.808v2.473h-.757v-2.382q0-.423-.22-.661-.22-.24-.605-.24a.94.94 0 0 0-.468.114.8.8 0 0 0-.322.334q-.116.217-.116.526m5.134 3.848q-.463 0-.798-.121a1.5 1.5 0 0 1-.541-.322 1.3 1.3 0 0 1-.314-.438l.65-.268q.07.112.182.235a1 1 0 0 0 .314.216q.2.088.514.088.43 0 .712-.21.28-.207.281-.663v-.765h-.048a1.7 1.7 0 0 1-.198.276 1.1 1.1 0 0 1-.349.263q-.223.112-.58.112-.46 0-.83-.215a1.53 1.53 0 0 1-.583-.641q-.212-.425-.212-1.045t.21-1.064q.213-.442.582-.678.37-.238.838-.238.362 0 .585.121.222.12.347.279.126.16.195.281h.055v-.63h.742v3.974q0 .502-.233.823a1.37 1.37 0 0 1-.63.476q-.394.154-.891.154m-.008-2.225a.97.97 0 0 0 .552-.152.94.94 0 0 0 .344-.44q.12-.289.119-.692 0-.391-.116-.691a1.03 1.03 0 0 0-.342-.465.9.9 0 0 0-.557-.17.9.9 0 0 0-.569.177 1.07 1.07 0 0 0-.345.476 1.9 1.9 0 0 0-.114.673q0 .383.117.671a1 1 0 0 0 .344.451.96.96 0 0 0 .567.162m9.031-2.813h-.79a1.2 1.2 0 0 0-.473-.772 1.3 1.3 0 0 0-.403-.202 1.6 1.6 0 0 0-.468-.069 1.46 1.46 0 0 0-.803.226q-.351.225-.557.66-.202.436-.202 1.064 0 .633.202 1.068.206.435.56.658t.797.223q.246 0 .466-.066.223-.068.403-.2a1.22 1.22 0 0 0 .478-.762l.79.003a2.1 2.1 0 0 1-.246.704 1.9 1.9 0 0 1-.463.551 2.1 2.1 0 0 1-.643.357 2.4 2.4 0 0 1-.79.127q-.673 0-1.2-.319a2.23 2.23 0 0 1-.83-.919q-.301-.597-.301-1.425 0-.83.303-1.426.304-.597.831-.916.526-.322 1.197-.322.413 0 .77.119.36.117.645.345.287.225.474.552.187.324.253.741m2.513 3.578q-.546 0-.954-.251a1.7 1.7 0 0 1-.633-.701 2.3 2.3 0 0 1-.225-1.053q0-.606.225-1.059t.633-.703q.408-.252.954-.251.547 0 .955.251.406.25.633.703.225.453.225 1.059 0 .602-.225 1.053-.226.45-.633.701t-.955.251m.003-.636a.9.9 0 0 0 .587-.187q.233-.187.344-.499.114-.312.114-.686a2 2 0 0 0-.114-.684 1.1 1.1 0 0 0-.344-.503.9.9 0 0 0-.587-.19.9.9 0 0 0-.593.19q-.232.19-.346.503a2 2 0 0 0-.112.684q0 .375.112.686.114.312.346.499a.92.92 0 0 0 .593.187m4.111.633a1.5 1.5 0 0 1-.841-.24 1.64 1.64 0 0 1-.577-.692q-.208-.45-.208-1.081 0-.63.21-1.078.213-.448.583-.686.369-.238.838-.238.362 0 .582.121.222.12.344.279.124.16.193.281h.045v-1.927h.757v5.185h-.739v-.605h-.063a2 2 0 0 1-.198.284 1.1 1.1 0 0 1-.349.278 1.2 1.2 0 0 1-.577.119m.167-.646a.9.9 0 0 0 .552-.172q.227-.174.344-.483.119-.31.119-.719 0-.405-.117-.709a1.03 1.03 0 0 0-.341-.473.9.9 0 0 0-.557-.17.9.9 0 0 0-.57.177 1.07 1.07 0 0 0-.344.484 2 2 0 0 0-.114.691q0 .39.116.701.117.312.345.494a.9.9 0 0 0 .567.179m4.515.649q-.575 0-.989-.246a1.65 1.65 0 0 1-.638-.696 2.35 2.35 0 0 1-.223-1.056q0-.597.223-1.053.225-.456.627-.711.405-.256.947-.256.33 0 .638.109a1.53 1.53 0 0 1 .942.947q.142.37.142.898v.269h-3.091v-.567h2.349q0-.3-.121-.53a.93.93 0 0 0-.342-.367.96.96 0 0 0-.512-.134 1 1 0 0 0-.557.157 1.05 1.05 0 0 0-.364.405 1.16 1.16 0 0 0-.127.539v.443q0 .39.137.664a1 1 0 0 0 .387.417q.249.142.58.142.215 0 .392-.06a.81.81 0 0 0 .504-.494l.717.129a1.3 1.3 0 0 1-.309.554q-.22.236-.555.367-.331.13-.757.13"/>
        <path fill="#ffffff" d="M113.945 170.836h61.011a2.46 2.46 0 0 1 2.46 2.46v7.199a2.46 2.46 0 0 1-2.46 2.46h-61.011a2.46 2.46 0 0 1-2.46-2.46v-7.199a2.46 2.46 0 0 1 2.46-2.46"/>
        <path stroke-width=".446" stroke="#D5D7DA" d="M113.945 170.836h61.011a2.46 2.46 0 0 1 2.46 2.46v7.199a2.46 2.46 0 0 1-2.46 2.46h-61.011a2.46 2.46 0 0 1-2.46-2.46v-7.199a2.46 2.46 0 0 1 2.46-2.46Z" fill="none"/>
        <path fill="#ffffff" d="M115.279 173.109h4.442c.865 0 1.567.702 1.567 1.567v4.442c0 .865-.702 1.567-1.567 1.567h-4.442a1.567 1.567 0 0 1-1.566-1.567v-4.442c0-.865.701-1.567 1.566-1.567"/>
        <path stroke-width=".446" stroke="#D5D7DA" d="M115.279 173.109h4.442c.865 0 1.567.702 1.567 1.567v4.442c0 .865-.702 1.567-1.567 1.567h-4.442a1.567 1.567 0 0 1-1.566-1.567v-4.442c0-.865.701-1.567 1.566-1.567Z" fill="none"/>
        <path fill="#414651" d="M127.162 176.052a.65.65 0 0 0-.293-.488 1.13 1.13 0 0 0-.646-.175q-.279 0-.483.089a.74.74 0 0 0-.317.239.56.56 0 0 0-.111.343q0 .162.076.28a.7.7 0 0 0 .201.197q.126.077.27.13.145.05.277.085l.443.115q.217.052.446.144.228.09.423.239t.314.368q.122.219.122.525 0 .386-.199.684-.198.3-.574.472-.375.173-.906.173-.51 0-.882-.162a1.36 1.36 0 0 1-.582-.458 1.33 1.33 0 0 1-.233-.709h.687q.02.245.159.41a.9.9 0 0 0 .361.241q.222.078.486.077.29 0 .516-.09a.86.86 0 0 0 .358-.257.6.6 0 0 0 .131-.388.48.48 0 0 0-.115-.33.84.84 0 0 0-.308-.213 3 3 0 0 0-.436-.148l-.536-.146q-.546-.149-.864-.437t-.317-.762q0-.391.213-.684.212-.292.576-.454.363-.165.819-.164.46 0 .813.162.354.161.558.445.204.28.213.647zm3.226 3.423q-.575 0-.99-.246a1.66 1.66 0 0 1-.637-.696 2.35 2.35 0 0 1-.223-1.055q0-.598.223-1.054a1.73 1.73 0 0 1 .627-.711q.405-.255.947-.256.33 0 .638.109.309.11.555.342.244.233.387.605.141.37.142.899v.268h-3.091v-.567h2.349q0-.299-.122-.529a.92.92 0 0 0-.853-.501 1 1 0 0 0-.557.157 1.05 1.05 0 0 0-.364.405 1.16 1.16 0 0 0-.127.539v.443q0 .39.137.663a1 1 0 0 0 .387.418q.249.141.58.142.215 0 .392-.061a.8.8 0 0 0 .504-.494l.717.129a1.3 1.3 0 0 1-.309.555 1.5 1.5 0 0 1-.555.367 2.1 2.1 0 0 1-.757.129m2.509-.079v-3.888h.731v.618h.041a.94.94 0 0 1 .374-.494 1.07 1.07 0 0 1 .613-.182 3 3 0 0 1 .322.017v.724a2 2 0 0 0-.162-.027 1.5 1.5 0 0 0-.233-.018 1 1 0 0 0-.479.114.85.85 0 0 0-.45.762v2.374zm6.181-3.888-1.411 3.888h-.81l-1.412-3.888h.812l.985 2.992h.041l.982-2.992zm.711 3.888v-3.888h.757v3.888zm.382-4.488a.48.48 0 0 1-.339-.132.43.43 0 0 1-.139-.319q0-.187.139-.319a.48.48 0 0 1 .339-.134.47.47 0 0 1 .337.134.426.426 0 0 1 0 .638.47.47 0 0 1-.337.132m3.031 4.567q-.564 0-.972-.256a1.7 1.7 0 0 1-.623-.711 2.4 2.4 0 0 1-.217-1.038q0-.593.222-1.046.223-.455.628-.711t.955-.256q.442 0 .789.165.347.162.56.456.215.293.256.686h-.737a.88.88 0 0 0-.279-.471q-.214-.198-.577-.198a.94.94 0 0 0-.554.167q-.236.165-.367.471a1.8 1.8 0 0 0-.132.719q0 .425.129.734.13.31.365.479a.94.94 0 0 0 .559.169.9.9 0 0 0 .39-.078.8.8 0 0 0 .296-.23q.122-.15.17-.36h.737a1.43 1.43 0 0 1-.246.674 1.4 1.4 0 0 1-.549.465 1.8 1.8 0 0 1-.803.17m4.083 0q-.575 0-.99-.246a1.66 1.66 0 0 1-.638-.696 2.36 2.36 0 0 1-.223-1.055q0-.598.223-1.054.226-.455.628-.711.405-.255.947-.256.329 0 .638.109.31.11.554.342.246.233.388.605.141.37.141.899v.268h-3.091v-.567h2.35q0-.299-.122-.529a.9.9 0 0 0-.342-.367.95.95 0 0 0-.511-.134 1 1 0 0 0-.557.157 1.05 1.05 0 0 0-.365.405 1.2 1.2 0 0 0-.126.539v.443q0 .39.137.663a1 1 0 0 0 .387.418q.248.141.58.142.215 0 .392-.061a.82.82 0 0 0 .504-.494l.716.129q-.085.317-.309.555a1.5 1.5 0 0 1-.554.367 2.1 2.1 0 0 1-.757.129m8.762-3.577h-.79a1.2 1.2 0 0 0-.473-.772 1.3 1.3 0 0 0-.403-.203 1.6 1.6 0 0 0-.468-.068q-.448 0-.803.225-.351.226-.557.661-.202.436-.202 1.063 0 .633.202 1.068.206.436.56.659.354.222.797.222.246 0 .466-.065.223-.07.403-.2a1.22 1.22 0 0 0 .478-.762l.79.002q-.063.383-.246.704a1.9 1.9 0 0 1-.463.552 2.1 2.1 0 0 1-.643.357 2.4 2.4 0 0 1-.79.126q-.674 0-1.2-.319a2.2 2.2 0 0 1-.83-.919q-.301-.597-.301-1.425 0-.83.303-1.425a2.2 2.2 0 0 1 .831-.917q.527-.321 1.197-.321.413 0 .77.119.36.116.645.344.286.225.474.552.187.324.253.742m2.513 3.577q-.546 0-.954-.251a1.7 1.7 0 0 1-.633-.701q-.225-.45-.225-1.053 0-.605.225-1.058t.633-.704q.408-.25.954-.251.547 0 .955.251.406.25.633.704.225.453.225 1.058 0 .603-.225 1.053-.227.45-.633.701-.408.25-.955.251m.003-.635a.9.9 0 0 0 .587-.188q.233-.187.344-.499.114-.31.114-.686a2 2 0 0 0-.114-.683 1.1 1.1 0 0 0-.344-.504.9.9 0 0 0-.587-.19.9.9 0 0 0-.593.19 1.13 1.13 0 0 0-.346.504 2 2 0 0 0-.112.683q0 .375.112.686.113.312.346.499a.92.92 0 0 0 .593.188m4.11.632q-.47 0-.84-.24a1.63 1.63 0 0 1-.577-.691q-.208-.451-.208-1.081t.21-1.079a1.6 1.6 0 0 1 .583-.686q.369-.238.838-.238.362 0 .582.122.222.119.344.278.124.16.193.281h.045v-1.926h.757v5.184h-.739v-.605h-.063a2 2 0 0 1-.198.284 1.1 1.1 0 0 1-.349.278q-.223.12-.578.119m.168-.645a.9.9 0 0 0 .551-.172q.228-.175.345-.484.119-.308.119-.719 0-.405-.117-.709a1.04 1.04 0 0 0-.341-.473.9.9 0 0 0-.557-.17.9.9 0 0 0-.57.178 1.1 1.1 0 0 0-.344.483 2 2 0 0 0-.114.691q0 .39.116.701.117.312.344.494.23.18.568.18m4.515.648q-.575 0-.99-.246a1.66 1.66 0 0 1-.637-.696 2.35 2.35 0 0 1-.223-1.055q0-.598.223-1.054a1.73 1.73 0 0 1 .627-.711q.405-.255.947-.256.33 0 .638.109.309.11.555.342.245.233.387.605.142.37.142.899v.268h-3.091v-.567h2.349q0-.299-.122-.529a.92.92 0 0 0-.853-.501 1 1 0 0 0-.557.157 1.05 1.05 0 0 0-.364.405 1.16 1.16 0 0 0-.127.539v.443q0 .39.137.663a1 1 0 0 0 .387.418q.249.141.58.142.215 0 .392-.061a.8.8 0 0 0 .504-.494l.717.129a1.3 1.3 0 0 1-.309.555 1.5 1.5 0 0 1-.555.367 2.1 2.1 0 0 1-.757.129m5.422-3.018-.686.122a.8.8 0 0 0-.136-.251.7.7 0 0 0-.248-.195.9.9 0 0 0-.393-.076.94.94 0 0 0-.537.145q-.215.14-.215.367 0 .195.145.314.144.119.465.195l.618.141q.537.124.8.383a.9.9 0 0 1 .263.67q0 .35-.202.623-.2.272-.56.426a2.1 2.1 0 0 1-.827.154q-.654 0-1.066-.279a1.18 1.18 0 0 1-.507-.797l.732-.111q.069.285.281.433.213.144.554.144.373 0 .595-.155.223-.157.223-.382a.4.4 0 0 0-.137-.306q-.134-.124-.412-.188l-.658-.144q-.545-.124-.805-.395a.95.95 0 0 1-.259-.686q0-.344.193-.602a1.25 1.25 0 0 1 .531-.403q.34-.147.778-.147.63 0 .992.274.362.27.478.726"/>
        <path fill="#ffffff" d="M113.945 185.736h68.011a2.46 2.46 0 0 1 2.46 2.46v7.2a2.46 2.46 0 0 1-2.46 2.459h-68.011a2.46 2.46 0 0 1-2.46-2.459v-7.2a2.46 2.46 0 0 1 2.46-2.46"/>
        <path stroke-width=".446" stroke="#D5D7DA" d="M113.945 185.736h68.011a2.46 2.46 0 0 1 2.46 2.46v7.2a2.46 2.46 0 0 1-2.46 2.459h-68.011a2.46 2.46 0 0 1-2.46-2.459v-7.2a2.46 2.46 0 0 1 2.46-2.46Z" fill="none"/>
        <path fill="#ffffff" d="M115.279 188.01h4.442c.865 0 1.567.701 1.567 1.566v4.443c0 .864-.702 1.566-1.567 1.566h-4.442a1.566 1.566 0 0 1-1.566-1.566v-4.443c0-.865.701-1.566 1.566-1.566"/>
        <path stroke-width=".446" stroke="#D5D7DA" d="M115.279 188.01h4.442c.865 0 1.567.701 1.567 1.566v4.443c0 .864-.702 1.566-1.567 1.566h-4.442a1.566 1.566 0 0 1-1.566-1.566v-4.443c0-.865.701-1.566 1.566-1.566Z" fill="none"/>
        <path fill="#414651" d="M128.348 189.76v4.537h-.629l-2.306-3.327h-.042v3.327h-.684v-4.537h.633l2.308 3.332h.042v-3.332zm2.685 4.615q-.575 0-.99-.245a1.67 1.67 0 0 1-.638-.696 2.4 2.4 0 0 1-.223-1.056q0-.597.223-1.053.226-.456.628-.712.405-.255.947-.255.329 0 .638.109a1.53 1.53 0 0 1 .942.946q.141.37.141.899v.268h-3.091v-.567h2.35q0-.298-.122-.529a.92.92 0 0 0-.853-.501 1 1 0 0 0-.557.157 1.06 1.06 0 0 0-.365.405 1.2 1.2 0 0 0-.126.539v.443q0 .39.137.664a1 1 0 0 0 .387.417q.248.142.58.142.215 0 .392-.061a.83.83 0 0 0 .504-.493l.716.129q-.085.317-.309.554a1.5 1.5 0 0 1-.554.367 2.1 2.1 0 0 1-.757.129m4.139 1.461q-.463 0-.798-.121a1.6 1.6 0 0 1-.542-.322 1.3 1.3 0 0 1-.313-.438l.65-.268q.069.11.182.235a1 1 0 0 0 .314.215q.2.089.514.089.43 0 .712-.21.28-.208.281-.663v-.765h-.048a1.7 1.7 0 0 1-.198.276 1.1 1.1 0 0 1-.349.263q-.223.112-.58.112-.46 0-.83-.216a1.53 1.53 0 0 1-.583-.64q-.212-.425-.212-1.046 0-.62.21-1.063.213-.442.582-.678.37-.238.838-.238.362 0 .585.121.222.12.347.279.126.16.195.281h.055v-.631h.742v3.975q0 .5-.233.823a1.37 1.37 0 0 1-.63.476 2.4 2.4 0 0 1-.891.154m-.008-2.225a.97.97 0 0 0 .552-.152.94.94 0 0 0 .344-.441q.12-.288.119-.691a1.9 1.9 0 0 0-.116-.691 1.04 1.04 0 0 0-.342-.466.9.9 0 0 0-.557-.169.9.9 0 0 0-.57.177 1.1 1.1 0 0 0-.344.476 1.9 1.9 0 0 0-.114.673q0 .383.117.671a1 1 0 0 0 .344.451.96.96 0 0 0 .567.162m4.415.764q-.546 0-.954-.25a1.7 1.7 0 0 1-.633-.702q-.225-.45-.225-1.053 0-.605.225-1.058t.633-.704q.408-.25.954-.25.547 0 .955.25.406.25.633.704.225.453.225 1.058 0 .603-.225 1.053a1.7 1.7 0 0 1-.633.702q-.408.25-.955.25m.003-.635a.9.9 0 0 0 .587-.187q.233-.188.344-.499.114-.311.114-.686a2 2 0 0 0-.114-.684 1.1 1.1 0 0 0-.344-.504.9.9 0 0 0-.587-.189.92.92 0 0 0-.593.189 1.13 1.13 0 0 0-.346.504 2 2 0 0 0-.112.684q0 .375.112.686.113.311.346.499a.93.93 0 0 0 .593.187m4.47-3.332v.608h-2.124v-.608zm-1.554-.931h.756v3.678q0 .22.066.332a.35.35 0 0 0 .17.149.84.84 0 0 0 .39.025l.106-.02.137.625a1.5 1.5 0 0 1-.491.082 1.3 1.3 0 0 1-.557-.107.96.96 0 0 1-.418-.344 1 1 0 0 1-.159-.585zm2.391 4.82v-3.889h.757v3.889zm.383-4.489a.5.5 0 0 1-.34-.131.43.43 0 0 1-.139-.319.42.42 0 0 1 .139-.319.48.48 0 0 1 .34-.134q.196 0 .336.134a.42.42 0 0 1 .142.319.42.42 0 0 1-.142.319.48.48 0 0 1-.336.131m2.524 4.575a1.6 1.6 0 0 1-.668-.137 1.14 1.14 0 0 1-.474-.402 1.16 1.16 0 0 1-.172-.646q0-.329.127-.542a.9.9 0 0 1 .342-.336q.214-.124.481-.188.265-.063.541-.096l.568-.066a.8.8 0 0 0 .316-.088q.099-.061.099-.198v-.017q0-.333-.188-.514-.184-.183-.552-.183-.381 0-.602.17a.9.9 0 0 0-.301.372l-.712-.162q.127-.354.37-.572.246-.22.564-.319.32-.101.671-.101.234 0 .494.055.263.054.491.198.23.144.377.412.147.266.147.692v2.582h-.739v-.532h-.03a1.1 1.1 0 0 1-.221.289 1.2 1.2 0 0 1-.377.235 1.5 1.5 0 0 1-.552.094m.165-.608q.314 0 .536-.124a.85.85 0 0 0 .461-.757v-.501a.4.4 0 0 1-.157.076 3 3 0 0 1-.26.058l-.287.043-.232.031a2 2 0 0 0-.403.093.7.7 0 0 0-.289.19.48.48 0 0 0-.106.324q0 .281.208.426a.9.9 0 0 0 .529.141m4.578-3.367v.608h-2.124v-.608zm-1.555-.931h.757v3.678q0 .22.066.332.066.108.17.149a.8.8 0 0 0 .389.025l.107-.02.136.625a1.5 1.5 0 0 1-.491.082 1.35 1.35 0 0 1-.557-.107.95.95 0 0 1-.417-.344 1 1 0 0 1-.16-.585zm4.026 4.898q-.575 0-.99-.245a1.67 1.67 0 0 1-.638-.696 2.4 2.4 0 0 1-.223-1.056q0-.597.223-1.053.226-.456.628-.712.405-.255.947-.255.329 0 .638.109a1.53 1.53 0 0 1 .942.946q.141.37.141.899v.268h-3.091v-.567h2.35q0-.298-.122-.529a.92.92 0 0 0-.853-.501 1 1 0 0 0-.557.157 1.06 1.06 0 0 0-.365.405 1.2 1.2 0 0 0-.126.539v.443q0 .39.137.664a1 1 0 0 0 .387.417q.248.142.58.142.215 0 .392-.061a.83.83 0 0 0 .504-.493l.716.129q-.085.317-.309.554a1.5 1.5 0 0 1-.554.367 2.1 2.1 0 0 1-.757.129m3.964-.002q-.47 0-.841-.241a1.64 1.64 0 0 1-.577-.691q-.207-.45-.207-1.081 0-.63.21-1.078.213-.449.582-.686.37-.238.838-.238.362 0 .582.121.223.12.345.279.123.16.192.281h.046v-1.927h.757v5.185h-.74v-.605h-.063a2 2 0 0 1-.197.283 1.1 1.1 0 0 1-.35.279 1.2 1.2 0 0 1-.577.119m.167-.646a.88.88 0 0 0 .552-.172 1.06 1.06 0 0 0 .344-.483q.12-.31.119-.719 0-.406-.116-.709a1.05 1.05 0 0 0-.342-.474.9.9 0 0 0-.557-.169.9.9 0 0 0-.57.177 1.1 1.1 0 0 0-.344.483 2 2 0 0 0-.114.692q0 .39.117.701.116.31.344.494a.9.9 0 0 0 .567.179m4.532-3.941v-.674h4.012v.674h-1.617v4.511h-.78v-4.511zm4.871 5.969a1.6 1.6 0 0 1-.516-.083l.182-.621q.208.055.37.048a.44.44 0 0 0 .286-.121.94.94 0 0 0 .222-.372l.094-.258-1.423-3.94h.81l.985 3.018h.041l.985-3.018h.812l-1.602 4.408a1.8 1.8 0 0 1-.284.514 1.1 1.1 0 0 1-.41.319 1.3 1.3 0 0 1-.552.106m3.56 0v-5.347h.739v.631h.063a2 2 0 0 1 .19-.281q.124-.16.344-.279.22-.121.583-.121.47 0 .84.238.37.237.58.686.213.447.212 1.078 0 .63-.21 1.081-.21.448-.577.691a1.5 1.5 0 0 1-.838.241q-.354 0-.58-.119a1.1 1.1 0 0 1-.349-.279 2 2 0 0 1-.195-.283h-.045v2.063zm.741-3.402q0 .41.119.719.12.308.345.483a.88.88 0 0 0 .552.172q.339 0 .567-.179.227-.183.344-.494a2 2 0 0 0 .119-.701q0-.385-.117-.692a1.05 1.05 0 0 0-.344-.483.9.9 0 0 0-.569-.177.9.9 0 0 0-.557.169 1.03 1.03 0 0 0-.342.474 2 2 0 0 0-.117.709m5.334 2.022q-.575 0-.989-.245a1.67 1.67 0 0 1-.638-.696 2.35 2.35 0 0 1-.223-1.056q0-.597.223-1.053.225-.456.627-.712.406-.255.947-.255.33 0 .638.109.309.108.555.341.245.234.387.605.142.37.142.899v.268h-3.091v-.567h2.349q0-.298-.121-.529a.92.92 0 0 0-.854-.501 1 1 0 0 0-.557.157 1.05 1.05 0 0 0-.364.405 1.16 1.16 0 0 0-.127.539v.443q0 .39.137.664a1 1 0 0 0 .387.417q.249.142.58.142.216 0 .392-.061a.81.81 0 0 0 .504-.493l.717.129a1.3 1.3 0 0 1-.309.554 1.5 1.5 0 0 1-.555.367 2.1 2.1 0 0 1-.757.129"/>
        <path fill="#ffffff" d="M113.945 200.637h67.011a2.46 2.46 0 0 1 2.46 2.46v7.199a2.46 2.46 0 0 1-2.46 2.46h-67.011a2.46 2.46 0 0 1-2.46-2.46v-7.199a2.46 2.46 0 0 1 2.46-2.46"/>
        <path stroke-width=".446" stroke="#D5D7DA" d="M113.945 200.637h67.011a2.46 2.46 0 0 1 2.46 2.46v7.199a2.46 2.46 0 0 1-2.46 2.46h-67.011a2.46 2.46 0 0 1-2.46-2.46v-7.199a2.46 2.46 0 0 1 2.46-2.46Z" fill="none"/>
        <path fill="#ffffff" d="M115.279 202.91h4.442c.865 0 1.567.702 1.567 1.567v4.442c0 .865-.702 1.566-1.567 1.566h-4.442a1.566 1.566 0 0 1-1.566-1.566v-4.442c0-.865.701-1.567 1.566-1.567"/>
        <path stroke-width=".446" stroke="#D5D7DA" d="M115.279 202.91h4.442c.865 0 1.567.702 1.567 1.567v4.442c0 .865-.702 1.566-1.567 1.566h-4.442a1.566 1.566 0 0 1-1.566-1.566v-4.442c0-.865.701-1.567 1.566-1.567Z" fill="none"/>
        <path fill="#414651" d="M129.183 204.1v5.097h-.707l-2.59-3.738h-.048v3.738h-.769V204.1h.712l2.593 3.743h.048V204.1zm2.71 5.174q-.565 0-.973-.241a1.64 1.64 0 0 1-.628-.684 2.3 2.3 0 0 1-.219-1.038q0-.588.219-1.036a1.7 1.7 0 0 1 .618-.699q.397-.25.93-.251.324 0 .628.107.303.106.545.336.242.228.38.595.14.363.14.883v.264h-3.039v-.558h2.31q0-.293-.12-.52a.9.9 0 0 0-.839-.492.97.97 0 0 0-.547.154 1.03 1.03 0 0 0-.358.398 1.15 1.15 0 0 0-.125.53v.436q0 .382.134.652a1 1 0 0 0 .381.41q.245.14.57.14.212 0 .386-.06a.8.8 0 0 0 .495-.485l.705.127a1.3 1.3 0 0 1-.304.545 1.5 1.5 0 0 1-.545.36 2 2 0 0 1-.744.127m4.068 1.436q-.455 0-.784-.119a1.5 1.5 0 0 1-.532-.316 1.3 1.3 0 0 1-.309-.431l.64-.263q.066.11.179.231a.9.9 0 0 0 .308.212q.198.087.506.087.423 0 .699-.207.276-.204.276-.652v-.752h-.047q-.068.123-.194.272a1.1 1.1 0 0 1-.344.259q-.219.11-.57.109-.453 0-.816-.212a1.5 1.5 0 0 1-.572-.629q-.21-.419-.209-1.028 0-.61.206-1.045.21-.436.573-.667.363-.234.823-.234.357 0 .575.119.22.117.341.274.124.157.192.276h.055v-.619h.729v3.907q0 .492-.229.809-.229.315-.62.468a2.4 2.4 0 0 1-.876.151m-.007-2.187q.321 0 .542-.15a.93.93 0 0 0 .339-.433q.117-.283.117-.679 0-.386-.115-.679a1 1 0 0 0-.336-.458.9.9 0 0 0-.547-.167.9.9 0 0 0-.56.174q-.224.172-.339.468a1.9 1.9 0 0 0-.112.662q0 .376.115.66a1 1 0 0 0 .338.443.95.95 0 0 0 .558.159m4.34.751q-.537 0-.938-.246a1.66 1.66 0 0 1-.622-.689 2.3 2.3 0 0 1-.222-1.036q0-.594.222-1.04.221-.446.622-.692.4-.246.938-.246t.938.246.623.692q.22.446.221 1.04a2.3 2.3 0 0 1-.221 1.036 1.67 1.67 0 0 1-.623.689q-.4.246-.938.246m.003-.624a.9.9 0 0 0 .577-.184 1.1 1.1 0 0 0 .338-.491q.112-.306.112-.674 0-.366-.112-.672a1.1 1.1 0 0 0-.338-.495.88.88 0 0 0-.577-.187.9.9 0 0 0-.583.187 1.1 1.1 0 0 0-.341.495 2 2 0 0 0-.109.672q0 .368.109.674.113.306.341.491a.9.9 0 0 0 .583.184m4.394-3.275v.597h-2.088v-.597zm-1.528-.916h.744v3.616q0 .216.065.326.065.107.167.147a.7.7 0 0 0 .226.037q.09 0 .157-.012l.104-.02.135.614a1.5 1.5 0 0 1-.483.08 1.3 1.3 0 0 1-.548-.104.94.94 0 0 1-.41-.339 1 1 0 0 1-.157-.575zm2.351 4.738v-3.822h.744v3.822zm.376-4.412a.47.47 0 0 1-.333-.13.42.42 0 0 1-.137-.313q0-.185.137-.314a.47.47 0 0 1 .333-.132.46.46 0 0 1 .331.132.41.41 0 0 1 .139.314.42.42 0 0 1-.139.313.46.46 0 0 1-.331.13m2.482 4.497q-.363 0-.657-.135a1.1 1.1 0 0 1-.466-.395 1.14 1.14 0 0 1-.169-.635q0-.324.125-.532a.9.9 0 0 1 .336-.331 1.7 1.7 0 0 1 .473-.185q.26-.062.532-.094l.558-.065a.8.8 0 0 0 .311-.087q.096-.06.097-.194v-.018q0-.325-.184-.505-.182-.179-.543-.179-.376 0-.592.167a.9.9 0 0 0-.296.366l-.7-.16q.124-.348.364-.562.242-.216.555-.314a2.17 2.17 0 0 1 1.144-.044q.26.051.483.194.227.141.371.405.144.262.144.68v2.538h-.726v-.522h-.03q-.072.144-.217.283-.144.14-.371.232a1.4 1.4 0 0 1-.542.092m.162-.597q.308 0 .527-.122a.86.86 0 0 0 .336-.319.83.83 0 0 0 .117-.425v-.493a.4.4 0 0 1-.154.074q-.112.033-.256.058a22 22 0 0 1-.511.072 2 2 0 0 0-.395.092.7.7 0 0 0-.284.187.46.46 0 0 0-.105.318q0 .276.205.418.204.14.52.14m4.5-3.31v.597h-2.088v-.597zm-1.528-.916h.744v3.616q0 .216.065.326a.34.34 0 0 0 .166.147q.105.037.227.037.09 0 .157-.012l.104-.02.135.614a1.5 1.5 0 0 1-.483.08 1.3 1.3 0 0 1-.548-.104.94.94 0 0 1-.41-.339 1 1 0 0 1-.157-.575zm3.958 4.815q-.565 0-.974-.241a1.65 1.65 0 0 1-.627-.684 2.3 2.3 0 0 1-.219-1.038q0-.588.219-1.036a1.7 1.7 0 0 1 .618-.699q.397-.25.93-.251.324 0 .627.107.305.106.545.336.242.228.381.595.14.363.14.883v.264h-3.039v-.558h2.309q0-.293-.119-.52a.9.9 0 0 0-.336-.361.94.94 0 0 0-.503-.131.97.97 0 0 0-.547.154 1.03 1.03 0 0 0-.359.398 1.15 1.15 0 0 0-.124.53v.436q0 .382.134.652a1 1 0 0 0 .381.41q.245.14.57.14.212 0 .386-.06a.8.8 0 0 0 .495-.485l.704.127a1.3 1.3 0 0 1-.303.545 1.5 1.5 0 0 1-.545.36 2 2 0 0 1-.744.127m3.896-.002q-.463 0-.826-.237a1.6 1.6 0 0 1-.567-.679q-.204-.442-.204-1.063 0-.62.206-1.06.209-.44.573-.674.363-.234.823-.234.356 0 .573.119.22.117.338.274.122.157.189.276h.045V204.1h.744v5.097h-.726v-.595h-.063a2 2 0 0 1-.194.279 1.1 1.1 0 0 1-.343.274q-.219.117-.568.117m.165-.635a.87.87 0 0 0 .542-.169q.224-.172.339-.475.117-.304.117-.707 0-.399-.115-.697a1 1 0 0 0-.336-.465.9.9 0 0 0-.547-.167.9.9 0 0 0-.56.174 1.06 1.06 0 0 0-.339.475 1.9 1.9 0 0 0-.112.68q0 .383.115.689.114.306.338.486a.9.9 0 0 0 .558.176m4.706.56V204.1h1.817q.591 0 .983.204.393.204.587.565.194.359.194.829 0 .468-.197.824a1.32 1.32 0 0 1-.587.55q-.39.196-.983.196h-1.376v-.662h1.306q.374 0 .608-.107a.7.7 0 0 0 .346-.311q.11-.204.109-.49 0-.288-.112-.5a.72.72 0 0 0-.346-.324q-.234-.114-.615-.114H165v4.437zm2.516-2.299 1.259 2.299h-.876l-1.234-2.299zm3.054 2.384a1.55 1.55 0 0 1-.657-.135 1.1 1.1 0 0 1-.466-.395 1.14 1.14 0 0 1-.169-.635q0-.324.124-.532a.9.9 0 0 1 .336-.331q.212-.123.473-.185t.533-.094l.557-.065a.8.8 0 0 0 .311-.087q.097-.06.097-.194v-.018q0-.325-.184-.505-.182-.179-.542-.179-.376 0-.593.167a.9.9 0 0 0-.296.366l-.699-.16a1.35 1.35 0 0 1 .363-.562q.242-.216.555-.314a2.2 2.2 0 0 1 1.145-.044q.26.051.483.194.226.141.371.405.144.262.144.68v2.538h-.727v-.522h-.03q-.072.144-.216.283-.144.14-.371.232a1.5 1.5 0 0 1-.542.092m.161-.597q.309 0 .528-.122a.86.86 0 0 0 .336-.319.83.83 0 0 0 .117-.425v-.493a.4.4 0 0 1-.154.074 2 2 0 0 1-.257.058l-.281.042-.229.03a2 2 0 0 0-.396.092.7.7 0 0 0-.283.187.46.46 0 0 0-.105.318q0 .276.204.418.204.14.52.14m4.501-3.31v.597h-2.088v-.597zm-1.529-.916h.745v3.616q0 .216.064.326.065.107.167.147.105.037.227.037a1 1 0 0 0 .156-.012l.105-.02.134.614a1.5 1.5 0 0 1-.483.08 1.3 1.3 0 0 1-.547-.104.94.94 0 0 1-.411-.339 1 1 0 0 1-.157-.575zm3.958 4.815q-.565 0-.973-.241a1.65 1.65 0 0 1-.627-.684 2.3 2.3 0 0 1-.219-1.038q0-.588.219-1.036.221-.447.617-.699.399-.25.931-.251.324 0 .627.107a1.5 1.5 0 0 1 .926.931q.14.363.139.883v.264h-3.038v-.558h2.309q0-.293-.119-.52a.9.9 0 0 0-.336-.361.94.94 0 0 0-.503-.131.97.97 0 0 0-.548.154 1.04 1.04 0 0 0-.358.398 1.15 1.15 0 0 0-.124.53v.436q0 .382.134.652a.97.97 0 0 0 .381.41q.243.14.57.14.211 0 .385-.06a.8.8 0 0 0 .302-.184.8.8 0 0 0 .194-.301l.704.127a1.3 1.3 0 0 1-.304.545 1.5 1.5 0 0 1-.545.36 2 2 0 0 1-.744.127"/>
        <defs fill="none">
            <linearGradient gradientUnits="userSpaceOnUse" y2="28.756" x2="22.149" y1="7.369" x1="22.149" id="6ec60f5b-3845-4574-824e-c4cc0a1aff75">
                <stop stop-opacity=".12" stop-color="#ffffff"/>
                <stop stop-opacity="0" stop-color="#ffffff" offset="1"/>
            </linearGradient>
            <linearGradient gradientUnits="userSpaceOnUse" y2="51.641" x2="224.93" y1="30.254" x1="224.93" id="1ad38ac2-e5aa-4f27-bd4f-94259b972fb5">
                <stop stop-opacity=".12" stop-color="#ffffff"/>
                <stop stop-opacity="0" stop-color="#ffffff" offset="1"/>
            </linearGradient>
            <linearGradient gradientUnits="userSpaceOnUse" y2="136.342" x2="121.956" y1="114.955" x1="121.956" id="c895db43-8991-4af0-9805-66f45ccbc2b7">
                <stop stop-opacity=".12" stop-color="#ffffff"/>
                <stop stop-opacity="0" stop-color="#ffffff" offset="1"/>
            </linearGradient>
            <clipPath id="37286540-ca49-4ff1-a1f0-e7ef510107c9">
                <path fill="#ffffff" d="M27.322 12.7v10.902H16.42V12.7z"/>
            </clipPath>
            <clipPath id="597f5c66-4d85-4dea-afec-f98939145391">
                <path fill="#ffffff" d="M230.173 35.33v10.902h-10.902V35.33z"/>
            </clipPath>
            <clipPath id="c2e9434e-0931-4907-be95-fe893599a2a7">
                <path fill="#ffffff" d="M127.773 120.549v10.902h-10.902v-10.902z"/>
            </clipPath>
            <filter color-interpolation-filters="sRGB" filterUnits="userSpaceOnUse" height="23.169" width="23.169" y="6.924" x="10.565" id="fb038e08-fcac-402d-b527-ec790296a730">
                <feFlood result="BackgroundImageFix" flood-opacity="0"/>
                <feColorMatrix result="hardAlpha" values="0 0 0 0 0 0 0 0 0 0 0 0 0 0 0 0 0 0 127 0" in="SourceAlpha"/>
                <feOffset dy=".446"/>
                <feGaussianBlur stdDeviation=".446"/>
                <feComposite operator="out" in2="hardAlpha"/>
                <feColorMatrix values="0 0 0 0 0.0392157 0 0 0 0 0.0496732 0 0 0 0 0.0705882 0 0 0 0.05 0"/>
                <feBlend result="effect1_dropShadow_189_6176" in2="BackgroundImageFix"/>
                <feBlend result="shape" in2="effect1_dropShadow_189_6176" in="SourceGraphic"/>
                <feColorMatrix result="hardAlpha" values="0 0 0 0 0 0 0 0 0 0 0 0 0 0 0 0 0 0 127 0" in="SourceAlpha"/>
                <feOffset dy="-.891"/>
                <feComposite k3="1" k2="-1" operator="arithmetic" in2="hardAlpha"/>
                <feColorMatrix values="0 0 0 0 0.0392157 0 0 0 0 0.0496732 0 0 0 0 0.0705882 0 0 0 0.05 0"/>
                <feBlend result="effect2_innerShadow_189_6176" in2="shape"/>
                <feColorMatrix result="hardAlpha" values="0 0 0 0 0 0 0 0 0 0 0 0 0 0 0 0 0 0 127 0" in="SourceAlpha"/>
                <feMorphology result="effect3_innerShadow_189_6176" in="SourceAlpha" radius=".446"/>
                <feOffset/>
                <feComposite k3="1" k2="-1" operator="arithmetic" in2="hardAlpha"/>
                <feColorMatrix values="0 0 0 0 0.0392157 0 0 0 0 0.0496732 0 0 0 0 0.0705882 0 0 0 0.18 0"/>
                <feBlend result="effect3_innerShadow_189_6176" in2="effect2_innerShadow_189_6176"/>
            </filter>
            <filter color-interpolation-filters="sRGB" filterUnits="userSpaceOnUse" height="23.169" width="23.169" y="29.808" x="213.346" id="f4709026-65da-410d-80fe-b24317bd8487">
                <feFlood result="BackgroundImageFix" flood-opacity="0"/>
                <feColorMatrix result="hardAlpha" values="0 0 0 0 0 0 0 0 0 0 0 0 0 0 0 0 0 0 127 0" in="SourceAlpha"/>
                <feOffset dy=".446"/>
                <feGaussianBlur stdDeviation=".446"/>
                <feComposite operator="out" in2="hardAlpha"/>
                <feColorMatrix values="0 0 0 0 0.0392157 0 0 0 0 0.0496732 0 0 0 0 0.0705882 0 0 0 0.05 0"/>
                <feBlend result="effect1_dropShadow_189_6176" in2="BackgroundImageFix"/>
                <feBlend result="shape" in2="effect1_dropShadow_189_6176" in="SourceGraphic"/>
                <feColorMatrix result="hardAlpha" values="0 0 0 0 0 0 0 0 0 0 0 0 0 0 0 0 0 0 127 0" in="SourceAlpha"/>
                <feOffset dy="-.891"/>
                <feComposite k3="1" k2="-1" operator="arithmetic" in2="hardAlpha"/>
                <feColorMatrix values="0 0 0 0 0.0392157 0 0 0 0 0.0496732 0 0 0 0 0.0705882 0 0 0 0.05 0"/>
                <feBlend result="effect2_innerShadow_189_6176" in2="shape"/>
                <feColorMatrix result="hardAlpha" values="0 0 0 0 0 0 0 0 0 0 0 0 0 0 0 0 0 0 127 0" in="SourceAlpha"/>
                <feMorphology result="effect3_innerShadow_189_6176" in="SourceAlpha" radius=".446"/>
                <feOffset/>
                <feComposite k3="1" k2="-1" operator="arithmetic" in2="hardAlpha"/>
                <feColorMatrix values="0 0 0 0 0.0392157 0 0 0 0 0.0496732 0 0 0 0 0.0705882 0 0 0 0.18 0"/>
                <feBlend result="effect3_innerShadow_189_6176" in2="effect2_innerShadow_189_6176"/>
            </filter>
            <filter color-interpolation-filters="sRGB" filterUnits="userSpaceOnUse" height="23.169" width="23.169" y="114.51" x="110.371" id="dd271972-0fa6-44b2-9f01-257d478b590a">
                <feFlood result="BackgroundImageFix" flood-opacity="0"/>
                <feColorMatrix result="hardAlpha" values="0 0 0 0 0 0 0 0 0 0 0 0 0 0 0 0 0 0 127 0" in="SourceAlpha"/>
                <feOffset dy=".446"/>
                <feGaussianBlur stdDeviation=".446"/>
                <feComposite operator="out" in2="hardAlpha"/>
                <feColorMatrix values="0 0 0 0 0.0392157 0 0 0 0 0.0496732 0 0 0 0 0.0705882 0 0 0 0.05 0"/>
                <feBlend result="effect1_dropShadow_189_6176" in2="BackgroundImageFix"/>
                <feBlend result="shape" in2="effect1_dropShadow_189_6176" in="SourceGraphic"/>
                <feColorMatrix result="hardAlpha" values="0 0 0 0 0 0 0 0 0 0 0 0 0 0 0 0 0 0 127 0" in="SourceAlpha"/>
                <feOffset dy="-.891"/>
                <feComposite k3="1" k2="-1" operator="arithmetic" in2="hardAlpha"/>
                <feColorMatrix values="0 0 0 0 0.0392157 0 0 0 0 0.0496732 0 0 0 0 0.0705882 0 0 0 0.05 0"/>
                <feBlend result="effect2_innerShadow_189_6176" in2="shape"/>
                <feColorMatrix result="hardAlpha" values="0 0 0 0 0 0 0 0 0 0 0 0 0 0 0 0 0 0 127 0" in="SourceAlpha"/>
                <feMorphology result="effect3_innerShadow_189_6176" in="SourceAlpha" radius=".446"/>
                <feOffset/>
                <feComposite k3="1" k2="-1" operator="arithmetic" in2="hardAlpha"/>
                <feColorMatrix values="0 0 0 0 0.0392157 0 0 0 0 0.0496732 0 0 0 0 0.0705882 0 0 0 0.18 0"/>
                <feBlend result="effect3_innerShadow_189_6176" in2="effect2_innerShadow_189_6176"/>
            </filter>
        </defs>
    </g>
</svg>
