<?xml version="1.0" encoding="UTF-8"?>
<svg data-bbox="2 50.5 619.5 392.5" xmlns="http://www.w3.org/2000/svg" viewBox="0 0 622 450" height="450" width="622" data-type="ugc">
    <g>
        <path stroke-dasharray="4 8" stroke-width="3" stroke="#A1A3BC" d="M239 227H135" fill="none"/>
        <path stroke-dasharray="4 8" stroke-width="3" stroke="#A1A3BC" d="M489.009 226H377.991" fill="none"/>
        <path fill="#F8F9FC" d="M464.5 82c0 17.397-14.103 31.5-31.5 31.5H190c-17.397 0-31.5-14.103-31.5-31.5s14.103-31.5 31.5-31.5h243c17.397 0 31.5 14.103 31.5 31.5"/>
        <path stroke="#D5D9EB" d="M464.5 82c0 17.397-14.103 31.5-31.5 31.5H190c-17.397 0-31.5-14.103-31.5-31.5s14.103-31.5 31.5-31.5h243c17.397 0 31.5 14.103 31.5 31.5z" fill="none"/>
        <g filter="url(#6bbf1b07-ce8f-462e-991b-70e11e989975)">
            <path fill="#0092CA" d="M198 72a6 6 0 0 1 6-6h20a6 6 0 0 1 6 6v20a6 6 0 0 1-6 6h-20a6 6 0 0 1-6-6z"/>
            <path stroke-width="2" stroke="url(#424fb866-094e-47b3-8819-989589794c25)" d="M204 67h20a5 5 0 0 1 5 5v20a5 5 0 0 1-5 5h-20a5 5 0 0 1-5-5V72a5 5 0 0 1 5-5Z" fill="none"/>
            <g clip-path="url(#0fd26602-8751-4249-b767-564e395838c3)">
                <path stroke-linejoin="round" stroke-linecap="round" stroke-width="2" stroke="#ffffff" d="M212.667 85.333a4.666 4.666 0 1 0 0-9.332 4.666 4.666 0 0 0 0 9.332" fill="none"/>
                <path stroke-linejoin="round" stroke-linecap="round" stroke-width="2" stroke="#ffffff" d="m220 88-4-4" fill="none"/>
            </g>
        </g>
        <path fill="#04082B" d="M240.972 89h-2.531l4.609-13.09h2.927L250.592 89h-2.531l-3.496-10.406h-.103zm.083-5.133h6.904v1.905h-6.904zm15.207 5.325q-1.476 0-2.55-.614a4.15 4.15 0 0 1-1.643-1.751q-.575-1.139-.575-2.679 0-1.515.575-2.659a4.36 4.36 0 0 1 1.623-1.79q1.042-.645 2.449-.645.907 0 1.713.294a3.9 3.9 0 0 1 1.432.895q.625.607.984 1.547.358.933.358 2.224v.71h-8.048v-1.56h5.83a2.5 2.5 0 0 0-.288-1.183 2.1 2.1 0 0 0-.786-.824q-.498-.3-1.163-.3-.71 0-1.247.345a2.4 2.4 0 0 0-.837.895q-.294.55-.301 1.208v1.361q0 .856.314 1.47.312.607.875.934.563.32 1.317.32a2.8 2.8 0 0 0 .914-.141q.409-.147.71-.429.3-.281.453-.696l2.161.243a3.36 3.36 0 0 1-.78 1.495q-.569.633-1.457.985-.889.345-2.033.345m11.226-10.01v1.79h-5.644v-1.79zm-4.251-2.353h2.314v9.218q0 .467.141.716a.76.76 0 0 0 .383.332q.237.09.525.09.217 0 .396-.032.185-.032.281-.058l.39 1.81q-.185.063-.53.14a4.3 4.3 0 0 1-.831.09q-.87.025-1.566-.263a2.43 2.43 0 0 1-1.106-.907q-.403-.615-.397-1.535zm8.5 6.418V89h-2.314v-9.818h2.212v1.668h.115q.339-.825 1.08-1.31.749-.486 1.848-.486 1.016 0 1.77.435.76.435 1.176 1.259.423.825.416 2V89h-2.314v-5.894q0-.984-.512-1.54-.505-.556-1.399-.556-.607 0-1.081.268a1.86 1.86 0 0 0-.735.761q-.262.498-.262 1.208m11.48 5.951q-.933 0-1.681-.332a2.75 2.75 0 0 1-1.176-.997q-.428-.659-.428-1.624 0-.831.307-1.374.306-.543.837-.87a4.2 4.2 0 0 1 1.195-.492q.672-.172 1.387-.25.863-.088 1.4-.159.537-.077.78-.23.249-.16.249-.492v-.038q0-.723-.428-1.12-.428-.395-1.234-.395-.85 0-1.348.37-.492.372-.665.876l-2.161-.307q.256-.895.844-1.495a3.7 3.7 0 0 1 1.438-.908 5.5 5.5 0 0 1 1.88-.307q.71 0 1.412.166.703.166 1.285.55.582.376.933 1.029.358.652.358 1.63V89h-2.224v-1.349h-.077q-.21.41-.594.767a2.9 2.9 0 0 1-.953.57q-.568.21-1.336.21m.601-1.7q.697 0 1.208-.275.512-.281.786-.742.282-.459.282-1.003v-1.157q-.109.09-.371.166-.255.077-.575.134t-.633.103l-.543.076a4 4 0 0 0-.927.23 1.54 1.54 0 0 0-.646.448q-.236.281-.236.729 0 .64.466.965.467.326 1.189.326"/>
        <path fill="#0092CA" d="M216 220c0 14.912-12.088 27-27 27H29c-14.912 0-27-12.088-27-27s12.088-27 27-27h160c14.912 0 27 12.088 27 27"/>
        <path fill="#ffffff" d="M24.972 227h-2.53l4.608-13.091h2.927L34.592 227h-2.53l-3.497-10.406h-.103zm.083-5.133h6.904v1.905h-6.904zm15.207 5.325q-1.476 0-2.55-.614a4.15 4.15 0 0 1-1.643-1.751q-.576-1.138-.575-2.679 0-1.515.575-2.659a4.35 4.35 0 0 1 1.624-1.789q1.041-.646 2.448-.646.907 0 1.713.294.81.288 1.431.895.627.607.985 1.547.357.933.358 2.224v.71H36.58v-1.56h5.83a2.5 2.5 0 0 0-.288-1.182 2.1 2.1 0 0 0-.786-.825q-.498-.3-1.163-.3-.71 0-1.247.345a2.4 2.4 0 0 0-.837.895 2.6 2.6 0 0 0-.3 1.208v1.361q0 .857.313 1.47.312.607.875.934.563.32 1.317.319.505 0 .914-.14.41-.147.71-.429.3-.28.453-.696l2.161.242a3.4 3.4 0 0 1-.78 1.496q-.57.633-1.457.985-.889.345-2.033.345m11.226-10.01v1.79h-5.644v-1.79zm-4.25-2.352h2.313v9.217q0 .467.14.716a.76.76 0 0 0 .384.332q.237.09.525.09.218 0 .396-.032a4 4 0 0 0 .281-.058l.39 1.809q-.185.065-.53.141a4.3 4.3 0 0 1-.831.089q-.87.026-1.566-.262a2.43 2.43 0 0 1-1.106-.908q-.402-.613-.397-1.534zm8.5 6.417V227h-2.315v-9.818h2.212v1.668h.115q.339-.825 1.08-1.31.749-.486 1.848-.486 1.016 0 1.77.435.761.434 1.176 1.259.422.824.416 2.001V227h-2.314v-5.893q0-.985-.511-1.541-.506-.556-1.4-.556a2.15 2.15 0 0 0-1.08.268 1.87 1.87 0 0 0-.736.761q-.262.498-.262 1.208m11.48 5.951a4.1 4.1 0 0 1-1.682-.332 2.74 2.74 0 0 1-1.176-.997q-.428-.659-.428-1.624 0-.831.307-1.374.306-.543.837-.87a4.2 4.2 0 0 1 1.195-.492 10 10 0 0 1 1.387-.249q.863-.09 1.4-.16.537-.077.78-.23.25-.16.25-.492v-.039q0-.722-.429-1.118-.428-.396-1.234-.396-.85 0-1.348.37-.492.37-.665.876l-2.16-.307q.255-.894.843-1.496a3.7 3.7 0 0 1 1.438-.907 5.5 5.5 0 0 1 1.88-.307q.71 0 1.412.166.703.166 1.285.55.582.377.933 1.029.358.652.358 1.63V227h-2.224v-1.349H70.1a2.8 2.8 0 0 1-.594.767 2.9 2.9 0 0 1-.953.569q-.568.211-1.336.211m.6-1.7q.697 0 1.208-.275.511-.281.787-.741.28-.46.28-1.004v-1.157q-.108.09-.37.166-.255.077-.575.134t-.633.103l-.543.076a4 4 0 0 0-.927.231 1.53 1.53 0 0 0-.646.447q-.236.28-.236.729 0 .64.466.965.467.326 1.19.326M79.295 227v-13.091h4.91q1.508 0 2.53.563 1.029.562 1.554 1.546.53.978.53 2.225 0 1.259-.53 2.237a3.8 3.8 0 0 1-1.566 1.541q-1.035.556-2.55.556h-3.254v-1.95h2.934q.882 0 1.444-.307.563-.306.831-.843.275-.537.275-1.234t-.275-1.227a1.87 1.87 0 0 0-.837-.825q-.563-.3-1.451-.3h-2.174V227zm11.584 0v-13.091h4.91q1.508 0 2.53.563 1.029.562 1.554 1.546.53.978.53 2.225 0 1.259-.53 2.237a3.8 3.8 0 0 1-1.566 1.541q-1.035.556-2.55.556h-3.254v-1.95h2.934q.882 0 1.444-.307.563-.306.831-.843.275-.537.275-1.234t-.275-1.227a1.87 1.87 0 0 0-.837-.825q-.563-.3-1.451-.3H93.25V227zm23.282-6.545q0 2.115-.793 3.624-.786 1.502-2.148 2.301-1.355.8-3.074.799-1.72 0-3.081-.799-1.356-.805-2.148-2.308-.786-1.508-.786-3.617 0-2.116.786-3.618.792-1.509 2.148-2.308 1.36-.8 3.081-.799 1.72 0 3.074.799 1.362.8 2.148 2.308.793 1.502.793 3.618m-2.385 0q0-1.49-.466-2.513-.46-1.029-1.279-1.553-.818-.53-1.885-.53t-1.886.53q-.819.524-1.285 1.553-.46 1.023-.46 2.513 0 1.488.46 2.518.466 1.023 1.285 1.553.818.525 1.886.524 1.067 0 1.885-.524.819-.53 1.279-1.553.466-1.03.466-2.518m20.297-2.129h-2.391a3 3 0 0 0-.377-1.042 2.8 2.8 0 0 0-1.617-1.259 3.6 3.6 0 0 0-1.119-.166q-1.067 0-1.892.537-.825.53-1.291 1.559-.467 1.023-.467 2.5 0 1.502.467 2.531.473 1.022 1.291 1.547.825.517 1.886.517.588 0 1.099-.153.518-.16.927-.467.415-.307.697-.754a2.9 2.9 0 0 0 .396-1.023l2.391.013a5.2 5.2 0 0 1-.582 1.752 5.2 5.2 0 0 1-1.157 1.444 5.3 5.3 0 0 1-1.675.972q-.958.345-2.128.345-1.726 0-3.081-.799-1.355-.8-2.135-2.308t-.78-3.617q0-2.116.786-3.618.786-1.509 2.142-2.308 1.355-.8 3.068-.799 1.093 0 2.032.307a5.2 5.2 0 0 1 1.675.901q.735.588 1.208 1.445.48.85.627 1.943m4.383 2.921V227h-2.314v-13.091h2.263v4.941h.115q.345-.831 1.067-1.31.729-.486 1.854-.486 1.023 0 1.783.428.762.429 1.177 1.253.421.825.421 2.014V227h-2.313v-5.893q0-.991-.512-1.541-.504-.556-1.419-.556-.613 0-1.099.268-.48.263-.755.761-.268.498-.268 1.208m13.008 5.945q-1.438 0-2.493-.633a4.3 4.3 0 0 1-1.636-1.771q-.576-1.138-.576-2.659t.576-2.665a4.3 4.3 0 0 1 1.636-1.777q1.055-.633 2.493-.633t2.493.633a4.25 4.25 0 0 1 1.63 1.777q.58 1.144.581 2.665 0 1.522-.581 2.659a4.26 4.26 0 0 1-1.63 1.771q-1.055.633-2.493.633m.013-1.854q.779 0 1.304-.428.524-.435.779-1.164a4.8 4.8 0 0 0 .262-1.623q0-.901-.262-1.63-.255-.735-.779-1.17-.525-.435-1.304-.435-.8 0-1.33.435-.523.435-.786 1.17a4.9 4.9 0 0 0-.256 1.63q0 .895.256 1.623.263.729.786 1.164.53.428 1.33.428m6.655 1.662v-9.818h2.314V227zm1.164-11.212q-.55 0-.946-.364a1.17 1.17 0 0 1-.397-.888q0-.525.397-.889.396-.37.946-.371.556 0 .946.371.396.364.396.889 0 .517-.396.888-.39.364-.946.364m7.812 11.404q-1.47 0-2.525-.646a4.3 4.3 0 0 1-1.617-1.783q-.562-1.145-.562-2.634 0-1.496.575-2.64a4.3 4.3 0 0 1 1.624-1.789q1.054-.646 2.493-.646 1.195 0 2.115.441.927.435 1.477 1.234.55.792.626 1.853h-2.211a2.1 2.1 0 0 0-.64-1.182q-.498-.48-1.336-.48-.71 0-1.246.384-.537.377-.837 1.087-.294.709-.294 1.7 0 1.003.294 1.726.294.716.824 1.106.537.383 1.259.383.511 0 .915-.192.408-.198.683-.569t.378-.901h2.211a3.85 3.85 0 0 1-.613 1.847 3.63 3.63 0 0 1-1.445 1.253q-.914.448-2.148.448m10.453 0q-1.477 0-2.551-.614a4.15 4.15 0 0 1-1.642-1.751q-.576-1.138-.576-2.679 0-1.515.576-2.659a4.35 4.35 0 0 1 1.623-1.789q1.042-.646 2.448-.646.909 0 1.714.294.811.288 1.431.895.627.607.985 1.547.357.933.358 2.224v.71h-8.048v-1.56h5.83a2.5 2.5 0 0 0-.288-1.182 2.1 2.1 0 0 0-.786-.825q-.499-.3-1.164-.3-.71 0-1.246.345a2.4 2.4 0 0 0-.837.895 2.6 2.6 0 0 0-.301 1.208v1.361q0 .857.313 1.47.314.607.876.934.562.32 1.317.319.505 0 .914-.14.41-.147.709-.429.301-.28.454-.696l2.161.242a3.4 3.4 0 0 1-.78 1.496q-.569.633-1.457.985-.889.345-2.033.345m13.262-13.283V227h-2.372v-13.091zm4.939 0V227h-2.371v-13.091z"/>
        <path fill="#F8F9FC" d="M381.5 220c0 14.636-11.864 26.5-26.5 26.5h-86c-14.636 0-26.5-11.864-26.5-26.5s11.864-26.5 26.5-26.5h86c14.636 0 26.5 11.864 26.5 26.5"/>
        <path stroke="#D5D9EB" d="M381.5 220c0 14.636-11.864 26.5-26.5 26.5h-86c-14.636 0-26.5-11.864-26.5-26.5s11.864-26.5 26.5-26.5h86c14.636 0 26.5 11.864 26.5 26.5z" fill="none"/>
        <path fill="#04082B" d="M264.972 227h-2.531l4.609-13.091h2.927L274.592 227h-2.531l-3.496-10.406h-.103zm.083-5.133h6.904v1.905h-6.904zm15.207 5.325q-1.476 0-2.55-.614a4.15 4.15 0 0 1-1.643-1.751q-.575-1.138-.575-2.679 0-1.515.575-2.659a4.35 4.35 0 0 1 1.623-1.789q1.042-.646 2.449-.646.907 0 1.713.294a3.9 3.9 0 0 1 1.432.895q.625.607.984 1.547.358.933.358 2.224v.71h-8.048v-1.56h5.83a2.5 2.5 0 0 0-.288-1.182 2.1 2.1 0 0 0-.786-.825q-.498-.3-1.163-.3-.71 0-1.247.345a2.4 2.4 0 0 0-.837.895 2.6 2.6 0 0 0-.301 1.208v1.361q0 .857.314 1.47.312.607.875.934.563.32 1.317.319.505 0 .914-.14.409-.147.71-.429.3-.28.453-.696l2.161.242a3.36 3.36 0 0 1-.78 1.496q-.569.633-1.457.985-.889.345-2.033.345m11.226-10.01v1.79h-5.644v-1.79zm-4.251-2.352h2.314v9.217q0 .467.141.716a.76.76 0 0 0 .383.332q.237.09.525.09.217 0 .396-.032.185-.033.281-.058l.39 1.809q-.185.065-.53.141a4.3 4.3 0 0 1-.831.089q-.87.026-1.566-.262a2.4 2.4 0 0 1-1.106-.908q-.403-.613-.397-1.534zm8.5 6.417V227h-2.314v-9.818h2.212v1.668h.115q.339-.825 1.08-1.31.749-.486 1.848-.486 1.016 0 1.77.435.76.434 1.176 1.259.423.824.416 2.001V227h-2.314v-5.893q0-.985-.512-1.541-.505-.556-1.399-.556-.607 0-1.081.268a1.87 1.87 0 0 0-.735.761q-.262.498-.262 1.208m11.48 5.951a4.1 4.1 0 0 1-1.681-.332 2.75 2.75 0 0 1-1.176-.997q-.428-.659-.428-1.624 0-.831.307-1.374.306-.543.837-.87a4.2 4.2 0 0 1 1.195-.492 10 10 0 0 1 1.387-.249q.863-.09 1.4-.16.537-.077.78-.23.249-.16.249-.492v-.039q0-.722-.428-1.118t-1.234-.396q-.85 0-1.348.37-.492.37-.665.876l-2.161-.307q.256-.894.844-1.496a3.7 3.7 0 0 1 1.438-.907 5.5 5.5 0 0 1 1.88-.307 6 6 0 0 1 1.412.166q.703.166 1.285.55.582.377.933 1.029.358.652.358 1.63V227h-2.224v-1.349h-.077a2.8 2.8 0 0 1-.594.767 2.9 2.9 0 0 1-.953.569q-.568.211-1.336.211m.601-1.7q.697 0 1.208-.275a2.03 2.03 0 0 0 .786-.741q.282-.46.282-1.004v-1.157q-.109.09-.371.166-.255.077-.575.134t-.633.103l-.543.076a4 4 0 0 0-.927.231 1.53 1.53 0 0 0-.646.447q-.236.28-.236.729 0 .64.466.965.467.326 1.189.326M319.295 227v-13.091h2.372v5.542h6.066v-5.542h2.377V227h-2.377v-5.561h-6.066V227zm13.395-13.091h2.902l3.886 9.486h.153l3.887-9.486h2.902V227h-2.276v-8.994h-.121l-3.618 8.956h-1.7l-3.618-8.975h-.122V227h-2.275zm28.01 6.546q0 2.115-.793 3.624-.786 1.502-2.148 2.301-1.355.8-3.074.799-1.72 0-3.081-.799-1.356-.805-2.148-2.308-.786-1.508-.786-3.617 0-2.116.786-3.618.792-1.509 2.148-2.308 1.36-.8 3.081-.799 1.72 0 3.074.799 1.362.8 2.148 2.308.793 1.502.793 3.618m-2.385 0q0-1.49-.466-2.513-.46-1.029-1.279-1.553-.818-.53-1.885-.53t-1.886.53q-.818.524-1.285 1.553-.46 1.023-.46 2.513 0 1.488.46 2.518.467 1.023 1.285 1.553.818.525 1.886.524 1.067 0 1.885-.524.819-.53 1.279-1.553.466-1.03.466-2.518"/>
        <path fill="#F8F9FC" d="M621.5 220c0 14.636-11.864 26.5-26.5 26.5h-79c-14.636 0-26.5-11.864-26.5-26.5s11.864-26.5 26.5-26.5h79c14.636 0 26.5 11.864 26.5 26.5"/>
        <path stroke="#D5D9EB" d="M621.5 220c0 14.636-11.864 26.5-26.5 26.5h-79c-14.636 0-26.5-11.864-26.5-26.5s11.864-26.5 26.5-26.5h79c14.636 0 26.5 11.864 26.5 26.5z" fill="none"/>
        <path fill="#04082B" d="M511.972 227h-2.531l4.609-13.091h2.927L521.592 227h-2.531l-3.496-10.406h-.103zm.083-5.133h6.904v1.905h-6.904zm15.207 5.325q-1.476 0-2.55-.614a4.15 4.15 0 0 1-1.643-1.751q-.576-1.138-.575-2.679 0-1.515.575-2.659a4.35 4.35 0 0 1 1.623-1.789q1.042-.646 2.449-.646.908 0 1.713.294a3.9 3.9 0 0 1 1.432.895q.625.607.984 1.547.358.933.358 2.224v.71h-8.048v-1.56h5.83a2.5 2.5 0 0 0-.288-1.182 2.1 2.1 0 0 0-.786-.825q-.498-.3-1.163-.3-.71 0-1.247.345a2.4 2.4 0 0 0-.837.895 2.6 2.6 0 0 0-.301 1.208v1.361q0 .857.314 1.47.312.607.875.934.563.32 1.317.319.505 0 .914-.14.409-.147.71-.429.3-.28.453-.696l2.161.242a3.36 3.36 0 0 1-.78 1.496q-.569.633-1.457.985-.889.345-2.033.345m11.226-10.01v1.79h-5.644v-1.79zm-4.251-2.352h2.314v9.217q0 .467.141.716a.76.76 0 0 0 .383.332q.237.09.525.09.217 0 .396-.032.185-.033.281-.058l.39 1.809q-.185.065-.53.141a4.3 4.3 0 0 1-.831.089q-.87.026-1.566-.262a2.4 2.4 0 0 1-1.106-.908q-.403-.613-.397-1.534zm8.5 6.417V227h-2.314v-9.818h2.212v1.668h.115q.339-.825 1.08-1.31.749-.486 1.848-.486 1.016 0 1.77.435.76.434 1.176 1.259.423.824.416 2.001V227h-2.314v-5.893q0-.985-.512-1.541-.505-.556-1.399-.556-.607 0-1.081.268a1.87 1.87 0 0 0-.735.761q-.261.498-.262 1.208m11.48 5.951a4.1 4.1 0 0 1-1.681-.332 2.75 2.75 0 0 1-1.176-.997q-.428-.659-.428-1.624 0-.831.307-1.374.306-.543.837-.87a4.2 4.2 0 0 1 1.195-.492 10 10 0 0 1 1.387-.249q.864-.09 1.4-.16.537-.077.78-.23.249-.16.249-.492v-.039q0-.722-.428-1.118t-1.234-.396q-.85 0-1.348.37-.492.37-.665.876l-2.161-.307q.256-.894.844-1.496a3.7 3.7 0 0 1 1.438-.907 5.5 5.5 0 0 1 1.88-.307 6 6 0 0 1 1.412.166q.703.166 1.285.55.582.377.933 1.029.358.652.358 1.63V227h-2.224v-1.349h-.077a2.8 2.8 0 0 1-.594.767 2.9 2.9 0 0 1-.953.569q-.568.211-1.336.211m.601-1.7q.697 0 1.208-.275a2.03 2.03 0 0 0 .786-.741q.282-.46.282-1.004v-1.157q-.109.09-.371.166-.255.077-.575.134t-.633.103l-.543.076a4 4 0 0 0-.927.231 1.53 1.53 0 0 0-.646.447q-.236.28-.236.729 0 .64.466.965.467.326 1.189.326M566.295 227v-13.091h8.514v1.988h-6.142v3.554h5.701v1.988h-5.701v3.573h6.193V227zm10.934 0v-13.091h4.909q1.508 0 2.531.563 1.03.562 1.553 1.546.531.978.531 2.225 0 1.259-.531 2.237-.53.978-1.566 1.541-1.035.556-2.55.556h-3.254v-1.95h2.934q.882 0 1.445-.307.563-.306.831-.843.275-.537.275-1.234t-.275-1.227a1.86 1.86 0 0 0-.838-.825q-.562-.3-1.451-.3H579.6V227zm23.281-6.545q0 2.115-.792 3.624-.788 1.502-2.148 2.301-1.355.8-3.075.799-1.719 0-3.081-.799-1.355-.805-2.147-2.308-.787-1.508-.787-3.617 0-2.116.787-3.618.792-1.509 2.147-2.308 1.362-.8 3.081-.799 1.72 0 3.075.799 1.36.8 2.148 2.308.792 1.502.792 3.618m-2.384 0q0-1.49-.467-2.513-.46-1.029-1.278-1.553-.818-.53-1.886-.53-1.067 0-1.885.53-.819.524-1.285 1.553-.46 1.023-.46 2.513 0 1.488.46 2.518.466 1.023 1.285 1.553.818.525 1.885.524 1.068 0 1.886-.524.817-.53 1.278-1.553.467-1.03.467-2.518"/>
        <path stroke-dasharray="4 8" stroke-width="3" stroke="#A1A3BC" d="m312 114-.006 76" fill="none"/>
        <g filter="url(#ca25480c-c2da-40f9-b782-a1894be7c7db)">
            <path fill="#A1A3BC" d="M301 149a6 6 0 0 1 6-6h10a6 6 0 0 1 6 6v10a6 6 0 0 1-6 6h-10a6 6 0 0 1-6-6z"/>
            <path stroke-width="2" stroke="url(#a0fc8a67-3c0e-470d-9450-1cdf4606a0b1)" d="M307 144h10a5 5 0 0 1 5 5v10a5 5 0 0 1-5 5h-10a5 5 0 0 1-5-5v-10a5 5 0 0 1 5-5Z" fill="none"/>
            <g clip-path="url(#552a98cc-77c8-45cf-9246-b6cd06f411f4)">
                <path stroke-linejoin="round" stroke-linecap="round" stroke-width="2" stroke="#ffffff" d="M312 149.334v9.333" fill="none"/>
                <path stroke-linejoin="round" stroke-linecap="round" stroke-width="2" stroke="#ffffff" d="M307.333 154h9.333" fill="none"/>
            </g>
        </g>
        <g filter="url(#e5970525-be1c-41a7-9465-feeb5b46886b)">
            <g clip-path="url(#bd6806f1-7089-4954-b4ba-2183ac4016bf)">
                <mask fill="#ffffff" id="10bf99ed-14a3-47ce-afa5-892bc0bf59f3">
                    <path d="M2 260h541v182H2z"/>
                </mask>
                <path fill="#ffffff" d="M2 260h541v182H2z"/>
                <mask fill="#ffffff" id="6e8bfd07-fa61-4ee8-acdf-27b8d500c677">
                    <path d="M2 260h73v44H2z"/>
                </mask>
                <path fill="#FAFAFA" d="M2 260h73v44H2z"/>
                <path mask="url(#6e8bfd07-fa61-4ee8-acdf-27b8d500c677)" fill="#E9EAEB" d="M75 304v-1H2v2h73z"/>
                <path fill="#717680" d="M34.033 277.273V286h-1.407l-4.112-5.945h-.072V286H26.86v-8.727h1.415l4.107 5.949h.077v-5.949zM35.755 286v-8.727h3.273q1.005 0 1.688.375.685.375 1.035 1.031.354.652.354 1.483 0 .84-.354 1.491a2.53 2.53 0 0 1-1.044 1.027q-.69.372-1.7.371h-2.17v-1.3h1.957q.588 0 .963-.204t.554-.563q.183-.357.183-.822t-.183-.818a1.25 1.25 0 0 0-.559-.55q-.375-.2-.967-.2h-1.449V286zm9.304-8.727V286h-1.581v-8.727z"/>
                <mask fill="#ffffff" id="7c093483-ce25-461f-bb57-f9d0dfd91541">
                    <path d="M2 304h73v46H2z"/>
                </mask>
                <path mask="url(#7c093483-ce25-461f-bb57-f9d0dfd91541)" fill="#E9EAEB" d="M75 350v-1H2v2h73z"/>
                <path fill="#181D27" d="M30.842 321.818V332h-1.54v-8.641h-.06l-2.437 1.591v-1.471l2.54-1.661zm6.3 10.351q-1.179-.005-2.014-.621-.836-.617-1.278-1.795-.442-1.179-.442-2.839 0-1.656.442-2.829.447-1.173 1.283-1.79.84-.616 2.008-.616 1.17 0 2.004.621.836.617 1.278 1.79.447 1.168.447 2.824 0 1.665-.442 2.844-.442 1.173-1.278 1.795-.836.616-2.009.616m0-1.327q1.033 0 1.615-1.01.587-1.008.587-2.918 0-1.267-.269-2.143-.263-.879-.76-1.332a1.66 1.66 0 0 0-1.174-.457q-1.029 0-1.615 1.014-.588 1.014-.592 2.918 0 1.273.263 2.153.27.875.761 1.327a1.7 1.7 0 0 0 1.183.448m9.036 1.327q-1.178-.005-2.013-.621-.836-.617-1.278-1.795-.442-1.179-.442-2.839 0-1.656.442-2.829.447-1.173 1.283-1.79.84-.616 2.008-.616 1.17 0 2.004.621.835.617 1.278 1.79.447 1.168.447 2.824 0 1.665-.442 2.844-.442 1.173-1.278 1.795-.835.616-2.009.616m0-1.327q1.034 0 1.616-1.01.587-1.008.587-2.918 0-1.267-.269-2.143-.263-.879-.76-1.332a1.66 1.66 0 0 0-1.174-.457q-1.029 0-1.615 1.014t-.592 2.918q0 1.273.264 2.153.267.875.76 1.327a1.7 1.7 0 0 0 1.183.448"/>
                <mask fill="#ffffff" id="59172692-117b-4c40-a7cc-82e0871bc626">
                    <path d="M2 350h73v46H2z"/>
                </mask>
                <path mask="url(#59172692-117b-4c40-a7cc-82e0871bc626)" fill="#E9EAEB" d="M75 396v-1H2v2h73z"/>
                <path fill="#181D27" d="M30.842 367.818V378h-1.54v-8.641h-.06l-2.437 1.591v-1.471l2.54-1.661zm6.3 10.351q-1.179-.005-2.014-.621-.836-.617-1.278-1.795-.442-1.179-.442-2.839 0-1.656.442-2.829.447-1.173 1.283-1.79.84-.616 2.008-.616 1.17 0 2.004.621.836.617 1.278 1.79.447 1.168.447 2.824 0 1.665-.442 2.844-.442 1.173-1.278 1.795-.836.616-2.009.616m0-1.327q1.033 0 1.615-1.01.587-1.008.587-2.918 0-1.267-.269-2.143-.263-.879-.76-1.332a1.66 1.66 0 0 0-1.174-.457q-1.029 0-1.615 1.014-.588 1.014-.592 2.918 0 1.273.263 2.153.27.875.761 1.327a1.7 1.7 0 0 0 1.183.448m9.355-9.024V378h-1.542v-8.641h-.06l-2.435 1.591v-1.471l2.54-1.661z"/>
                <mask fill="#ffffff" id="cb8f7a43-79a9-4cb9-a167-0663e5998f62">
                    <path d="M2 396h73v46H2z"/>
                </mask>
                <path mask="url(#cb8f7a43-79a9-4cb9-a167-0663e5998f62)" fill="#E9EAEB" d="M75 442v-1H2v2h73z"/>
                <path fill="#181D27" d="M30.842 413.818V424h-1.54v-8.641h-.06l-2.437 1.591v-1.471l2.54-1.661zm6.3 10.351q-1.179-.005-2.014-.621-.836-.617-1.278-1.795-.442-1.179-.442-2.839 0-1.656.442-2.829.447-1.173 1.283-1.79.84-.616 2.008-.616 1.17 0 2.004.621.836.617 1.278 1.79.447 1.168.447 2.824 0 1.665-.442 2.844-.442 1.173-1.278 1.795-.836.616-2.009.616m0-1.327q1.033 0 1.615-1.01.587-1.008.587-2.918 0-1.267-.269-2.143-.263-.879-.76-1.332a1.66 1.66 0 0 0-1.174-.457q-1.029 0-1.615 1.014-.588 1.014-.592 2.918 0 1.273.263 2.153.27.875.761 1.327a1.7 1.7 0 0 0 1.183.448M42.633 424v-1.114l3.445-3.569q.552-.582.91-1.019.362-.442.542-.841.179-.397.179-.845 0-.507-.239-.875a1.57 1.57 0 0 0-.651-.572 2.1 2.1 0 0 0-.93-.203q-.546 0-.955.223-.407.224-.626.632a2 2 0 0 0-.219.954h-1.466q0-.929.427-1.625a2.9 2.9 0 0 1 1.174-1.079q.745-.388 1.695-.388.96 0 1.69.383.736.378 1.149 1.034.412.652.412 1.471 0 .567-.213 1.109-.21.542-.731 1.208-.522.661-1.452 1.606l-2.023 2.118v.075h4.583V424z"/>
                <mask fill="#ffffff" id="188cd5df-4680-45b1-9082-9c62358f864b">
                    <path d="M75 260h168v44H75z"/>
                </mask>
                <path fill="#FAFAFA" d="M75 260h168v44H75z"/>
                <path mask="url(#188cd5df-4680-45b1-9082-9c62358f864b)" fill="#E9EAEB" d="M243 304v-1H75v2h168z"/>
                <path fill="#717680" d="M95.033 277.273V286h-1.407l-4.112-5.945h-.072V286H87.86v-8.727h1.415l4.108 5.949h.076v-5.949zm4.51 8.855q-.96 0-1.663-.422a2.87 2.87 0 0 1-1.09-1.18q-.384-.759-.384-1.773t.383-1.777a2.86 2.86 0 0 1 1.091-1.185q.704-.422 1.662-.422.959 0 1.662.422.703.421 1.087 1.185.388.763.388 1.777t-.388 1.773a2.84 2.84 0 0 1-1.087 1.18q-.703.422-1.662.422m.008-1.236q.52 0 .869-.285.35-.29.52-.776.174-.486.175-1.082 0-.601-.175-1.087a1.7 1.7 0 0 0-.52-.78q-.35-.29-.87-.29-.532 0-.886.29a1.75 1.75 0 0 0-.524.78q-.17.486-.17 1.087 0 .596.17 1.082.175.486.524.776.354.285.887.285m10.061-5.437-2.33 6.545h-1.705l-2.331-6.545h1.645l1.505 4.862h.068l1.508-4.862zm4.027 6.545v-1.142l3.03-2.97q.434-.44.724-.78a3 3 0 0 0 .435-.661q.144-.32.145-.681a1.3 1.3 0 0 0-.188-.708 1.25 1.25 0 0 0-.515-.46 1.7 1.7 0 0 0-.746-.162q-.431 0-.754.179a1.23 1.23 0 0 0-.503.499 1.6 1.6 0 0 0-.175.771h-1.504q0-.831.379-1.445a2.56 2.56 0 0 1 1.044-.95q.669-.337 1.534-.337.878 0 1.543.329.665.327 1.031.899.37.57.371 1.304 0 .489-.188.963-.187.472-.66 1.048a17 17 0 0 1-1.317 1.393l-1.504 1.53v.06h3.801V286zm10.679.166q-1.053 0-1.807-.532-.75-.537-1.155-1.547-.4-1.014-.4-2.442.003-1.428.404-2.429.405-1.006 1.155-1.534.754-.529 1.803-.529t1.802.529q.755.528 1.155 1.534.405 1.005.405 2.429 0 1.432-.405 2.446-.4 1.01-1.155 1.543-.75.532-1.802.532m0-1.334q.818 0 1.291-.805.477-.81.477-2.382 0-1.04-.217-1.747t-.614-1.066a1.34 1.34 0 0 0-.937-.362q-.814 0-1.287.81-.473.805-.477 2.365-.005 1.044.208 1.756.218.711.614 1.073.396.358.942.358m4.778 1.168v-1.142l3.03-2.97q.434-.44.724-.78a3 3 0 0 0 .435-.661q.145-.32.145-.681a1.3 1.3 0 0 0-.188-.708 1.25 1.25 0 0 0-.515-.46 1.7 1.7 0 0 0-.746-.162q-.431 0-.754.179a1.23 1.23 0 0 0-.503.499 1.6 1.6 0 0 0-.175.771h-1.504q0-.831.379-1.445a2.56 2.56 0 0 1 1.044-.95q.669-.337 1.534-.337.878 0 1.543.329.665.327 1.031.899.37.57.371 1.304 0 .489-.188.963-.188.472-.66 1.048a17 17 0 0 1-1.317 1.393l-1.504 1.53v.06h3.801V286zm7.108-1.619v-1.257l3.703-5.851h1.048v1.789h-.639l-2.493 3.951v.068h5.169v1.3zm4.163 1.619v-2.003l.017-.562v-6.162h1.492V286z"/>
                <mask fill="#ffffff" id="fd2189ad-48bd-49e6-9073-9263366587ee">
                    <path d="M75 304h168v46H75z"/>
                </mask>
                <path mask="url(#fd2189ad-48bd-49e6-9073-9263366587ee)" fill="#E9EAEB" d="M243 350v-1H75v2h168z"/>
                <path fill="#414651" d="M89.655 321.818V332h-1.536v-10.182zm3.604 5.648V332h-1.486v-7.636H93.2v1.243h.094q.263-.607.825-.975.567-.368 1.427-.368.78 0 1.367.328.588.323.91.965.323.64.323 1.586V332H96.66v-4.678q0-.83-.433-1.298-.432-.472-1.188-.472-.517 0-.92.224a1.6 1.6 0 0 0-.631.656q-.23.428-.229 1.034m11.38-.413v1.288h-4.514v-1.288zm10.319-5.235V332h-1.412l-5.176-7.467h-.094V332h-1.536v-10.182h1.422l5.18 7.477h.094v-7.477zm5.413 10.336q-1.13 0-1.944-.482a3.27 3.27 0 0 1-1.253-1.367q-.438-.885-.438-2.073 0-1.174.438-2.069a3.4 3.4 0 0 1 1.233-1.397q.795-.502 1.859-.502.647 0 1.253.214t1.089.671q.482.458.76 1.188.279.726.279 1.765v.527h-6.07v-1.113h4.613q0-.587-.238-1.039a1.8 1.8 0 0 0-.672-.721 1.87 1.87 0 0 0-1.004-.264q-.627 0-1.094.308a2.1 2.1 0 0 0-.716.796 2.3 2.3 0 0 0-.248 1.059v.87q0 .765.268 1.302.274.537.761.821a2.26 2.26 0 0 0 1.138.278q.423 0 .771-.119.348-.125.602-.368t.387-.602l1.407.254a2.54 2.54 0 0 1-.606 1.089 2.95 2.95 0 0 1-1.089.721q-.651.253-1.486.253m8.49-7.79v1.193h-4.171v-1.193zm-3.053-1.83h1.487v7.224q0 .432.129.651a.67.67 0 0 0 .333.293q.208.075.453.075.178 0 .313-.025.134-.024.209-.04l.268 1.228a2.9 2.9 0 0 1-.964.159 2.6 2.6 0 0 1-1.094-.208 1.9 1.9 0 0 1-.821-.677q-.312-.456-.313-1.148zm6.353 9.466-2.247-7.636h1.536l1.496 5.608h.075l1.501-5.608h1.536l1.492 5.583h.074l1.487-5.583h1.536L138.405 332h-1.516l-1.551-5.513h-.115L133.672 332zm12.881.154q-1.074 0-1.874-.492a3.3 3.3 0 0 1-1.243-1.377q-.443-.885-.443-2.068 0-1.189.443-2.079a3.3 3.3 0 0 1 1.243-1.382q.8-.492 1.874-.492t1.874.492 1.243 1.382.443 2.079q0 1.183-.443 2.068a3.3 3.3 0 0 1-1.243 1.377q-.8.492-1.874.492m.005-1.248q.696 0 1.153-.368.458-.367.677-.979a3.9 3.9 0 0 0 .223-1.347q0-.731-.223-1.343a2.2 2.2 0 0 0-.677-.989q-.457-.373-1.153-.373-.7 0-1.163.373a2.2 2.2 0 0 0-.681.989 4 4 0 0 0-.219 1.343q0 .735.219 1.347.224.612.681.979.462.369 1.163.368m5.214 1.094v-7.636h1.437v1.213h.079q.21-.616.736-.97a2.1 2.1 0 0 1 1.203-.358 7 7 0 0 1 .632.035v1.422a3 3 0 0 0-.319-.055 3 3 0 0 0-.457-.035q-.526 0-.94.224a1.67 1.67 0 0 0-.884 1.497V332zm6.74-2.59-.01-1.815h.259l3.042-3.231h1.78l-3.47 3.679h-.234zm-1.367 2.59v-10.182h1.487V332zm4.822 0-2.734-3.629 1.024-1.039 3.535 4.668z"/>
                <mask fill="#ffffff" id="b4a48ee7-018c-40d3-a78e-725367e27192">
                    <path d="M75 350h168v46H75z"/>
                </mask>
                <path mask="url(#b4a48ee7-018c-40d3-a78e-725367e27192)" fill="#E9EAEB" d="M243 396v-1H75v2h168z"/>
                <path fill="#414651" d="M96.963 372.909q0 1.63-.596 2.804-.597 1.169-1.636 1.8-1.034.626-2.352.626-1.322 0-2.361-.626-1.035-.632-1.63-1.805-.598-1.173-.598-2.799 0-1.63.597-2.799.597-1.173 1.63-1.8 1.04-.631 2.362-.631 1.318 0 2.352.631 1.04.627 1.636 1.8.596 1.168.596 2.799m-1.521 0q0-1.243-.403-2.093-.398-.855-1.094-1.293a2.84 2.84 0 0 0-1.566-.442 2.85 2.85 0 0 0-1.57.442q-.693.438-1.094 1.293-.398.85-.398 2.093t.398 2.098q.402.85 1.093 1.293.691.437 1.571.437a2.87 2.87 0 0 0 1.566-.437q.696-.443 1.094-1.293.403-.855.403-2.098m8.154 1.924v-4.469h1.492V378h-1.462v-1.322h-.079a2.4 2.4 0 0 1-.845 1.019q-.578.402-1.437.402-.736 0-1.303-.323a2.27 2.27 0 0 1-.885-.969q-.318-.642-.318-1.586v-4.857h1.487v4.678q0 .78.432 1.243.432.462 1.124.462.417 0 .83-.209.417-.208.691-.631.279-.423.273-1.074m7.054-4.469v1.193h-4.171v-1.193zm-3.053-1.83h1.487v7.224q0 .432.129.651a.67.67 0 0 0 .333.293q.209.075.453.075.178 0 .313-.025.134-.024.209-.04l.268 1.228a2.9 2.9 0 0 1-.964.159 2.6 2.6 0 0 1-1.094-.208 1.87 1.87 0 0 1-.82-.677q-.314-.456-.314-1.148zm8.937 4.519v1.288h-4.514v-1.288zm5.198 5.101q-1.074 0-1.875-.492a3.3 3.3 0 0 1-1.243-1.377q-.442-.886-.442-2.068 0-1.189.442-2.079a3.3 3.3 0 0 1 1.243-1.382q.801-.492 1.875-.492t1.874.492 1.243 1.382q.442.89.442 2.079 0 1.183-.442 2.068a3.3 3.3 0 0 1-1.243 1.377q-.801.492-1.874.492m.005-1.248q.696 0 1.153-.368.457-.367.676-.979a3.9 3.9 0 0 0 .224-1.347q0-.731-.224-1.343a2.2 2.2 0 0 0-.676-.989q-.457-.373-1.153-.373-.702 0-1.164.373a2.2 2.2 0 0 0-.681.989 4 4 0 0 0-.219 1.343q0 .735.219 1.347.224.612.681.979.462.368 1.164.368m8.848-6.542v1.193h-4.316v-1.193zM127.453 378v-8.521q0-.717.313-1.189.313-.477.83-.71.517-.24 1.124-.239.447 0 .765.074.318.07.473.13l-.348 1.203q-.105-.03-.269-.07a1.5 1.5 0 0 0-.398-.044q-.541 0-.775.268-.23.268-.229.776V378zm8.809-4.947v1.288h-4.514v-1.288zm10.319-5.235V378h-1.412l-5.176-7.467h-.094V378h-1.536v-10.182h1.422l5.18 7.477h.094v-7.477zm5.413 10.336q-1.13 0-1.944-.482a3.27 3.27 0 0 1-1.253-1.367q-.438-.885-.438-2.073 0-1.174.438-2.069a3.4 3.4 0 0 1 1.233-1.397q.795-.502 1.859-.502.647 0 1.253.214t1.089.671q.482.458.76 1.188.279.726.279 1.765v.527h-6.07v-1.113h4.613q0-.587-.238-1.039a1.8 1.8 0 0 0-.672-.721 1.87 1.87 0 0 0-1.004-.264q-.626 0-1.094.308a2.1 2.1 0 0 0-.716.796 2.3 2.3 0 0 0-.248 1.059v.87q0 .765.268 1.302.274.537.761.821.487.278 1.139.278.422 0 .77-.119.348-.125.602-.368t.387-.602l1.407.254a2.54 2.54 0 0 1-.606 1.089 2.95 2.95 0 0 1-1.089.721q-.651.253-1.486.253m8.49-7.79v1.193h-4.171v-1.193zm-3.053-1.83h1.487v7.224q0 .432.129.651a.67.67 0 0 0 .333.293q.209.075.453.075.178 0 .313-.025.134-.024.209-.04l.268 1.228a2.9 2.9 0 0 1-.964.159 2.6 2.6 0 0 1-1.094-.208 1.9 1.9 0 0 1-.821-.677q-.312-.456-.313-1.148zm6.353 9.466-2.247-7.636h1.536l1.496 5.608h.075l1.501-5.608h1.536l1.492 5.583h.075l1.486-5.583h1.536L170.028 378h-1.516l-1.551-5.513h-.115L165.295 378zm12.881.154q-1.074 0-1.874-.492a3.3 3.3 0 0 1-1.243-1.377q-.443-.886-.443-2.068 0-1.189.443-2.079a3.3 3.3 0 0 1 1.243-1.382q.8-.492 1.874-.492t1.874.492 1.243 1.382.443 2.079q0 1.183-.443 2.068a3.3 3.3 0 0 1-1.243 1.377q-.8.492-1.874.492m.005-1.248q.696 0 1.154-.368a2.16 2.16 0 0 0 .676-.979 3.9 3.9 0 0 0 .223-1.347q0-.731-.223-1.343a2.2 2.2 0 0 0-.676-.989q-.458-.373-1.154-.373-.7 0-1.163.373a2.2 2.2 0 0 0-.681.989 4 4 0 0 0-.219 1.343q0 .735.219 1.347.223.612.681.979.462.368 1.163.368m5.214 1.094v-7.636h1.437v1.213h.079q.21-.616.736-.97a2.1 2.1 0 0 1 1.203-.358 7 7 0 0 1 .632.035v1.422a3 3 0 0 0-.318-.055 3 3 0 0 0-.458-.035 1.94 1.94 0 0 0-.939.224 1.66 1.66 0 0 0-.885 1.497V378zm6.74-2.59-.01-1.815h.259l3.042-3.231h1.78l-3.47 3.679h-.234zm-1.367 2.59v-10.182h1.487V378zm4.823 0-2.735-3.629 1.024-1.039 3.535 4.668z"/>
                <mask fill="#ffffff" id="ed16b927-7552-44a0-bcbd-75b11c57a203">
                    <path d="M75 396h168v46H75z"/>
                </mask>
                <path mask="url(#ed16b927-7552-44a0-bcbd-75b11c57a203)" fill="#E9EAEB" d="M243 442v-1H75v2h168z"/>
                <path fill="#414651" d="M96.963 418.909q0 1.63-.596 2.804-.597 1.169-1.636 1.8-1.034.626-2.352.626-1.322 0-2.361-.626-1.035-.632-1.63-1.805-.598-1.173-.598-2.799 0-1.63.597-2.799.597-1.173 1.63-1.8 1.04-.631 2.362-.631 1.318 0 2.352.631 1.04.627 1.636 1.8.596 1.168.596 2.799m-1.521 0q0-1.243-.403-2.093-.398-.855-1.094-1.293a2.84 2.84 0 0 0-1.566-.442 2.85 2.85 0 0 0-1.57.442q-.693.438-1.094 1.293-.398.85-.398 2.093t.398 2.098q.402.85 1.093 1.293.691.437 1.571.437a2.87 2.87 0 0 0 1.566-.437q.696-.443 1.094-1.293.403-.855.403-2.098m8.154 1.924v-4.469h1.492V424h-1.462v-1.322h-.079a2.4 2.4 0 0 1-.845 1.019q-.578.402-1.437.402-.736 0-1.303-.323a2.27 2.27 0 0 1-.885-.969q-.318-.642-.318-1.586v-4.857h1.487v4.678q0 .78.432 1.243.432.462 1.124.462.417 0 .83-.209.417-.208.691-.631.279-.423.273-1.074m7.054-4.469v1.193h-4.171v-1.193zm-3.053-1.83h1.487v7.224q0 .432.129.651a.67.67 0 0 0 .333.293q.209.075.453.075.178 0 .313-.025.134-.024.209-.04l.268 1.228a2.9 2.9 0 0 1-.964.159 2.6 2.6 0 0 1-1.094-.208 1.87 1.87 0 0 1-.82-.677q-.314-.456-.314-1.148zm8.937 4.519v1.288h-4.514v-1.288zm5.198 5.101q-1.074 0-1.875-.492a3.3 3.3 0 0 1-1.243-1.377q-.442-.886-.442-2.068 0-1.189.442-2.079a3.3 3.3 0 0 1 1.243-1.382q.801-.492 1.875-.492t1.874.492 1.243 1.382q.442.89.442 2.079 0 1.183-.442 2.068a3.3 3.3 0 0 1-1.243 1.377q-.801.492-1.874.492m.005-1.248q.696 0 1.153-.368.457-.367.676-.979a3.9 3.9 0 0 0 .224-1.347q0-.731-.224-1.343a2.2 2.2 0 0 0-.676-.989q-.457-.373-1.153-.373-.702 0-1.164.373a2.2 2.2 0 0 0-.681.989 4 4 0 0 0-.219 1.343q0 .735.219 1.347.224.612.681.979.462.368 1.164.368m8.848-6.542v1.193h-4.316v-1.193zM127.453 424v-8.521q0-.717.313-1.189.313-.477.83-.71.517-.24 1.124-.239.447 0 .765.074.318.07.473.13l-.348 1.203q-.105-.03-.269-.07a1.5 1.5 0 0 0-.398-.044q-.541 0-.775.268-.23.268-.229.776V424zm8.809-4.947v1.288h-4.514v-1.288zm10.319-5.235V424h-1.412l-5.176-7.467h-.094V424h-1.536v-10.182h1.422l5.18 7.477h.094v-7.477zm5.413 10.336q-1.13 0-1.944-.482a3.27 3.27 0 0 1-1.253-1.367q-.438-.885-.438-2.073 0-1.174.438-2.069a3.4 3.4 0 0 1 1.233-1.397q.795-.502 1.859-.502.647 0 1.253.214t1.089.671q.482.458.76 1.188.279.726.279 1.765v.527h-6.07v-1.113h4.613q0-.587-.238-1.039a1.8 1.8 0 0 0-.672-.721 1.87 1.87 0 0 0-1.004-.264q-.626 0-1.094.308a2.1 2.1 0 0 0-.716.796 2.3 2.3 0 0 0-.248 1.059v.87q0 .765.268 1.302.274.537.761.821.487.278 1.139.278.422 0 .77-.119.348-.125.602-.368t.387-.602l1.407.254a2.54 2.54 0 0 1-.606 1.089 2.95 2.95 0 0 1-1.089.721q-.651.253-1.486.253m8.49-7.79v1.193h-4.171v-1.193zm-3.053-1.83h1.487v7.224q0 .432.129.651a.67.67 0 0 0 .333.293q.209.075.453.075.178 0 .313-.025.134-.024.209-.04l.268 1.228a2.9 2.9 0 0 1-.964.159 2.6 2.6 0 0 1-1.094-.208 1.9 1.9 0 0 1-.821-.677q-.312-.456-.313-1.148zm6.353 9.466-2.247-7.636h1.536l1.496 5.608h.075l1.501-5.608h1.536l1.492 5.583h.075l1.486-5.583h1.536L170.028 424h-1.516l-1.551-5.513h-.115L165.295 424zm12.881.154q-1.074 0-1.874-.492a3.3 3.3 0 0 1-1.243-1.377q-.443-.886-.443-2.068 0-1.189.443-2.079a3.3 3.3 0 0 1 1.243-1.382q.8-.492 1.874-.492t1.874.492 1.243 1.382.443 2.079q0 1.183-.443 2.068a3.3 3.3 0 0 1-1.243 1.377q-.8.492-1.874.492m.005-1.248q.696 0 1.154-.368a2.16 2.16 0 0 0 .676-.979 3.9 3.9 0 0 0 .223-1.347q0-.731-.223-1.343a2.2 2.2 0 0 0-.676-.989q-.458-.373-1.154-.373-.7 0-1.163.373a2.2 2.2 0 0 0-.681.989 4 4 0 0 0-.219 1.343q0 .735.219 1.347.223.612.681.979.462.368 1.163.368m5.214 1.094v-7.636h1.437v1.213h.079q.21-.616.736-.97a2.1 2.1 0 0 1 1.203-.358 7 7 0 0 1 .632.035v1.422a3 3 0 0 0-.318-.055 3 3 0 0 0-.458-.035 1.94 1.94 0 0 0-.939.224 1.66 1.66 0 0 0-.885 1.497V424zm6.74-2.59-.01-1.815h.259l3.042-3.231h1.78l-3.47 3.679h-.234zm-1.367 2.59v-10.182h1.487V424zm4.823 0-2.735-3.629 1.024-1.039 3.535 4.668z"/>
                <mask fill="#ffffff" id="4e02933a-3445-4f3a-9d12-aaa8d3cc9f9e">
                    <path d="M243 260h168v44H243z"/>
                </mask>
                <path fill="#FAFAFA" d="M243 260h168v44H243z"/>
                <path mask="url(#4e02933a-3445-4f3a-9d12-aaa8d3cc9f9e)" fill="#E9EAEB" d="M411 304v-1H243v2h168z"/>
                <path fill="#717680" d="M255.861 286v-8.727h5.591v1.325h-4.01v2.369h3.626v1.326h-3.626V286zm9.38.128q-.984 0-1.7-.409a2.77 2.77 0 0 1-1.095-1.168q-.384-.759-.384-1.785 0-1.011.384-1.773a2.9 2.9 0 0 1 1.082-1.193q.695-.43 1.632-.431.605 0 1.142.196.541.192.955.597.417.405.656 1.031.239.622.239 1.483v.473h-5.365v-1.04h3.886a1.66 1.66 0 0 0-.192-.788 1.4 1.4 0 0 0-.524-.55 1.5 1.5 0 0 0-.776-.2q-.472 0-.831.23a1.6 1.6 0 0 0-.558.597q-.195.366-.2.805v.908q0 .57.209.98.209.405.584.622.375.213.877.213.337 0 .61-.094.272-.098.473-.285t.302-.465l1.441.162a2.24 2.24 0 0 1-.52.997q-.38.422-.972.657a3.7 3.7 0 0 1-1.355.23m4.284-.128v-8.727h1.542v3.264h.064q.12-.238.337-.507a1.8 1.8 0 0 1 .588-.465q.371-.195.946-.196.759 0 1.368.388.613.384.972 1.138.362.75.362 1.841 0 1.078-.354 1.832-.354.755-.963 1.151a2.5 2.5 0 0 1-1.381.396q-.562 0-.933-.187a1.9 1.9 0 0 1-.596-.452 3 3 0 0 1-.346-.507h-.089V286zm1.513-3.273q0 .635.179 1.112.183.478.524.746.345.264.835.264.511 0 .857-.272.345-.277.519-.755.18-.481.179-1.095a3.1 3.1 0 0 0-.174-1.082 1.63 1.63 0 0 0-.52-.742q-.345-.268-.861-.268-.495 0-.839.26a1.6 1.6 0 0 0-.525.729q-.174.468-.174 1.103m8.937 3.273v-1.142l3.03-2.97q.434-.44.724-.78a3 3 0 0 0 .435-.661q.144-.32.145-.681a1.3 1.3 0 0 0-.188-.708 1.25 1.25 0 0 0-.516-.46 1.66 1.66 0 0 0-.745-.162q-.43 0-.755.179a1.24 1.24 0 0 0-.502.499 1.6 1.6 0 0 0-.175.771h-1.504q0-.831.379-1.445a2.56 2.56 0 0 1 1.044-.95q.669-.337 1.534-.337.877 0 1.543.329.665.327 1.031.899.37.57.371 1.304 0 .489-.188.963-.187.472-.66 1.048a17 17 0 0 1-1.317 1.393l-1.504 1.53v.06h3.801V286zm10.679.166q-1.053 0-1.807-.532-.75-.537-1.155-1.547-.4-1.014-.4-2.442.003-1.428.404-2.429.405-1.006 1.155-1.534.755-.529 1.803-.529t1.802.529 1.155 1.534q.405 1.005.405 2.429 0 1.432-.405 2.446-.4 1.01-1.155 1.543-.75.532-1.802.532m0-1.334q.818 0 1.291-.805.477-.81.477-2.382 0-1.04-.217-1.747-.218-.708-.614-1.066a1.34 1.34 0 0 0-.937-.362q-.814 0-1.287.81-.474.805-.477 2.365-.005 1.044.208 1.756.218.711.614 1.073.396.358.942.358m4.778 1.168v-1.142l3.03-2.97q.434-.44.724-.78a3 3 0 0 0 .435-.661q.144-.32.145-.681a1.3 1.3 0 0 0-.188-.708 1.25 1.25 0 0 0-.516-.46 1.66 1.66 0 0 0-.745-.162q-.43 0-.755.179a1.24 1.24 0 0 0-.502.499 1.6 1.6 0 0 0-.175.771h-1.504q0-.831.379-1.445a2.56 2.56 0 0 1 1.044-.95q.669-.337 1.534-.337.878 0 1.543.329.665.327 1.031.899.37.57.371 1.304 0 .489-.188.963-.187.472-.66 1.048a17 17 0 0 1-1.317 1.393l-1.504 1.53v.06h3.801V286zm10.487.119q-.852 0-1.526-.319a2.7 2.7 0 0 1-1.069-.887 2.35 2.35 0 0 1-.418-1.287h1.534q.043.537.465.878.422.337 1.014.337.464 0 .827-.213.362-.214.571-.592.208-.38.204-.866a1.73 1.73 0 0 0-.209-.877 1.56 1.56 0 0 0-.583-.601 1.63 1.63 0 0 0-.853-.222 2 2 0 0 0-.771.145q-.38.149-.601.392l-1.427-.234.456-4.5h5.062v1.321h-3.754l-.252 2.314h.052q.243-.286.686-.473.443-.192.971-.192.793 0 1.415.375.623.37.98 1.023.358.651.358 1.491 0 .865-.4 1.543a2.85 2.85 0 0 1-1.104 1.061q-.703.383-1.628.383"/>
                <mask fill="#ffffff" id="e90cc841-078b-4e1c-937f-2c4167760a41">
                    <path d="M243 304h168v46H243z"/>
                </mask>
                <path mask="url(#e90cc841-078b-4e1c-937f-2c4167760a41)" fill="#E9EAEB" d="M411 350v-1H243v2h168z"/>
                <path fill="#414651" d="M257.655 321.818V332h-1.536v-10.182zm3.604 5.648V332h-1.486v-7.636h1.427v1.243h.094q.264-.607.825-.975.567-.368 1.427-.368.781 0 1.367.328.587.323.91.965.323.64.323 1.586V332h-1.486v-4.678q0-.83-.433-1.298-.432-.472-1.188-.472-.517 0-.92.224a1.6 1.6 0 0 0-.631.656q-.23.428-.229 1.034m11.38-.413v1.288h-4.514v-1.288zm10.319-5.235V332h-1.412l-5.176-7.467h-.094V332h-1.536v-10.182h1.422l5.18 7.477h.094v-7.477zm5.413 10.336q-1.13 0-1.944-.482a3.27 3.27 0 0 1-1.253-1.367q-.438-.885-.438-2.073 0-1.174.438-2.069a3.4 3.4 0 0 1 1.233-1.397q.795-.502 1.859-.502.647 0 1.253.214t1.089.671q.482.458.76 1.188.279.726.279 1.765v.527h-6.07v-1.113h4.613q0-.587-.238-1.039a1.8 1.8 0 0 0-.672-.721 1.87 1.87 0 0 0-1.004-.264q-.627 0-1.094.308a2.1 2.1 0 0 0-.716.796 2.3 2.3 0 0 0-.248 1.059v.87q0 .765.268 1.302.274.537.761.821a2.26 2.26 0 0 0 1.138.278q.423 0 .771-.119.348-.125.602-.368.253-.243.387-.602l1.407.254a2.54 2.54 0 0 1-.606 1.089 2.95 2.95 0 0 1-1.089.721q-.651.253-1.486.253m8.49-7.79v1.193h-4.171v-1.193zm-3.053-1.83h1.487v7.224q0 .432.129.651a.67.67 0 0 0 .333.293q.209.075.453.075.178 0 .313-.025.134-.024.209-.04l.268 1.228a2.9 2.9 0 0 1-.964.159 2.6 2.6 0 0 1-1.094-.208 1.9 1.9 0 0 1-.821-.677q-.312-.456-.313-1.148zm6.353 9.466-2.247-7.636h1.536l1.496 5.608h.075l1.501-5.608h1.536l1.492 5.583h.074l1.487-5.583h1.536L306.405 332h-1.516l-1.551-5.513h-.115L301.672 332zm12.881.154q-1.074 0-1.874-.492a3.3 3.3 0 0 1-1.243-1.377q-.443-.885-.443-2.068 0-1.189.443-2.079a3.3 3.3 0 0 1 1.243-1.382q.8-.492 1.874-.492t1.874.492 1.243 1.382.443 2.079q0 1.183-.443 2.068a3.3 3.3 0 0 1-1.243 1.377q-.8.492-1.874.492m.005-1.248q.697 0 1.153-.368.458-.367.677-.979a3.9 3.9 0 0 0 .223-1.347q0-.731-.223-1.343a2.2 2.2 0 0 0-.677-.989q-.457-.373-1.153-.373-.7 0-1.163.373a2.2 2.2 0 0 0-.681.989 4 4 0 0 0-.219 1.343q0 .735.219 1.347.223.612.681.979.462.369 1.163.368m5.214 1.094v-7.636h1.437v1.213h.079q.21-.616.736-.97a2.1 2.1 0 0 1 1.203-.358 7 7 0 0 1 .632.035v1.422a3 3 0 0 0-.319-.055 3 3 0 0 0-.457-.035q-.526 0-.94.224a1.67 1.67 0 0 0-.884 1.497V332zm6.74-2.59-.01-1.815h.259l3.042-3.231h1.78l-3.47 3.679h-.234zm-1.367 2.59v-10.182h1.487V332zm4.822 0-2.734-3.629 1.024-1.039 3.535 4.668z"/>
                <mask fill="#ffffff" id="b1f9bb20-045f-42bd-92de-8623ea24710a">
                    <path d="M243 350h168v46H243z"/>
                </mask>
                <path mask="url(#b1f9bb20-045f-42bd-92de-8623ea24710a)" fill="#E9EAEB" d="M411 396v-1H243v2h168z"/>
                <path fill="#414651" d="M264.963 372.909q0 1.63-.597 2.804-.596 1.169-1.635 1.8-1.034.626-2.352.626-1.322 0-2.361-.626-1.035-.632-1.631-1.805t-.597-2.799q0-1.63.597-2.799.596-1.173 1.631-1.8 1.039-.631 2.361-.631 1.318 0 2.352.631 1.04.627 1.635 1.8.597 1.168.597 2.799m-1.521 0q0-1.243-.403-2.093-.398-.855-1.094-1.293a2.84 2.84 0 0 0-1.566-.442q-.88 0-1.571.442-.69.438-1.094 1.293-.397.85-.397 2.093t.397 2.098q.404.85 1.094 1.293.692.437 1.571.437.876 0 1.566-.437.696-.443 1.094-1.293.403-.855.403-2.098m8.154 1.924v-4.469h1.492V378h-1.462v-1.322h-.079a2.4 2.4 0 0 1-.845 1.019q-.577.402-1.437.402-.736 0-1.303-.323a2.3 2.3 0 0 1-.885-.969q-.318-.642-.318-1.586v-4.857h1.487v4.678q0 .78.432 1.243.432.462 1.124.462.417 0 .83-.209.417-.208.691-.631.279-.423.273-1.074m7.054-4.469v1.193h-4.171v-1.193zm-3.053-1.83h1.487v7.224q0 .432.129.651a.67.67 0 0 0 .333.293q.209.075.453.075.178 0 .313-.025.134-.024.209-.04l.268 1.228a2.9 2.9 0 0 1-.964.159 2.6 2.6 0 0 1-1.094-.208 1.87 1.87 0 0 1-.82-.677q-.314-.456-.314-1.148zm8.937 4.519v1.288h-4.514v-1.288zm5.198 5.101q-1.074 0-1.875-.492a3.3 3.3 0 0 1-1.243-1.377q-.442-.886-.442-2.068 0-1.189.442-2.079a3.3 3.3 0 0 1 1.243-1.382q.801-.492 1.875-.492t1.874.492 1.243 1.382.442 2.079q0 1.183-.442 2.068a3.3 3.3 0 0 1-1.243 1.377q-.801.492-1.874.492m.005-1.248q.696 0 1.153-.368.457-.367.676-.979a3.9 3.9 0 0 0 .224-1.347q0-.731-.224-1.343a2.2 2.2 0 0 0-.676-.989q-.457-.373-1.153-.373-.702 0-1.164.373a2.2 2.2 0 0 0-.681.989 4 4 0 0 0-.219 1.343q0 .735.219 1.347.224.612.681.979.462.368 1.164.368m8.848-6.542v1.193h-4.316v-1.193zM295.453 378v-8.521q0-.717.313-1.189.313-.477.83-.71.517-.24 1.124-.239.447 0 .765.074.318.07.473.13l-.348 1.203q-.105-.03-.269-.07a1.5 1.5 0 0 0-.398-.044q-.541 0-.775.268-.23.268-.229.776V378zm8.809-4.947v1.288h-4.514v-1.288zm10.319-5.235V378h-1.412l-5.176-7.467h-.094V378h-1.536v-10.182h1.422l5.18 7.477h.094v-7.477zm5.413 10.336q-1.13 0-1.944-.482a3.27 3.27 0 0 1-1.253-1.367q-.438-.885-.438-2.073 0-1.174.438-2.069a3.4 3.4 0 0 1 1.233-1.397q.795-.502 1.859-.502.647 0 1.253.214t1.089.671q.482.458.76 1.188.279.726.279 1.765v.527h-6.07v-1.113h4.613q0-.587-.238-1.039a1.8 1.8 0 0 0-.672-.721 1.87 1.87 0 0 0-1.004-.264q-.626 0-1.094.308a2.1 2.1 0 0 0-.716.796 2.3 2.3 0 0 0-.248 1.059v.87q0 .765.268 1.302.274.537.761.821.487.278 1.139.278.422 0 .77-.119.348-.125.602-.368t.387-.602l1.407.254a2.54 2.54 0 0 1-.606 1.089 2.95 2.95 0 0 1-1.089.721q-.652.253-1.486.253m8.49-7.79v1.193h-4.171v-1.193zm-3.053-1.83h1.487v7.224q0 .432.129.651a.67.67 0 0 0 .333.293q.209.075.453.075.178 0 .313-.025.134-.024.209-.04l.268 1.228a2.9 2.9 0 0 1-.964.159 2.6 2.6 0 0 1-1.094-.208 1.9 1.9 0 0 1-.821-.677q-.312-.456-.313-1.148zm6.353 9.466-2.247-7.636h1.536l1.496 5.608h.075l1.501-5.608h1.536l1.492 5.583h.075l1.486-5.583h1.536L338.028 378h-1.516l-1.551-5.513h-.115L333.295 378zm12.881.154q-1.074 0-1.874-.492a3.3 3.3 0 0 1-1.243-1.377q-.443-.886-.443-2.068 0-1.189.443-2.079a3.3 3.3 0 0 1 1.243-1.382q.8-.492 1.874-.492t1.874.492 1.243 1.382.443 2.079q0 1.183-.443 2.068a3.3 3.3 0 0 1-1.243 1.377q-.8.492-1.874.492m.005-1.248q.696 0 1.154-.368a2.16 2.16 0 0 0 .676-.979 3.9 3.9 0 0 0 .223-1.347q0-.731-.223-1.343a2.2 2.2 0 0 0-.676-.989q-.458-.373-1.154-.373-.7 0-1.163.373a2.2 2.2 0 0 0-.681.989 4 4 0 0 0-.219 1.343q0 .735.219 1.347.224.612.681.979.462.368 1.163.368m5.214 1.094v-7.636h1.437v1.213h.079q.21-.616.736-.97a2.1 2.1 0 0 1 1.203-.358 7 7 0 0 1 .632.035v1.422a3 3 0 0 0-.318-.055 3 3 0 0 0-.458-.035 1.94 1.94 0 0 0-.939.224 1.66 1.66 0 0 0-.885 1.497V378zm6.74-2.59-.01-1.815h.259l3.042-3.231h1.78l-3.47 3.679h-.234zm-1.367 2.59v-10.182h1.487V378zm4.823 0-2.735-3.629 1.024-1.039 3.535 4.668z"/>
                <mask fill="#ffffff" id="023b05db-735d-4c29-a8f7-2978cbfc8f0f">
                    <path d="M243 396h168v46H243z"/>
                </mask>
                <path mask="url(#023b05db-735d-4c29-a8f7-2978cbfc8f0f)" fill="#E9EAEB" d="M411 442v-1H243v2h168z"/>
                <path fill="#414651" d="M264.963 418.909q0 1.63-.597 2.804-.596 1.169-1.635 1.8-1.034.626-2.352.626-1.322 0-2.361-.626-1.035-.632-1.631-1.805t-.597-2.799q0-1.63.597-2.799.596-1.173 1.631-1.8 1.039-.631 2.361-.631 1.318 0 2.352.631 1.04.627 1.635 1.8.597 1.168.597 2.799m-1.521 0q0-1.243-.403-2.093-.398-.855-1.094-1.293a2.84 2.84 0 0 0-1.566-.442q-.88 0-1.571.442-.69.438-1.094 1.293-.397.85-.397 2.093t.397 2.098q.404.85 1.094 1.293.692.437 1.571.437.876 0 1.566-.437.696-.443 1.094-1.293.403-.855.403-2.098m8.154 1.924v-4.469h1.492V424h-1.462v-1.322h-.079a2.4 2.4 0 0 1-.845 1.019q-.577.402-1.437.402-.736 0-1.303-.323a2.3 2.3 0 0 1-.885-.969q-.318-.642-.318-1.586v-4.857h1.487v4.678q0 .78.432 1.243.432.462 1.124.462.417 0 .83-.209.417-.208.691-.631.279-.423.273-1.074m7.054-4.469v1.193h-4.171v-1.193zm-3.053-1.83h1.487v7.224q0 .432.129.651a.67.67 0 0 0 .333.293q.209.075.453.075.178 0 .313-.025.134-.024.209-.04l.268 1.228a2.9 2.9 0 0 1-.964.159 2.6 2.6 0 0 1-1.094-.208 1.87 1.87 0 0 1-.82-.677q-.314-.456-.314-1.148zm8.937 4.519v1.288h-4.514v-1.288zm5.198 5.101q-1.074 0-1.875-.492a3.3 3.3 0 0 1-1.243-1.377q-.442-.886-.442-2.068 0-1.189.442-2.079a3.3 3.3 0 0 1 1.243-1.382q.801-.492 1.875-.492t1.874.492 1.243 1.382.442 2.079q0 1.183-.442 2.068a3.3 3.3 0 0 1-1.243 1.377q-.801.492-1.874.492m.005-1.248q.696 0 1.153-.368.457-.367.676-.979a3.9 3.9 0 0 0 .224-1.347q0-.731-.224-1.343a2.2 2.2 0 0 0-.676-.989q-.457-.373-1.153-.373-.702 0-1.164.373a2.2 2.2 0 0 0-.681.989 4 4 0 0 0-.219 1.343q0 .735.219 1.347.224.612.681.979.462.368 1.164.368m8.848-6.542v1.193h-4.316v-1.193zM295.453 424v-8.521q0-.717.313-1.189.313-.477.83-.71.517-.24 1.124-.239.447 0 .765.074.318.07.473.13l-.348 1.203q-.105-.03-.269-.07a1.5 1.5 0 0 0-.398-.044q-.541 0-.775.268-.23.268-.229.776V424zm8.809-4.947v1.288h-4.514v-1.288zm10.319-5.235V424h-1.412l-5.176-7.467h-.094V424h-1.536v-10.182h1.422l5.18 7.477h.094v-7.477zm5.413 10.336q-1.13 0-1.944-.482a3.27 3.27 0 0 1-1.253-1.367q-.438-.885-.438-2.073 0-1.174.438-2.069a3.4 3.4 0 0 1 1.233-1.397q.795-.502 1.859-.502.647 0 1.253.214t1.089.671q.482.458.76 1.188.279.726.279 1.765v.527h-6.07v-1.113h4.613q0-.587-.238-1.039a1.8 1.8 0 0 0-.672-.721 1.87 1.87 0 0 0-1.004-.264q-.626 0-1.094.308a2.1 2.1 0 0 0-.716.796 2.3 2.3 0 0 0-.248 1.059v.87q0 .765.268 1.302.274.537.761.821.487.278 1.139.278.422 0 .77-.119.348-.125.602-.368t.387-.602l1.407.254a2.54 2.54 0 0 1-.606 1.089 2.95 2.95 0 0 1-1.089.721q-.652.253-1.486.253m8.49-7.79v1.193h-4.171v-1.193zm-3.053-1.83h1.487v7.224q0 .432.129.651a.67.67 0 0 0 .333.293q.209.075.453.075.178 0 .313-.025.134-.024.209-.04l.268 1.228a2.9 2.9 0 0 1-.964.159 2.6 2.6 0 0 1-1.094-.208 1.9 1.9 0 0 1-.821-.677q-.312-.456-.313-1.148zm6.353 9.466-2.247-7.636h1.536l1.496 5.608h.075l1.501-5.608h1.536l1.492 5.583h.075l1.486-5.583h1.536L338.028 424h-1.516l-1.551-5.513h-.115L333.295 424zm12.881.154q-1.074 0-1.874-.492a3.3 3.3 0 0 1-1.243-1.377q-.443-.886-.443-2.068 0-1.189.443-2.079a3.3 3.3 0 0 1 1.243-1.382q.8-.492 1.874-.492t1.874.492 1.243 1.382.443 2.079q0 1.183-.443 2.068a3.3 3.3 0 0 1-1.243 1.377q-.8.492-1.874.492m.005-1.248q.696 0 1.154-.368a2.16 2.16 0 0 0 .676-.979 3.9 3.9 0 0 0 .223-1.347q0-.731-.223-1.343a2.2 2.2 0 0 0-.676-.989q-.458-.373-1.154-.373-.7 0-1.163.373a2.2 2.2 0 0 0-.681.989 4 4 0 0 0-.219 1.343q0 .735.219 1.347.224.612.681.979.462.368 1.163.368m5.214 1.094v-7.636h1.437v1.213h.079q.21-.616.736-.97a2.1 2.1 0 0 1 1.203-.358 7 7 0 0 1 .632.035v1.422a3 3 0 0 0-.318-.055 3 3 0 0 0-.458-.035 1.94 1.94 0 0 0-.939.224 1.66 1.66 0 0 0-.885 1.497V424zm6.74-2.59-.01-1.815h.259l3.042-3.231h1.78l-3.47 3.679h-.234zm-1.367 2.59v-10.182h1.487V424zm4.823 0-2.735-3.629 1.024-1.039 3.535 4.668z"/>
                <mask fill="#ffffff" id="b790f69e-88b0-4040-9e0e-c94a9e8d8373">
                    <path d="M411 260h168v44H411z"/>
                </mask>
                <path fill="#FAFAFA" d="M411 260h168v44H411z"/>
                <path mask="url(#b790f69e-88b0-4040-9e0e-c94a9e8d8373)" fill="#E9EAEB" d="M579 304v-1H411v2h168z"/>
                <path fill="#717680" d="M423.861 277.273h1.934l2.591 6.324h.103l2.591-6.324h1.934V286h-1.517v-5.996h-.081l-2.412 5.97h-1.133l-2.412-5.983h-.081V286h-1.517zm12.69 8.859q-.622 0-1.121-.221a1.84 1.84 0 0 1-.784-.665q-.285-.44-.285-1.083 0-.553.204-.916.205-.362.559-.579.353-.218.796-.329.448-.114.925-.166.576-.059.933-.106.358-.05.52-.154.166-.106.166-.328v-.025q0-.482-.285-.746-.286-.264-.822-.264-.567 0-.9.247a1.23 1.23 0 0 0-.443.584l-1.44-.205q.17-.597.562-.997.392-.405.959-.605a3.7 3.7 0 0 1 1.253-.205q.473 0 .942.111.469.11.856.367.388.25.622.686.24.434.239 1.086V286h-1.483v-.899h-.051a1.9 1.9 0 0 1-.396.511q-.252.235-.635.379-.38.141-.891.141m.401-1.133q.464 0 .805-.184.34-.187.524-.494.188-.308.188-.669v-.771a.8.8 0 0 1-.247.11 3 3 0 0 1-.384.09q-.213.038-.422.068l-.362.051q-.345.048-.618.154a1 1 0 0 0-.43.298.73.73 0 0 0-.158.486q0 .426.311.643t.793.218m5.331 3.456q-.316 0-.584-.052a2.2 2.2 0 0 1-.422-.11l.358-1.202q.337.098.601.094a.74.74 0 0 0 .464-.167q.205-.158.345-.528l.133-.354-2.374-6.681h1.636l1.509 4.943h.068l1.513-4.943h1.64l-2.62 7.338a2.9 2.9 0 0 1-.486.89q-.303.375-.742.571-.434.201-1.039.201m8.914-2.455v-1.142l3.03-2.97q.435-.44.725-.78t.434-.661q.145-.32.145-.681 0-.414-.187-.708a1.25 1.25 0 0 0-.516-.46 1.7 1.7 0 0 0-.746-.162q-.43 0-.754.179a1.24 1.24 0 0 0-.503.499 1.6 1.6 0 0 0-.174.771h-1.505q0-.831.38-1.445.378-.614 1.044-.95.669-.337 1.534-.337.877 0 1.542.329.665.327 1.032.899.37.57.37 1.304 0 .489-.187.963-.187.472-.661 1.048-.468.576-1.316 1.393l-1.505 1.53v.06h3.801V286zm10.679.166q-1.052 0-1.806-.532-.75-.537-1.155-1.547-.4-1.014-.401-2.442.004-1.428.405-2.429.405-1.006 1.155-1.534.755-.529 1.802-.529t1.803.529q.754.528 1.155 1.534.405 1.005.405 2.429 0 1.432-.405 2.446-.4 1.01-1.155 1.543-.75.532-1.803.532m0-1.334q.819 0 1.292-.805.477-.81.477-2.382 0-1.04-.217-1.747-.218-.708-.614-1.066a1.35 1.35 0 0 0-.938-.362q-.813 0-1.287.81-.472.805-.477 2.365-.004 1.044.209 1.756.217.711.614 1.073.396.358.941.358m4.778 1.168v-1.142l3.03-2.97q.435-.44.725-.78t.434-.661q.145-.32.145-.681 0-.414-.187-.708a1.25 1.25 0 0 0-.516-.46 1.7 1.7 0 0 0-.746-.162q-.43 0-.754.179a1.24 1.24 0 0 0-.503.499 1.6 1.6 0 0 0-.174.771h-1.505q0-.831.38-1.445.378-.614 1.044-.95.669-.337 1.534-.337.877 0 1.542.329.665.327 1.032.899.37.57.37 1.304 0 .489-.187.963-.187.472-.661 1.048-.468.576-1.316 1.393l-1.505 1.53v.06h3.801V286zm10.488.119q-.852 0-1.526-.319a2.7 2.7 0 0 1-1.069-.887 2.34 2.34 0 0 1-.418-1.287h1.534q.042.537.464.878.423.337 1.015.337.464 0 .826-.213.363-.214.571-.592.21-.38.205-.866a1.74 1.74 0 0 0-.209-.877 1.56 1.56 0 0 0-.584-.601 1.6 1.6 0 0 0-.852-.222 2 2 0 0 0-.771.145q-.38.149-.601.392l-1.428-.234.456-4.5h5.063v1.321h-3.754l-.252 2.314h.051q.243-.286.686-.473.444-.192.972-.192.792 0 1.415.375.621.37.98 1.023.358.651.358 1.491 0 .865-.401 1.543a2.84 2.84 0 0 1-1.103 1.061q-.704.383-1.628.383"/>
                <mask fill="#ffffff" id="65693d20-29aa-4367-9635-02417d473890">
                    <path d="M411 304h168v46H411z"/>
                </mask>
                <path mask="url(#65693d20-29aa-4367-9635-02417d473890)" fill="#E9EAEB" d="M579 350v-1H411v2h168z"/>
                <path fill="#FEF3F2" d="M434 316.5h86c5.799 0 10.5 4.701 10.5 10.5s-4.701 10.5-10.5 10.5h-86c-5.799 0-10.5-4.701-10.5-10.5s4.701-10.5 10.5-10.5"/>
                <path stroke="#FECDCA" d="M434 316.5h86c5.799 0 10.5 4.701 10.5 10.5s-4.701 10.5-10.5 10.5h-86c-5.799 0-10.5-4.701-10.5-10.5s4.701-10.5 10.5-10.5Z" fill="none"/>
                <path fill="#B42318" d="M439.661 326.636q0 1.398-.511 2.404-.512 1.001-1.402 1.542-.887.537-2.016.537-1.134 0-2.024-.537-.887-.54-1.398-1.546t-.511-2.4q0-1.397.511-2.399.512-1.005 1.398-1.542.89-.542 2.024-.542 1.13 0 2.016.542.89.537 1.402 1.542.51 1.002.511 2.399m-1.304 0q0-1.065-.345-1.794-.342-.732-.938-1.108a2.44 2.44 0 0 0-1.342-.379q-.754 0-1.347.379-.592.376-.937 1.108-.34.729-.341 1.794 0 1.066.341 1.799.345.728.937 1.108.592.375 1.347.375.75 0 1.342-.375.596-.38.938-1.108.345-.733.345-1.799m6.99 1.65v-3.831h1.278V331h-1.253v-1.134h-.068q-.226.525-.724.874-.495.345-1.232.345-.63 0-1.116-.277a1.94 1.94 0 0 1-.759-.831q-.273-.549-.273-1.359v-4.163h1.274v4.009q0 .67.371 1.066.37.396.963.396.358 0 .712-.179.358-.179.592-.541.238-.362.235-.92m6.045-3.831v1.022h-3.575v-1.022zm-2.616-1.569h1.274v6.192q0 .37.111.558a.58.58 0 0 0 .285.252q.18.063.388.064.153 0 .269-.022l.179-.034.23 1.053a2.5 2.5 0 0 1-.827.136 2.2 2.2 0 0 1-.937-.179 1.6 1.6 0 0 1-.704-.579q-.268-.393-.268-.985zm7.66 3.874v1.104h-3.87v-1.104zm4.455 4.372q-.92 0-1.607-.422a2.84 2.84 0 0 1-1.065-1.18q-.38-.759-.379-1.773 0-1.019.379-1.781a2.84 2.84 0 0 1 1.065-1.185q.687-.422 1.607-.422t1.607.422q.685.421 1.065 1.185.38.762.379 1.781 0 1.014-.379 1.773a2.84 2.84 0 0 1-1.065 1.18q-.687.422-1.607.422m.004-1.07q.597 0 .989-.315t.579-.839a3.3 3.3 0 0 0 .192-1.155q0-.627-.192-1.151a1.9 1.9 0 0 0-.579-.848q-.392-.32-.989-.319-.6 0-.997.319a1.9 1.9 0 0 0-.584.848q-.187.524-.187 1.151 0 .63.187 1.155.192.524.584.839.397.315.997.315m7.584-5.607v1.022h-3.698v-1.022zM465.795 331v-7.304q0-.614.268-1.018.268-.41.712-.61.442-.204.963-.204.383 0 .656.064.273.059.405.11l-.298 1.032-.23-.06a1.3 1.3 0 0 0-.341-.038q-.465 0-.665.23-.196.23-.196.664V331zm7.551-4.24v1.104h-3.869v-1.104zm8.844-4.487V331h-1.21l-4.436-6.401h-.081V331h-1.317v-8.727h1.219l4.44 6.409h.081v-6.409zm4.64 8.859q-.967 0-1.666-.413a2.8 2.8 0 0 1-1.074-1.172q-.375-.759-.375-1.777 0-1.006.375-1.773.38-.767 1.057-1.197.681-.43 1.593-.431.555 0 1.074.184.52.183.934.575.412.392.652 1.018.238.622.238 1.513v.452h-5.203v-.955h3.955q0-.503-.205-.89a1.54 1.54 0 0 0-.575-.618 1.6 1.6 0 0 0-.861-.226q-.537 0-.938.264a1.8 1.8 0 0 0-.613.682 2 2 0 0 0-.213.908v.745q0 .657.23 1.117.234.46.652.703.418.239.976.239.361 0 .66-.103a1.36 1.36 0 0 0 .848-.831l1.206.218q-.144.532-.52.933-.37.396-.933.618a3.5 3.5 0 0 1-1.274.217m7.277-6.677v1.022h-3.575v-1.022zm-2.616-1.569h1.274v6.192q0 .37.111.558a.58.58 0 0 0 .285.252q.18.063.388.064.154 0 .268-.022l.179-.034.231 1.053a2.5 2.5 0 0 1-.827.136 2.2 2.2 0 0 1-.938-.179 1.6 1.6 0 0 1-.703-.579q-.268-.393-.268-.985zm5.445 8.114-1.926-6.545h1.316l1.283 4.806h.064l1.287-4.806h1.317l1.278 4.785h.064l1.274-4.785h1.317L502.288 331h-1.3l-1.329-4.726h-.098l-1.33 4.726zm11.041.132q-.92 0-1.607-.422a2.84 2.84 0 0 1-1.065-1.18q-.38-.759-.379-1.773 0-1.019.379-1.781a2.84 2.84 0 0 1 1.065-1.185q.687-.422 1.607-.422t1.606.422 1.066 1.185.379 1.781q0 1.014-.379 1.773a2.84 2.84 0 0 1-1.066 1.18q-.685.422-1.606.422m.004-1.07q.596 0 .989-.315.392-.315.579-.839a3.3 3.3 0 0 0 .192-1.155q0-.627-.192-1.151a1.9 1.9 0 0 0-.579-.848q-.392-.32-.989-.319-.6 0-.997.319a1.9 1.9 0 0 0-.584.848q-.187.524-.187 1.151 0 .63.187 1.155.192.524.584.839.397.315.997.315m4.469.938v-6.545h1.232v1.039h.068q.179-.528.631-.831a1.8 1.8 0 0 1 1.031-.306 5 5 0 0 1 .541.029v1.219a2 2 0 0 0-.273-.047q-.195-.03-.392-.03a1.66 1.66 0 0 0-.805.192 1.43 1.43 0 0 0-.759 1.283V331zm5.778-2.22-.009-1.556h.222l2.608-2.769h1.525l-2.974 3.153h-.2zm-1.172 2.22v-8.727h1.274V331zm4.133 0-2.343-3.111.877-.89 3.03 4.001z"/>
                <mask fill="#ffffff" id="4877cee0-5414-48f9-9a34-de0e9e4c2083">
                    <path d="M411 350h168v46H411z"/>
                </mask>
                <path mask="url(#4877cee0-5414-48f9-9a34-de0e9e4c2083)" fill="#E9EAEB" d="M579 396v-1H411v2h168z"/>
                <path fill="#FAFAFA" d="M434 362.5h86c5.799 0 10.5 4.701 10.5 10.5s-4.701 10.5-10.5 10.5h-86c-5.799 0-10.5-4.701-10.5-10.5s4.701-10.5 10.5-10.5"/>
                <path stroke="#E9EAEB" d="M434 362.5h86c5.799 0 10.5 4.701 10.5 10.5s-4.701 10.5-10.5 10.5h-86c-5.799 0-10.5-4.701-10.5-10.5s4.701-10.5 10.5-10.5Z" fill="none"/>
                <path fill="#414651" d="M439.661 372.636q0 1.398-.511 2.404-.512 1.001-1.402 1.542-.887.537-2.016.537-1.134 0-2.024-.537-.887-.54-1.398-1.546t-.511-2.4q0-1.397.511-2.399.512-1.005 1.398-1.542.89-.542 2.024-.542 1.13 0 2.016.542.89.537 1.402 1.542.51 1.002.511 2.399m-1.304 0q0-1.065-.345-1.794-.342-.732-.938-1.108a2.44 2.44 0 0 0-1.342-.379q-.754 0-1.347.379-.592.376-.937 1.108-.34.729-.341 1.794 0 1.066.341 1.799.345.728.937 1.108.592.375 1.347.375.75 0 1.342-.375.596-.38.938-1.108.345-.733.345-1.799m6.99 1.65v-3.831h1.278V377h-1.253v-1.134h-.068q-.226.525-.724.874-.495.345-1.232.345-.63 0-1.116-.277a1.94 1.94 0 0 1-.759-.831q-.273-.549-.273-1.359v-4.163h1.274v4.009q0 .67.371 1.066.37.396.963.396.358 0 .712-.179.358-.179.592-.541.238-.362.235-.92m6.045-3.831v1.022h-3.575v-1.022zm-2.616-1.569h1.274v6.192q0 .37.111.558a.58.58 0 0 0 .285.252q.18.064.388.064.153 0 .269-.022l.179-.034.23 1.053a2.5 2.5 0 0 1-.827.136 2.2 2.2 0 0 1-.937-.179 1.6 1.6 0 0 1-.704-.579q-.268-.393-.268-.985zm7.66 3.874v1.104h-3.87v-1.104zm4.455 4.372q-.92 0-1.607-.422a2.84 2.84 0 0 1-1.065-1.18q-.38-.759-.379-1.773 0-1.019.379-1.781a2.84 2.84 0 0 1 1.065-1.185q.687-.422 1.607-.422t1.607.422q.685.421 1.065 1.185.38.762.379 1.781 0 1.014-.379 1.773a2.84 2.84 0 0 1-1.065 1.18q-.687.422-1.607.422m.004-1.07q.597 0 .989-.315t.579-.839a3.3 3.3 0 0 0 .192-1.155q0-.627-.192-1.151a1.9 1.9 0 0 0-.579-.848q-.392-.32-.989-.319-.6 0-.997.319a1.9 1.9 0 0 0-.584.848q-.187.524-.187 1.151 0 .63.187 1.155.192.524.584.839.397.315.997.315m7.584-5.607v1.022h-3.698v-1.022zM465.795 377v-7.304q0-.614.268-1.018.268-.41.712-.61.442-.204.963-.204.383 0 .656.064.273.059.405.11l-.298 1.032-.23-.06a1.3 1.3 0 0 0-.341-.038q-.465 0-.665.23-.196.23-.196.664V377zm7.551-4.24v1.104h-3.869v-1.104zm8.844-4.487V377h-1.21l-4.436-6.401h-.081V377h-1.317v-8.727h1.219l4.44 6.409h.081v-6.409zm4.64 8.859q-.967 0-1.666-.413a2.8 2.8 0 0 1-1.074-1.172q-.375-.759-.375-1.777 0-1.006.375-1.773.38-.767 1.057-1.197.681-.43 1.593-.431.555 0 1.074.184.52.183.934.575.412.392.652 1.018.238.622.238 1.513v.452h-5.203v-.955h3.955q0-.503-.205-.89a1.54 1.54 0 0 0-.575-.618 1.6 1.6 0 0 0-.861-.226q-.537 0-.938.264a1.8 1.8 0 0 0-.613.682 2 2 0 0 0-.213.908v.745q0 .657.23 1.117.234.46.652.703.418.239.976.239.361 0 .66-.103a1.36 1.36 0 0 0 .848-.831l1.206.218q-.144.532-.52.933-.37.396-.933.618a3.5 3.5 0 0 1-1.274.217m7.277-6.677v1.022h-3.575v-1.022zm-2.616-1.569h1.274v6.192q0 .37.111.558a.58.58 0 0 0 .285.252q.18.064.388.064.154 0 .268-.022l.179-.034.231 1.053a2.5 2.5 0 0 1-.827.136 2.2 2.2 0 0 1-.938-.179 1.6 1.6 0 0 1-.703-.579q-.268-.393-.268-.985zm5.445 8.114-1.926-6.545h1.316l1.283 4.806h.064l1.287-4.806h1.317l1.278 4.785h.064l1.274-4.785h1.317L502.288 377h-1.3l-1.329-4.726h-.098l-1.33 4.726zm11.041.132q-.92 0-1.607-.422a2.84 2.84 0 0 1-1.065-1.18q-.38-.759-.379-1.773 0-1.019.379-1.781a2.84 2.84 0 0 1 1.065-1.185q.687-.422 1.607-.422t1.606.422 1.066 1.185.379 1.781q0 1.014-.379 1.773a2.84 2.84 0 0 1-1.066 1.18q-.685.422-1.606.422m.004-1.07q.596 0 .989-.315.392-.315.579-.839a3.3 3.3 0 0 0 .192-1.155q0-.627-.192-1.151a1.9 1.9 0 0 0-.579-.848q-.392-.32-.989-.319-.6 0-.997.319a1.9 1.9 0 0 0-.584.848q-.187.524-.187 1.151 0 .63.187 1.155.192.524.584.839.397.315.997.315m4.469.938v-6.545h1.232v1.039h.068q.179-.528.631-.831a1.8 1.8 0 0 1 1.031-.306 5 5 0 0 1 .541.029v1.219a2 2 0 0 0-.273-.047q-.195-.03-.392-.03a1.66 1.66 0 0 0-.805.192 1.43 1.43 0 0 0-.759 1.283V377zm5.778-2.22-.009-1.556h.222l2.608-2.769h1.525l-2.974 3.153h-.2zm-1.172 2.22v-8.727h1.274V377zm4.133 0-2.343-3.111.877-.89 3.03 4.001z"/>
                <mask fill="#ffffff" id="57aba404-765f-41b7-8de7-4d091b562a27">
                    <path d="M411 396h168v46H411z"/>
                </mask>
                <path mask="url(#57aba404-765f-41b7-8de7-4d091b562a27)" fill="#E9EAEB" d="M579 442v-1H411v2h168z"/>
                <path fill="#EFF8FF" d="M434 408.5h59c5.799 0 10.5 4.701 10.5 10.5s-4.701 10.5-10.5 10.5h-59c-5.799 0-10.5-4.701-10.5-10.5s4.701-10.5 10.5-10.5"/>
                <path stroke="#B2DDFF" d="M434 408.5h59c5.799 0 10.5 4.701 10.5 10.5s-4.701 10.5-10.5 10.5h-59c-5.799 0-10.5-4.701-10.5-10.5s4.701-10.5 10.5-10.5Z" fill="none"/>
                <path fill="#175CD3" d="M433.449 414.273V423h-1.316v-8.727zm3.09 4.841V423h-1.274v-6.545h1.223v1.065h.081q.225-.52.707-.835.486-.316 1.223-.316.67 0 1.172.282.502.276.78.826.276.55.277 1.36V423h-1.274v-4.01q0-.711-.371-1.112-.37-.405-1.019-.405-.443 0-.788.192a1.4 1.4 0 0 0-.541.562q-.196.367-.196.887m9.754-.354v1.104h-3.869v-1.104zm8.845-4.487V423h-1.211l-4.436-6.401h-.081V423h-1.316v-8.727h1.218l4.441 6.409h.081v-6.409zm4.639 8.859q-.967 0-1.666-.413a2.8 2.8 0 0 1-1.074-1.172q-.375-.759-.375-1.777 0-1.006.375-1.773.38-.767 1.057-1.197.681-.43 1.594-.431.553 0 1.074.184.519.183.933.575.413.392.652 1.018.238.622.238 1.513v.452h-5.203v-.955h3.955a1.9 1.9 0 0 0-.205-.89 1.54 1.54 0 0 0-.575-.618 1.6 1.6 0 0 0-.861-.226q-.537 0-.937.264a1.77 1.77 0 0 0-.614.682 2 2 0 0 0-.213.908v.745q0 .657.23 1.117.234.46.652.703.418.239.976.239.362 0 .66-.103a1.36 1.36 0 0 0 .848-.831l1.206.218a2.2 2.2 0 0 1-.519.933q-.372.396-.934.618a3.5 3.5 0 0 1-1.274.217m7.278-6.677v1.022h-3.576v-1.022zm-2.617-1.569h1.274v6.192q0 .37.111.558a.58.58 0 0 0 .285.252q.18.064.388.064.154 0 .269-.022l.179-.034.23 1.053a2.5 2.5 0 0 1-.827.136 2.2 2.2 0 0 1-.937-.179 1.6 1.6 0 0 1-.704-.579q-.268-.393-.268-.985zm5.445 8.114-1.926-6.545h1.317l1.282 4.806h.064l1.287-4.806h1.317l1.278 4.785h.064l1.274-4.785h1.317L475.235 423h-1.299l-1.33-4.726h-.098l-1.33 4.726zm11.041.132q-.92 0-1.606-.422a2.84 2.84 0 0 1-1.066-1.18q-.38-.759-.379-1.773 0-1.019.379-1.781a2.83 2.83 0 0 1 1.066-1.185q.686-.422 1.606-.422t1.607.422q.685.421 1.065 1.185.38.762.379 1.781 0 1.014-.379 1.773a2.84 2.84 0 0 1-1.065 1.18q-.686.422-1.607.422m.004-1.07q.597 0 .989-.315t.58-.839q.19-.525.191-1.155 0-.627-.191-1.151a1.9 1.9 0 0 0-.58-.848q-.392-.32-.989-.319-.6 0-.997.319a1.9 1.9 0 0 0-.584.848q-.187.524-.187 1.151 0 .63.187 1.155.192.524.584.839.397.315.997.315m4.47.938v-6.545h1.231v1.039h.068q.18-.528.631-.831a1.8 1.8 0 0 1 1.031-.306 5 5 0 0 1 .541.029v1.219a2 2 0 0 0-.272-.047 3 3 0 0 0-.392-.03q-.452 0-.806.192-.349.188-.554.524a1.4 1.4 0 0 0-.204.759V423zm5.777-2.22-.009-1.556h.222l2.608-2.769h1.525l-2.974 3.153h-.2zm-1.172 2.22v-8.727h1.274V423zm4.134 0-2.344-3.111.878-.89L495.7 423z"/>
            </g>
            <path mask="url(#10bf99ed-14a3-47ce-afa5-892bc0bf59f3)" fill="#E9EAEB" d="M2 260v1h541v-2H2zm541 182v-1H2v2h541z"/>
        </g>
        <defs fill="none">
            <clipPath id="0fd26602-8751-4249-b767-564e395838c3">
                <path fill="#ffffff" d="M222 74v16h-16V74z"/>
            </clipPath>
            <clipPath id="552a98cc-77c8-45cf-9246-b6cd06f411f4">
                <path fill="#ffffff" d="M320 146v16h-16v-16z"/>
            </clipPath>
            <clipPath id="bd6806f1-7089-4954-b4ba-2183ac4016bf">
                <path fill="#ffffff" d="M2 260h541v182H2z"/>
            </clipPath>
            <filter color-interpolation-filters="sRGB" filterUnits="userSpaceOnUse" height="36" width="36" y="65" x="196" id="6bbf1b07-ce8f-462e-991b-70e11e989975">
                <feFlood result="BackgroundImageFix" flood-opacity="0"/>
                <feColorMatrix result="hardAlpha" values="0 0 0 0 0 0 0 0 0 0 0 0 0 0 0 0 0 0 127 0" in="SourceAlpha"/>
                <feOffset dy="1"/>
                <feGaussianBlur stdDeviation="1"/>
                <feComposite operator="out" in2="hardAlpha"/>
                <feColorMatrix values="0 0 0 0 0.0392157 0 0 0 0 0.0496732 0 0 0 0 0.0705882 0 0 0 0.05 0"/>
                <feBlend result="effect1_dropShadow_84_7879" in2="BackgroundImageFix"/>
                <feBlend result="shape" in2="effect1_dropShadow_84_7879" in="SourceGraphic"/>
                <feColorMatrix result="hardAlpha" values="0 0 0 0 0 0 0 0 0 0 0 0 0 0 0 0 0 0 127 0" in="SourceAlpha"/>
                <feOffset dy="-2"/>
                <feComposite k3="1" k2="-1" operator="arithmetic" in2="hardAlpha"/>
                <feColorMatrix values="0 0 0 0 0.0392157 0 0 0 0 0.0496732 0 0 0 0 0.0705882 0 0 0 0.05 0"/>
                <feBlend result="effect2_innerShadow_84_7879" in2="shape"/>
                <feColorMatrix result="hardAlpha" values="0 0 0 0 0 0 0 0 0 0 0 0 0 0 0 0 0 0 127 0" in="SourceAlpha"/>
                <feMorphology result="effect3_innerShadow_84_7879" in="SourceAlpha" radius="1"/>
                <feOffset/>
                <feComposite k3="1" k2="-1" operator="arithmetic" in2="hardAlpha"/>
                <feColorMatrix values="0 0 0 0 0.0392157 0 0 0 0 0.0496732 0 0 0 0 0.0705882 0 0 0 0.18 0"/>
                <feBlend result="effect3_innerShadow_84_7879" in2="effect2_innerShadow_84_7879"/>
            </filter>
            <filter color-interpolation-filters="sRGB" filterUnits="userSpaceOnUse" height="26" width="26" y="142" x="299" id="ca25480c-c2da-40f9-b782-a1894be7c7db">
                <feFlood result="BackgroundImageFix" flood-opacity="0"/>
                <feColorMatrix result="hardAlpha" values="0 0 0 0 0 0 0 0 0 0 0 0 0 0 0 0 0 0 127 0" in="SourceAlpha"/>
                <feOffset dy="1"/>
                <feGaussianBlur stdDeviation="1"/>
                <feComposite operator="out" in2="hardAlpha"/>
                <feColorMatrix values="0 0 0 0 0.0392157 0 0 0 0 0.0496732 0 0 0 0 0.0705882 0 0 0 0.05 0"/>
                <feBlend result="effect1_dropShadow_84_7879" in2="BackgroundImageFix"/>
                <feBlend result="shape" in2="effect1_dropShadow_84_7879" in="SourceGraphic"/>
                <feColorMatrix result="hardAlpha" values="0 0 0 0 0 0 0 0 0 0 0 0 0 0 0 0 0 0 127 0" in="SourceAlpha"/>
                <feOffset dy="-2"/>
                <feComposite k3="1" k2="-1" operator="arithmetic" in2="hardAlpha"/>
                <feColorMatrix values="0 0 0 0 0.0392157 0 0 0 0 0.0496732 0 0 0 0 0.0705882 0 0 0 0.05 0"/>
                <feBlend result="effect2_innerShadow_84_7879" in2="shape"/>
                <feColorMatrix result="hardAlpha" values="0 0 0 0 0 0 0 0 0 0 0 0 0 0 0 0 0 0 127 0" in="SourceAlpha"/>
                <feMorphology result="effect3_innerShadow_84_7879" in="SourceAlpha" radius="1"/>
                <feOffset/>
                <feComposite k3="1" k2="-1" operator="arithmetic" in2="hardAlpha"/>
                <feColorMatrix values="0 0 0 0 0.0392157 0 0 0 0 0.0496732 0 0 0 0 0.0705882 0 0 0 0.18 0"/>
                <feBlend result="effect3_innerShadow_84_7879" in2="effect2_innerShadow_84_7879"/>
            </filter>
            <filter color-interpolation-filters="sRGB" filterUnits="userSpaceOnUse" height="186" width="545" y="259" x="0" id="e5970525-be1c-41a7-9465-feeb5b46886b">
                <feFlood result="BackgroundImageFix" flood-opacity="0"/>
                <feColorMatrix result="hardAlpha" values="0 0 0 0 0 0 0 0 0 0 0 0 0 0 0 0 0 0 127 0" in="SourceAlpha"/>
                <feOffset dy="1"/>
                <feGaussianBlur stdDeviation="1"/>
                <feComposite operator="out" in2="hardAlpha"/>
                <feColorMatrix values="0 0 0 0 0.0392157 0 0 0 0 0.0496732 0 0 0 0 0.0705882 0 0 0 0.05 0"/>
                <feBlend result="effect1_dropShadow_84_7879" in2="BackgroundImageFix"/>
                <feBlend result="shape" in2="effect1_dropShadow_84_7879" in="SourceGraphic"/>
            </filter>
            <linearGradient gradientUnits="userSpaceOnUse" y2="98" x2="214" y1="66" x1="214" id="424fb866-094e-47b3-8819-989589794c25">
                <stop stop-opacity=".12" stop-color="#ffffff"/>
                <stop stop-opacity="0" stop-color="#ffffff" offset="1"/>
            </linearGradient>
            <linearGradient gradientUnits="userSpaceOnUse" y2="165" x2="312" y1="143" x1="312" id="a0fc8a67-3c0e-470d-9450-1cdf4606a0b1">
                <stop stop-opacity=".12" stop-color="#ffffff"/>
                <stop stop-opacity="0" stop-color="#ffffff" offset="1"/>
            </linearGradient>
        </defs>
    </g>
</svg>
