<?xml version="1.0" encoding="UTF-8"?>
<svg data-bbox="0.5 50.5 619 342" xmlns="http://www.w3.org/2000/svg" viewBox="0 0 620 450" height="450" width="620" data-type="ugc">
    <g>
        <path stroke-dasharray="4 8" stroke-width="3" stroke="#A1A3BC" d="M237 227H133" fill="none"/>
        <path stroke-dasharray="4 8" stroke-width="3" stroke="#A1A3BC" d="M480 227H376" fill="none"/>
        <path fill="#F8F9FC" d="M462.5 82c0 17.397-14.103 31.5-31.5 31.5H188c-17.397 0-31.5-14.103-31.5-31.5s14.103-31.5 31.5-31.5h243c17.397 0 31.5 14.103 31.5 31.5"/>
        <path stroke="#D5D9EB" d="M462.5 82c0 17.397-14.103 31.5-31.5 31.5H188c-17.397 0-31.5-14.103-31.5-31.5s14.103-31.5 31.5-31.5h243c17.397 0 31.5 14.103 31.5 31.5z" fill="none"/>
        <g filter="url(#1f3e7aa1-f16c-463f-9714-c9fd82b799f7)">
            <path fill="#0092CA" d="M196 72a6 6 0 0 1 6-6h20a6 6 0 0 1 6 6v20a6 6 0 0 1-6 6h-20a6 6 0 0 1-6-6z"/>
            <path stroke-width="2" stroke="url(#baf6f4ba-5c71-408c-ad41-316dc04bcf3c)" d="M202 67h20a5 5 0 0 1 5 5v20a5 5 0 0 1-5 5h-20a5 5 0 0 1-5-5V72a5 5 0 0 1 5-5Z" fill="none"/>
            <g clip-path="url(#eb29609f-6430-4428-bdf4-32ba23c93c42)">
                <path stroke-linejoin="round" stroke-linecap="round" stroke-width="2" stroke="#ffffff" d="M210.667 85.333a4.666 4.666 0 1 0 0-9.332 4.666 4.666 0 0 0 0 9.332" fill="none"/>
                <path stroke-linejoin="round" stroke-linecap="round" stroke-width="2" stroke="#ffffff" d="m218 88-4-4" fill="none"/>
            </g>
        </g>
        <path fill="#04082B" d="M237.291 89V75.91h8.514v1.987h-6.142v3.554h5.701v1.988h-5.701v3.573h6.194V89zm10.832 0v-9.818h2.211v1.668h.115a2.6 2.6 0 0 1 1.017-1.317q.71-.48 1.693-.479.998 0 1.682.486.69.48.971 1.31h.102q.327-.818 1.1-1.304.78-.492 1.847-.492 1.356 0 2.212.856.856.858.856 2.5V89h-2.32v-6.232q0-.915-.486-1.336-.486-.429-1.189-.428-.837 0-1.31.524-.467.517-.467 1.348V89h-2.269v-6.328q0-.76-.46-1.215-.454-.453-1.189-.453-.498 0-.908.255-.409.25-.652.71a2.2 2.2 0 0 0-.243 1.06V89zm16.154 3.682v-13.5h2.275v1.623h.135q.178-.358.505-.76.326-.41.882-.697.555-.294 1.419-.294 1.137 0 2.052.582.92.575 1.457 1.706.543 1.125.543 2.762 0 1.617-.53 2.748t-1.445 1.726-2.071.595q-.843 0-1.4-.282a2.9 2.9 0 0 1-.895-.677 4.4 4.4 0 0 1-.517-.76h-.096v5.228zm2.269-8.591q0 .953.268 1.668.276.716.787 1.119.517.396 1.253.396.767 0 1.284-.409.518-.415.78-1.131.269-.723.269-1.643 0-.914-.262-1.624-.262-.709-.78-1.112t-1.291-.403q-.743 0-1.26.39-.518.39-.786 1.093-.262.704-.262 1.656m11.295-8.182V89h-2.314V75.91zm6.662 13.283q-1.439 0-2.493-.633a4.3 4.3 0 0 1-1.636-1.77q-.576-1.139-.576-2.66 0-1.52.576-2.665a4.3 4.3 0 0 1 1.636-1.777q1.054-.633 2.493-.633t2.493.633a4.25 4.25 0 0 1 1.63 1.777q.58 1.144.581 2.665 0 1.52-.581 2.66a4.26 4.26 0 0 1-1.63 1.77q-1.054.633-2.493.633m.013-1.854q.78 0 1.304-.428.524-.435.779-1.164a4.8 4.8 0 0 0 .263-1.623q0-.901-.263-1.63-.255-.735-.779-1.17-.525-.435-1.304-.434-.8 0-1.33.434-.523.435-.786 1.17a4.9 4.9 0 0 0-.256 1.63q0 .895.256 1.623.263.729.786 1.164.53.428 1.33.428m7.76 5.344q-.474 0-.876-.077a3.3 3.3 0 0 1-.633-.166l.537-1.803q.505.147.901.141.397-.006.697-.25.307-.236.518-.792l.198-.53-3.56-10.023h2.454l2.263 7.415h.102l2.269-7.415h2.461l-3.931 11.007q-.274.78-.729 1.336-.453.562-1.112.856-.651.3-1.559.3m12.945-3.49q-1.476 0-2.55-.614a4.15 4.15 0 0 1-1.643-1.751q-.575-1.139-.575-2.679 0-1.515.575-2.659a4.36 4.36 0 0 1 1.623-1.79q1.042-.645 2.449-.645.907 0 1.713.294.812.288 1.431.895.627.607.985 1.547.358.933.358 2.224v.71h-8.048v-1.56h5.83a2.5 2.5 0 0 0-.288-1.183 2.1 2.1 0 0 0-.786-.824q-.498-.3-1.163-.3-.71 0-1.247.345a2.4 2.4 0 0 0-.837.895q-.294.55-.301 1.208v1.361q0 .856.314 1.47.312.607.875.934.563.32 1.317.32a2.8 2.8 0 0 0 .914-.141q.409-.147.71-.429.3-.281.453-.696l2.161.243a3.36 3.36 0 0 1-.78 1.495q-.569.633-1.457.985-.889.345-2.033.345m6.323-.192v-9.818h2.244v1.636h.102q.269-.85.921-1.31a2.53 2.53 0 0 1 1.502-.467q.191 0 .428.02.243.012.403.044v2.129a2.4 2.4 0 0 0-.467-.09 4 4 0 0 0-.607-.045q-.633 0-1.138.275a2 2 0 0 0-.786.748q-.288.48-.288 1.106V89z"/>
        <path fill="#F8F9FC" d="M131.5 225c0 17.397-14.103 31.5-31.5 31.5H32C14.603 256.5.5 242.397.5 225s14.103-31.5 31.5-31.5h68c17.397 0 31.5 14.103 31.5 31.5"/>
        <path stroke="#D5D9EB" d="M131.5 225c0 17.397-14.103 31.5-31.5 31.5H32C14.603 256.5.5 242.397.5 225s14.103-31.5 31.5-31.5h68c17.397 0 31.5 14.103 31.5 31.5z" fill="none"/>
        <g filter="url(#b349074e-0c4f-452e-a1f1-b977bb57ca7e)">
            <path fill="#0092CA" d="M20 215a6 6 0 0 1 6-6h20a6 6 0 0 1 6 6v20a6 6 0 0 1-6 6H26a6 6 0 0 1-6-6z"/>
            <path stroke-width="2" stroke="url(#6991214c-2494-4a8a-b45a-0c3614eb2564)" d="M26 210h20a5 5 0 0 1 5 5v20a5 5 0 0 1-5 5H26a5 5 0 0 1-5-5v-20a5 5 0 0 1 5-5Z" fill="none"/>
            <g clip-path="url(#ab6a8217-1195-47a1-9b3e-2ba5c8788576)">
                <path stroke-linejoin="round" stroke-linecap="round" stroke-width="2" stroke="#ffffff" d="M34.667 228.333a4.666 4.666 0 1 0 0-9.333 4.666 4.666 0 0 0 0 9.333" fill="none"/>
                <path stroke-linejoin="round" stroke-linecap="round" stroke-width="2" stroke="#ffffff" d="m42 231-4-4" fill="none"/>
            </g>
        </g>
        <path fill="#04082B" d="M62.972 232h-2.53l4.608-13.091h2.927L72.592 232h-2.53l-3.497-10.406h-.103zm.083-5.133h6.904v1.905h-6.904zm15.207 5.325q-1.476 0-2.55-.614a4.15 4.15 0 0 1-1.643-1.751q-.576-1.138-.575-2.679 0-1.515.575-2.659a4.35 4.35 0 0 1 1.623-1.789q1.042-.646 2.449-.646.907 0 1.713.294.81.288 1.431.895.627.607.985 1.547.358.933.358 2.224v.71H74.58v-1.56h5.83a2.5 2.5 0 0 0-.288-1.182 2.1 2.1 0 0 0-.786-.825q-.498-.3-1.163-.3-.71 0-1.247.345a2.4 2.4 0 0 0-.837.895 2.6 2.6 0 0 0-.3 1.208v1.361q0 .857.313 1.47.312.607.875.934.562.32 1.317.319.505 0 .914-.14.41-.147.71-.429.3-.28.453-.696l2.161.242a3.4 3.4 0 0 1-.78 1.496q-.57.633-1.457.985-.889.345-2.033.345m11.226-10.01v1.79h-5.644v-1.79zm-4.25-2.352h2.313v9.217q0 .467.14.716a.76.76 0 0 0 .385.332q.236.09.524.09.217 0 .396-.032a4 4 0 0 0 .281-.058l.39 1.809q-.185.065-.53.141a4.3 4.3 0 0 1-.831.089q-.87.026-1.566-.262a2.43 2.43 0 0 1-1.106-.908q-.403-.613-.397-1.534zm8.5 6.417V232h-2.315v-9.818h2.212v1.668h.115q.339-.825 1.08-1.31.749-.486 1.848-.486 1.016 0 1.77.435.761.434 1.176 1.259.422.824.416 2.001V232h-2.314v-5.893q0-.985-.511-1.541-.506-.556-1.4-.556a2.15 2.15 0 0 0-1.08.268 1.87 1.87 0 0 0-.736.761q-.261.498-.262 1.208m11.479 5.951a4.1 4.1 0 0 1-1.681-.332 2.75 2.75 0 0 1-1.176-.997q-.428-.659-.428-1.624 0-.831.307-1.374.306-.543.837-.87a4.2 4.2 0 0 1 1.195-.492 10 10 0 0 1 1.387-.249q.864-.09 1.4-.16.537-.077.78-.23.249-.16.249-.492v-.039q0-.722-.428-1.118t-1.234-.396q-.85 0-1.348.37-.492.37-.665.876l-2.161-.307q.256-.894.844-1.496a3.7 3.7 0 0 1 1.438-.907 5.5 5.5 0 0 1 1.88-.307 6 6 0 0 1 1.412.166q.703.166 1.285.55.582.377.933 1.029.358.652.358 1.63V232h-2.224v-1.349h-.077a2.8 2.8 0 0 1-.594.767 2.9 2.9 0 0 1-.953.569q-.568.211-1.336.211m.601-1.7q.697 0 1.208-.275a2.03 2.03 0 0 0 .786-.741q.282-.46.282-1.004v-1.157q-.109.09-.371.166-.255.077-.575.134t-.633.103l-.543.076a4 4 0 0 0-.927.231 1.53 1.53 0 0 0-.646.447q-.237.28-.236.729 0 .64.466.965.467.326 1.189.326"/>
        <path fill="#F8F9FC" d="M374.5 225c0 17.397-14.103 31.5-31.5 31.5h-82c-17.397 0-31.5-14.103-31.5-31.5s14.103-31.5 31.5-31.5h82c17.397 0 31.5 14.103 31.5 31.5"/>
        <path stroke="#D5D9EB" d="M374.5 225c0 17.397-14.103 31.5-31.5 31.5h-82c-17.397 0-31.5-14.103-31.5-31.5s14.103-31.5 31.5-31.5h82c17.397 0 31.5 14.103 31.5 31.5z" fill="none"/>
        <g filter="url(#c3bbb466-af40-4964-9f0e-f878e2b00049)">
            <path fill="#0092CA" d="M249 215a6 6 0 0 1 6-6h20a6 6 0 0 1 6 6v20a6 6 0 0 1-6 6h-20a6 6 0 0 1-6-6z"/>
            <path stroke-width="2" stroke="url(#8d8b073e-21c4-4b0f-a17d-faff0c1a676e)" d="M255 210h20a5 5 0 0 1 5 5v20a5 5 0 0 1-5 5h-20a5 5 0 0 1-5-5v-20a5 5 0 0 1 5-5Z" fill="none"/>
            <g clip-path="url(#fcd6cb95-c9fb-481b-aa09-b742202b4a60)">
                <path stroke-linejoin="round" stroke-linecap="round" stroke-width="2" stroke="#ffffff" d="M263.667 228.333a4.666 4.666 0 1 0 0-9.332 4.666 4.666 0 0 0 0 9.332" fill="none"/>
                <path stroke-linejoin="round" stroke-linecap="round" stroke-width="2" stroke="#ffffff" d="m271 231-4-4" fill="none"/>
            </g>
        </g>
        <path fill="#04082B" d="M290.291 232v-13.091h4.909q1.509 0 2.532.563a3.75 3.75 0 0 1 1.553 1.546q.53.978.53 2.225 0 1.259-.53 2.237a3.8 3.8 0 0 1-1.566 1.541q-1.036.556-2.551.556h-3.253v-1.95h2.934q.882 0 1.444-.307.563-.306.831-.843.276-.537.275-1.234 0-.697-.275-1.227a1.87 1.87 0 0 0-.837-.825q-.563-.3-1.451-.3h-2.173V232zm14.131.198a4.1 4.1 0 0 1-1.681-.332 2.75 2.75 0 0 1-1.176-.997q-.428-.659-.428-1.624 0-.831.307-1.374.306-.543.837-.87a4.2 4.2 0 0 1 1.195-.492 10 10 0 0 1 1.387-.249q.863-.09 1.4-.16.537-.077.78-.23.249-.16.249-.492v-.039q0-.722-.428-1.118t-1.233-.396q-.85 0-1.349.37-.492.37-.665.876l-2.161-.307q.256-.894.844-1.496a3.7 3.7 0 0 1 1.438-.907 5.5 5.5 0 0 1 1.88-.307 6 6 0 0 1 1.412.166q.703.166 1.285.55.582.377.933 1.029.358.652.358 1.63V232h-2.224v-1.349h-.077a2.8 2.8 0 0 1-.594.767 2.9 2.9 0 0 1-.953.569q-.568.211-1.336.211m.601-1.7q.697 0 1.208-.275a2.04 2.04 0 0 0 .787-.741q.28-.46.281-1.004v-1.157q-.109.09-.371.166-.255.077-.575.134t-.633.103l-.543.076a4 4 0 0 0-.927.231 1.53 1.53 0 0 0-.646.447q-.236.28-.236.729 0 .64.466.965.467.326 1.189.326m7.997 5.184a4.7 4.7 0 0 1-.876-.077 3.3 3.3 0 0 1-.633-.166l.537-1.803q.505.147.901.141.397-.006.697-.249.307-.237.518-.793l.198-.53-3.56-10.023h2.454l2.263 7.415h.102l2.269-7.415h2.461l-3.931 11.007q-.275.78-.728 1.336-.454.562-1.113.856-.651.301-1.559.301m12.945-3.49q-1.476 0-2.55-.614a4.16 4.16 0 0 1-1.643-1.751q-.575-1.138-.575-2.679 0-1.515.575-2.659a4.35 4.35 0 0 1 1.624-1.789q1.041-.646 2.448-.646.907 0 1.713.294a3.9 3.9 0 0 1 1.432.895q.625.607.984 1.547.358.933.358 2.224v.71h-8.048v-1.56h5.83a2.5 2.5 0 0 0-.288-1.182 2.1 2.1 0 0 0-.786-.825q-.498-.3-1.163-.3-.71 0-1.247.345a2.4 2.4 0 0 0-.837.895 2.6 2.6 0 0 0-.301 1.208v1.361q0 .857.314 1.47.312.607.875.934.563.32 1.317.319.505 0 .914-.14.409-.147.71-.429.3-.28.454-.696l2.16.242a3.36 3.36 0 0 1-.78 1.496q-.569.633-1.457.985-.888.345-2.033.345m6.324-.192v-9.818h2.243v1.636h.102q.269-.85.921-1.31a2.53 2.53 0 0 1 1.502-.467q.192 0 .428.019.243.013.403.045v2.129a2.5 2.5 0 0 0-.467-.09 4 4 0 0 0-.607-.045q-.633 0-1.138.275a2 2 0 0 0-.786.748q-.288.48-.288 1.106V232zm11.703 0v-13.091h5.012q1.419 0 2.358.448.946.44 1.413 1.208.473.767.473 1.738 0 .8-.307 1.368-.306.563-.824.914a3.5 3.5 0 0 1-1.157.505v.128q.696.039 1.336.428.645.384 1.054 1.087t.409 1.7q0 1.017-.492 1.828-.492.806-1.483 1.272-.99.467-2.493.467zm2.372-1.982h2.55q1.291 0 1.86-.492.576-.498.576-1.278 0-.582-.288-1.048a2 2 0 0 0-.818-.742q-.531-.275-1.266-.275h-2.614zm0-5.541h2.346a2.65 2.65 0 0 0 1.106-.224 1.87 1.87 0 0 0 .773-.646q.288-.421.288-.997 0-.76-.537-1.253-.53-.492-1.579-.492h-2.397z"/>
        <path fill="#F8F9FC" d="M619.5 225c0 17.397-14.103 31.5-31.5 31.5h-84c-17.397 0-31.5-14.103-31.5-31.5s14.103-31.5 31.5-31.5h84c17.397 0 31.5 14.103 31.5 31.5"/>
        <path stroke="#D5D9EB" d="M619.5 225c0 17.397-14.103 31.5-31.5 31.5h-84c-17.397 0-31.5-14.103-31.5-31.5s14.103-31.5 31.5-31.5h84c17.397 0 31.5 14.103 31.5 31.5z" fill="none"/>
        <g filter="url(#33b1b381-1726-40f9-8624-06954f313155)">
            <path fill="#0092CA" d="M492 215a6 6 0 0 1 6-6h20a6 6 0 0 1 6 6v20a6 6 0 0 1-6 6h-20a6 6 0 0 1-6-6z"/>
            <path stroke-width="2" stroke="url(#b5b5de6a-6bde-458e-93b8-925ea76b331b)" d="M498 210h20a5 5 0 0 1 5 5v20a5 5 0 0 1-5 5h-20a5 5 0 0 1-5-5v-20a5 5 0 0 1 5-5Z" fill="none"/>
            <g clip-path="url(#5d25e12a-5f20-40f7-ac53-4a84f4069533)">
                <path stroke-linejoin="round" stroke-linecap="round" stroke-width="2" stroke="#ffffff" d="M506.667 228.333a4.666 4.666 0 1 0 0-9.332 4.666 4.666 0 0 0 0 9.332" fill="none"/>
                <path stroke-linejoin="round" stroke-linecap="round" stroke-width="2" stroke="#ffffff" d="m514 231-4-4" fill="none"/>
            </g>
        </g>
        <path fill="#04082B" d="M533.291 232v-13.091h4.909q1.509 0 2.532.563a3.75 3.75 0 0 1 1.553 1.546q.53.978.53 2.225 0 1.259-.53 2.237a3.8 3.8 0 0 1-1.566 1.541q-1.036.556-2.551.556h-3.253v-1.95h2.934q.882 0 1.444-.307.562-.306.831-.843.275-.537.275-1.234t-.275-1.227a1.87 1.87 0 0 0-.837-.825q-.563-.3-1.451-.3h-2.173V232zm14.131.198a4.1 4.1 0 0 1-1.681-.332 2.75 2.75 0 0 1-1.176-.997q-.428-.659-.428-1.624 0-.831.307-1.374.306-.543.837-.87a4.2 4.2 0 0 1 1.195-.492 10 10 0 0 1 1.387-.249q.864-.09 1.4-.16.537-.077.78-.23.249-.16.249-.492v-.039q0-.722-.428-1.118t-1.233-.396q-.85 0-1.349.37-.492.37-.665.876l-2.161-.307q.256-.894.844-1.496a3.7 3.7 0 0 1 1.438-.907 5.5 5.5 0 0 1 1.88-.307 6 6 0 0 1 1.412.166q.703.166 1.285.55.582.377.933 1.029.358.652.358 1.63V232h-2.224v-1.349h-.077a2.8 2.8 0 0 1-.594.767 2.9 2.9 0 0 1-.953.569q-.568.211-1.336.211m.601-1.7q.697 0 1.208-.275a2.04 2.04 0 0 0 .787-.741q.28-.46.281-1.004v-1.157q-.109.09-.371.166-.255.077-.575.134t-.633.103l-.543.076a4 4 0 0 0-.927.231 1.53 1.53 0 0 0-.646.447q-.236.28-.236.729 0 .64.466.965.467.326 1.189.326m7.997 5.184a4.7 4.7 0 0 1-.876-.077 3.3 3.3 0 0 1-.633-.166l.537-1.803q.505.147.901.141.397-.006.697-.249.307-.237.518-.793l.198-.53-3.56-10.023h2.454l2.263 7.415h.102l2.269-7.415h2.461l-3.931 11.007q-.275.78-.728 1.336-.455.562-1.113.856-.651.301-1.559.301m12.945-3.49q-1.476 0-2.55-.614a4.16 4.16 0 0 1-1.643-1.751q-.576-1.138-.575-2.679 0-1.515.575-2.659a4.35 4.35 0 0 1 1.624-1.789q1.041-.646 2.448-.646.908 0 1.713.294a3.9 3.9 0 0 1 1.432.895q.626.607.984 1.547.358.933.358 2.224v.71h-8.048v-1.56h5.83a2.5 2.5 0 0 0-.288-1.182 2.1 2.1 0 0 0-.786-.825q-.498-.3-1.163-.3-.71 0-1.247.345a2.4 2.4 0 0 0-.837.895 2.6 2.6 0 0 0-.301 1.208v1.361q0 .857.314 1.47.312.607.875.934.563.32 1.317.319.505 0 .914-.14.409-.147.71-.429.3-.28.454-.696l2.16.242a3.36 3.36 0 0 1-.78 1.496q-.569.633-1.457.985-.888.345-2.033.345m6.324-.192v-9.818h2.243v1.636h.102q.268-.85.921-1.31a2.53 2.53 0 0 1 1.502-.467q.192 0 .428.019.243.013.403.045v2.129a2.5 2.5 0 0 0-.467-.09 4 4 0 0 0-.607-.045q-.633 0-1.138.275a2 2 0 0 0-.786.748q-.288.48-.288 1.106V232zm22.909-8.674h-2.391a3 3 0 0 0-.377-1.042 2.8 2.8 0 0 0-1.617-1.259 3.6 3.6 0 0 0-1.119-.166q-1.067 0-1.892.537-.825.53-1.291 1.559-.467 1.023-.467 2.5 0 1.502.467 2.531.473 1.022 1.291 1.547.824.517 1.886.517.588 0 1.099-.153.517-.16.927-.467.415-.307.697-.754a2.9 2.9 0 0 0 .396-1.023l2.391.013a5.2 5.2 0 0 1-.582 1.752 5.2 5.2 0 0 1-1.157 1.444 5.3 5.3 0 0 1-1.675.972q-.958.345-2.128.345-1.726 0-3.081-.799-1.356-.8-2.135-2.308-.78-1.508-.78-3.617 0-2.116.786-3.618.786-1.509 2.142-2.308 1.355-.8 3.068-.799 1.092 0 2.032.307a5.2 5.2 0 0 1 1.675.901q.735.588 1.208 1.445.48.85.627 1.943"/>
        <path fill="#F8F9FC" d="M44 333.5h77c16.292 0 29.5 13.208 29.5 29.5s-13.208 29.5-29.5 29.5H44c-16.292 0-29.5-13.208-29.5-29.5s13.208-29.5 29.5-29.5"/>
        <path stroke="#D5D9EB" d="M44 333.5h77c16.292 0 29.5 13.208 29.5 29.5s-13.208 29.5-29.5 29.5H44c-16.292 0-29.5-13.208-29.5-29.5s13.208-29.5 29.5-29.5Z" fill="none"/>
        <path fill="#363F72" d="M36.82 360.5h-1.41a2.93 2.93 0 0 0-1.187-1.841 3.2 3.2 0 0 0-.972-.477 3.9 3.9 0 0 0-1.113-.159 3.55 3.55 0 0 0-1.915.534q-.852.534-1.358 1.574-.5 1.04-.5 2.551t.5 2.551q.506 1.04 1.358 1.574a3.55 3.55 0 0 0 1.915.534q.579 0 1.113-.159.535-.159.972-.472.444-.318.75-.778a3 3 0 0 0 .438-1.068h1.409a4.7 4.7 0 0 1-.58 1.596q-.42.705-1.045 1.199a4.6 4.6 0 0 1-1.404.744 5.2 5.2 0 0 1-1.653.256q-1.489 0-2.648-.727t-1.824-2.068-.665-3.182.665-3.182q.665-1.34 1.824-2.068 1.159-.727 2.648-.727.88 0 1.653.255.78.257 1.404.75.624.49 1.045 1.193.42.7.58 1.597m3.436 2.75v5.25h-1.341v-11.636h1.34v4.272h.114q.308-.675.92-1.074.62-.403 1.648-.403.892 0 1.563.358.67.353 1.04 1.085.375.728.375 1.853v5.545h-1.341v-5.455q0-1.04-.54-1.607-.534-.574-1.483-.574-.66 0-1.182.278a2.03 2.03 0 0 0-.818.813q-.295.534-.295 1.295m11.657 5.432q-1.181 0-2.073-.563-.887-.562-1.387-1.574-.495-1.011-.494-2.363 0-1.364.494-2.381.5-1.017 1.386-1.579.893-.563 2.074-.563 1.182 0 2.069.563.891.562 1.386 1.579.5 1.017.5 2.381 0 1.352-.5 2.363a3.77 3.77 0 0 1-1.387 1.574q-.886.563-2.068.563m0-1.205q.898 0 1.478-.46.579-.46.858-1.21.278-.75.278-1.625a4.7 4.7 0 0 0-.278-1.631 2.74 2.74 0 0 0-.858-1.221q-.58-.466-1.478-.466-.897 0-1.477.466-.579.465-.858 1.221a4.7 4.7 0 0 0-.278 1.631q0 .875.278 1.625.279.75.858 1.21.58.46 1.477.46m6.002 1.023v-8.727h1.34v8.727zm.682-10.182a.95.95 0 0 1-.677-.267.86.86 0 0 1-.278-.642q0-.375.278-.642a.95.95 0 0 1 .677-.267q.391 0 .67.267a.85.85 0 0 1 .284.642.85.85 0 0 1-.284.642.93.93 0 0 1-.67.267m6.66 10.364q-1.227 0-2.114-.58a3.77 3.77 0 0 1-1.363-1.596q-.477-1.017-.477-2.324 0-1.33.488-2.347.495-1.023 1.375-1.596.886-.58 2.068-.58.92 0 1.66.341.738.34 1.21.955.472.614.585 1.431h-1.341q-.153-.596-.682-1.056-.522-.466-1.409-.466-.784 0-1.375.409-.585.403-.915 1.142-.324.732-.323 1.721 0 1.012.318 1.762.324.75.909 1.164.591.415 1.386.415.523 0 .949-.182.426-.181.722-.522.296-.342.42-.818h1.34a3.1 3.1 0 0 1-.562 1.392 3.15 3.15 0 0 1-1.176.977q-.727.358-1.693.358m9.051 0q-1.26 0-2.176-.557a3.74 3.74 0 0 1-1.403-1.568q-.489-1.012-.489-2.352 0-1.341.489-2.364.495-1.029 1.375-1.602.886-.58 2.068-.58.681 0 1.347.227.664.228 1.21.739.545.505.869 1.341.324.835.324 2.057v.568h-6.727v-1.159h5.363q0-.74-.295-1.318a2.2 2.2 0 0 0-.83-.915q-.534-.335-1.261-.335-.801 0-1.386.397a2.6 2.6 0 0 0-.892 1.023 3 3 0 0 0-.313 1.352v.773q0 .989.34 1.676.348.682.961 1.04.615.352 1.426.352.528 0 .955-.147a2.05 2.05 0 0 0 .744-.455q.313-.307.483-.761l1.296.363q-.205.66-.688 1.159-.483.495-1.193.773a4.4 4.4 0 0 1-1.597.273m10.335-.182v-11.636h3.932q1.37 0 2.239.494.875.489 1.295 1.324t.42 1.863q0 1.029-.42 1.87-.414.84-1.284 1.341-.87.494-2.227.494H85.78V363h2.773q.938 0 1.505-.324a1.93 1.93 0 0 0 .824-.875q.261-.557.261-1.256 0-.698-.26-1.25a1.86 1.86 0 0 0-.83-.863q-.574-.318-1.523-.318h-2.477V368.5zm19.975-5.818q0 1.84-.665 3.182-.665 1.34-1.824 2.068-1.158.727-2.648.727-1.488 0-2.647-.727t-1.824-2.068-.665-3.182.665-3.182q.664-1.34 1.824-2.068 1.159-.727 2.647-.727 1.49 0 2.648.727 1.16.727 1.824 2.068t.665 3.182m-1.364 0q0-1.512-.505-2.551-.5-1.04-1.358-1.574a3.53 3.53 0 0 0-1.91-.534 3.55 3.55 0 0 0-1.914.534q-.852.534-1.358 1.574-.5 1.04-.5 2.551t.5 2.551q.506 1.04 1.358 1.574a3.55 3.55 0 0 0 1.915.534q1.056 0 1.909-.534.857-.534 1.358-1.574.505-1.04.505-2.551m10.097-2.909a1.78 1.78 0 0 0-.83-1.341q-.727-.477-1.784-.477-.773 0-1.352.25a2.15 2.15 0 0 0-.898.687 1.65 1.65 0 0 0-.318.994q0 .466.222.802.226.329.579.551.352.216.739.358.386.135.71.221l1.182.318q.454.12 1.011.33.563.21 1.074.574.518.357.852.92.336.562.336 1.381 0 .943-.495 1.704-.488.761-1.432 1.211-.937.449-2.278.449-1.25 0-2.165-.404-.909-.403-1.432-1.125a3.2 3.2 0 0 1-.585-1.676h1.455q.056.659.443 1.091.392.426.989.636.602.205 1.295.205.807 0 1.449-.262.642-.267 1.017-.738.375-.477.375-1.114 0-.58-.324-.943a2.4 2.4 0 0 0-.852-.591 9 9 0 0 0-1.142-.398l-1.432-.409q-1.364-.391-2.159-1.119-.796-.727-.796-1.903 0-.978.529-1.705a3.5 3.5 0 0 1 1.432-1.136q.903-.41 2.017-.409 1.124 0 2 .403.875.398 1.386 1.091.518.693.545 1.574zm9.748-2.909V368.5h-1.409v-11.636zm4.235 0V368.5h-1.409v-11.636zm6.052 13.091v-14.546h.932v14.546zm3.137-10.182a1.78 1.78 0 0 0-.83-1.341q-.727-.477-1.784-.477-.773 0-1.352.25a2.15 2.15 0 0 0-.898.687 1.65 1.65 0 0 0-.318.994q0 .466.221.802.228.329.58.551.352.216.739.358.386.135.71.221l1.182.318q.454.12 1.011.33.563.21 1.074.574.517.357.852.92.335.562.335 1.381 0 .943-.494 1.704-.489.761-1.432 1.211-.937.449-2.278.449-1.25 0-2.165-.404-.909-.403-1.432-1.125a3.2 3.2 0 0 1-.585-1.676h1.455q.056.659.443 1.091.392.426.988.636.603.205 1.296.205.807 0 1.449-.262.642-.267 1.017-.738.375-.477.375-1.114 0-.58-.324-.943a2.4 2.4 0 0 0-.852-.591 9 9 0 0 0-1.142-.398l-1.432-.409q-1.364-.391-2.159-1.119-.796-.727-.796-1.903 0-.978.529-1.705a3.5 3.5 0 0 1 1.432-1.136q.903-.41 2.017-.409 1.124 0 2 .403.874.398 1.386 1.091.517.693.545 1.574z"/>
        <path fill="#F8F9FC" d="M205 331.5h131c16.292 0 29.5 13.208 29.5 29.5s-13.208 29.5-29.5 29.5H205c-16.292 0-29.5-13.208-29.5-29.5s13.208-29.5 29.5-29.5"/>
        <path stroke="#D5D9EB" d="M205 331.5h131c16.292 0 29.5 13.208 29.5 29.5s-13.208 29.5-29.5 29.5H205c-16.292 0-29.5-13.208-29.5-29.5s13.208-29.5 29.5-29.5Z" fill="none"/>
        <path fill="#363F72" d="M198.524 361.182q0 1.84-.665 3.182-.665 1.34-1.823 2.068-1.16.727-2.648.727t-2.648-.727-1.824-2.068-.665-3.182.665-3.182q.664-1.34 1.824-2.068 1.159-.727 2.648-.727 1.488 0 2.648.727 1.158.727 1.823 2.068t.665 3.182m-1.363 0q0-1.512-.506-2.551-.5-1.04-1.358-1.574a3.5 3.5 0 0 0-1.909-.534 3.55 3.55 0 0 0-1.915.534q-.852.534-1.358 1.574-.5 1.04-.5 2.551t.5 2.551q.506 1.04 1.358 1.574a3.55 3.55 0 0 0 1.915.534q1.056 0 1.909-.534.857-.534 1.358-1.574.506-1.04.506-2.551m3.551 9.091v-12h1.295v1.386h.159q.148-.227.409-.579.267-.358.762-.637.5-.284 1.352-.284 1.102 0 1.943.551t1.313 1.563q.471 1.01.471 2.386 0 1.386-.471 2.403-.472 1.012-1.307 1.569-.835.55-1.926.551-.841 0-1.347-.279-.506-.284-.778-.642a9 9 0 0 1-.421-.602h-.113v4.614zm1.318-7.637q0 .989.29 1.745.29.75.846 1.176.557.42 1.364.42.84 0 1.403-.443.568-.449.853-1.204a4.7 4.7 0 0 0 .289-1.694q0-.92-.284-1.659-.278-.744-.846-1.176-.563-.437-1.415-.437-.819 0-1.375.414-.557.41-.841 1.148-.284.733-.284 1.71m12.091 4.546q-1.262 0-2.176-.557a3.74 3.74 0 0 1-1.404-1.568q-.488-1.012-.488-2.352 0-1.341.488-2.364.495-1.029 1.375-1.602.886-.58 2.068-.58.682 0 1.347.227.665.228 1.21.739.546.505.87 1.341.323.835.323 2.057v.568h-6.727v-1.159h5.364q0-.74-.296-1.318a2.2 2.2 0 0 0-.829-.915q-.534-.335-1.262-.335-.801 0-1.386.397a2.6 2.6 0 0 0-.892 1.023 3 3 0 0 0-.313 1.352v.773q0 .989.341 1.676.347.682.961 1.04.613.352 1.426.352.528 0 .954-.147.432-.154.745-.455.312-.307.483-.761l1.295.363q-.205.66-.687 1.159a3.35 3.35 0 0 1-1.194.773 4.4 4.4 0 0 1-1.596.273m6.994-5.432V367h-1.341v-8.727h1.296v1.363h.113q.307-.664.932-1.068.625-.41 1.614-.409.887 0 1.551.364.665.357 1.034 1.091.369.726.369 1.841V367h-1.341v-5.455q0-1.028-.534-1.602-.533-.579-1.466-.579-.642 0-1.147.278a2 2 0 0 0-.79.813q-.29.534-.29 1.295m13.178 5.25h-1.478l4.273-11.636h1.455L242.815 367h-1.477l-3.477-9.795h-.091zm.545-4.545h5.955v1.25h-5.955zm13.153 4.727q-1.227 0-2.113-.58a3.77 3.77 0 0 1-1.364-1.596q-.477-1.017-.477-2.324 0-1.33.489-2.347.493-1.023 1.375-1.596.885-.58 2.068-.58.92 0 1.659.341.738.34 1.21.955.472.614.585 1.431h-1.341q-.153-.596-.681-1.056-.523-.466-1.41-.466-.783 0-1.375.409-.585.403-.914 1.142-.324.732-.324 1.721 0 1.012.318 1.762.324.75.909 1.164.591.415 1.386.415.523 0 .949-.182.426-.181.722-.522.295-.342.42-.818h1.341a3.1 3.1 0 0 1-.562 1.392 3.16 3.16 0 0 1-1.176.977q-.728.358-1.694.358m8.938 0q-1.227 0-2.114-.58a3.77 3.77 0 0 1-1.363-1.596q-.478-1.017-.478-2.324 0-1.33.489-2.347.495-1.023 1.375-1.596.886-.58 2.068-.58.921 0 1.659.341a3.2 3.2 0 0 1 1.211.955q.471.614.585 1.431h-1.341q-.154-.596-.682-1.056-.522-.466-1.409-.466-.784 0-1.375.409-.585.403-.915 1.142-.324.732-.324 1.721 0 1.012.319 1.762.322.75.909 1.164.591.415 1.386.415.523 0 .949-.182.426-.181.721-.522.296-.342.421-.818h1.341a3.1 3.1 0 0 1-.563 1.392 3.14 3.14 0 0 1-1.176.977q-.727.358-1.693.358m9.051 0q-1.261 0-2.176-.557a3.74 3.74 0 0 1-1.403-1.568q-.489-1.012-.489-2.352 0-1.341.489-2.364.493-1.029 1.375-1.602.885-.58 2.068-.58.681 0 1.346.227.665.228 1.211.739.545.505.869 1.341.324.835.324 2.057v.568h-6.728v-1.159h5.364q0-.74-.295-1.318a2.23 2.23 0 0 0-.83-.915q-.534-.335-1.261-.335-.8 0-1.387.397a2.63 2.63 0 0 0-.892 1.023 3 3 0 0 0-.312 1.352v.773q0 .989.341 1.676.346.682.96 1.04.613.352 1.426.352.529 0 .955-.147.432-.154.744-.455.312-.307.483-.761l1.295.363a2.86 2.86 0 0 1-.687 1.159q-.483.495-1.193.773a4.4 4.4 0 0 1-1.597.273m11.835-6.955-1.204.341a2.3 2.3 0 0 0-.335-.585 1.6 1.6 0 0 0-.591-.477q-.375-.188-.961-.188-.801 0-1.335.37-.528.363-.528.926 0 .5.363.789.364.291 1.137.483l1.295.319q1.171.284 1.745.869.573.579.573 1.494 0 .75-.431 1.341-.426.591-1.194.932-.767.34-1.784.341-1.335 0-2.21-.58-.875-.579-1.108-1.693l1.273-.318q.182.705.687 1.057.511.352 1.336.352.938 0 1.488-.398.557-.404.557-.966 0-.454-.318-.761-.318-.312-.977-.466l-1.455-.341q-1.198-.284-1.761-.88-.558-.603-.557-1.506 0-.739.415-1.307a2.8 2.8 0 0 1 1.142-.892q.727-.324 1.647-.324 1.296 0 2.035.568.744.569 1.056 1.5m8.36 0-1.205.341a2.2 2.2 0 0 0-.335-.585 1.6 1.6 0 0 0-.591-.477q-.375-.188-.96-.188-.801 0-1.335.37-.53.363-.529.926 0 .5.364.789.363.291 1.136.483l1.296.319q1.17.284 1.744.869.574.579.574 1.494 0 .75-.432 1.341-.426.591-1.193.932-.767.34-1.784.341-1.335 0-2.211-.58-.875-.579-1.107-1.693l1.272-.318q.182.705.688 1.057.511.352 1.335.352.937 0 1.489-.398.556-.404.556-.966 0-.454-.318-.761-.318-.312-.977-.466l-1.455-.341q-1.198-.284-1.761-.88-.557-.603-.557-1.506 0-.739.415-1.307a2.8 2.8 0 0 1 1.142-.892q.727-.324 1.648-.324 1.295 0 2.034.568a3.07 3.07 0 0 1 1.057 1.5m13.223-1.954a1.78 1.78 0 0 0-.83-1.341q-.727-.477-1.784-.477-.773 0-1.352.25a2.15 2.15 0 0 0-.898.687 1.65 1.65 0 0 0-.318.994q0 .466.222.802.226.329.579.551.352.216.739.358.386.135.71.221l1.182.318q.454.12 1.011.33.563.21 1.074.574.518.357.852.92.335.562.335 1.381 0 .943-.494 1.704-.489.761-1.432 1.211-.937.449-2.278.449-1.25 0-2.165-.404-.909-.403-1.432-1.125a3.2 3.2 0 0 1-.585-1.676h1.455q.056.659.443 1.091.392.426.988.636.603.205 1.296.205.807 0 1.449-.262.642-.267 1.017-.738.375-.477.375-1.114 0-.58-.324-.943a2.4 2.4 0 0 0-.852-.591 9 9 0 0 0-1.142-.398l-1.432-.409q-1.364-.391-2.159-1.119-.796-.727-.796-1.903 0-.978.529-1.705a3.5 3.5 0 0 1 1.431-1.136q.904-.41 2.018-.409 1.125 0 2 .403.875.398 1.386 1.091.517.693.545 1.574zm7.316 8.909q-1.26 0-2.176-.557a3.74 3.74 0 0 1-1.403-1.568q-.489-1.012-.489-2.352 0-1.341.489-2.364.494-1.029 1.375-1.602.886-.58 2.068-.58.683 0 1.347.227.664.228 1.21.739.545.505.869 1.341.324.835.324 2.057v.568h-6.727v-1.159h5.363q0-.74-.295-1.318a2.2 2.2 0 0 0-.83-.915q-.534-.335-1.261-.335-.801 0-1.386.397a2.6 2.6 0 0 0-.892 1.023 3 3 0 0 0-.313 1.352v.773q0 .989.341 1.676.346.682.96 1.04.614.352 1.426.352.53 0 .955-.147.432-.154.744-.455.313-.307.483-.761l1.296.363q-.205.66-.688 1.159-.483.495-1.193.773a4.4 4.4 0 0 1-1.597.273m6.995-11.818V367h-1.341v-11.636zm6.115 11.818q-1.261 0-2.176-.557a3.74 3.74 0 0 1-1.404-1.568q-.488-1.012-.488-2.352 0-1.341.488-2.364.495-1.029 1.375-1.602.887-.58 2.069-.58.681 0 1.346.227.665.228 1.21.739.546.505.87 1.341.324.835.324 2.057v.568h-6.728v-1.159h5.364q0-.74-.296-1.318a2.2 2.2 0 0 0-.829-.915q-.535-.335-1.261-.335-.802 0-1.387.397a2.6 2.6 0 0 0-.892 1.023 3 3 0 0 0-.312 1.352v.773q0 .989.341 1.676.346.682.96 1.04.613.352 1.426.352.528 0 .954-.147.432-.154.745-.455.312-.307.483-.761l1.295.363a2.86 2.86 0 0 1-.687 1.159 3.35 3.35 0 0 1-1.194.773 4.4 4.4 0 0 1-1.596.273m9.199 0q-1.227 0-2.114-.58a3.8 3.8 0 0 1-1.364-1.596q-.477-1.017-.477-2.324 0-1.33.489-2.347.494-1.023 1.375-1.596.886-.58 2.068-.58.921 0 1.659.341.74.34 1.21.955.472.614.586 1.431h-1.341q-.154-.596-.682-1.056-.523-.466-1.409-.466-.784 0-1.375.409-.585.403-.915 1.142-.324.732-.324 1.721 0 1.012.318 1.762.324.75.909 1.164.59.415 1.387.415.523 0 .949-.182.426-.181.721-.522.295-.342.421-.818h1.341a3.1 3.1 0 0 1-.563 1.392 3.14 3.14 0 0 1-1.176.977q-.727.358-1.693.358m9.187-8.909v1.136h-4.522v-1.136zm-3.204-2.091h1.341v8.318q0 .569.164.852a.85.85 0 0 0 .432.375q.267.091.563.091.221 0 .363-.023l.228-.045.272 1.205a3 3 0 0 1-.38.102q-.245.057-.62.057-.568 0-1.113-.245a2.2 2.2 0 0 1-.898-.744q-.352-.5-.352-1.261zm13.13 12.273v-14.546h.932v14.546zm3.137-10.182a1.78 1.78 0 0 0-.83-1.341q-.727-.477-1.784-.477-.773 0-1.352.25a2.15 2.15 0 0 0-.898.687 1.65 1.65 0 0 0-.318.994q0 .466.221.802.228.329.58.551.352.216.739.358.386.135.71.221l1.182.318q.454.12 1.011.33.563.21 1.074.574.518.357.852.92.335.562.335 1.381 0 .943-.494 1.704-.489.761-1.432 1.211-.937.449-2.278.449-1.25 0-2.165-.404-.909-.403-1.432-1.125a3.2 3.2 0 0 1-.585-1.676h1.455q.056.659.443 1.091.392.426.988.636.603.205 1.296.205.807 0 1.449-.262.642-.267 1.017-.738.375-.477.375-1.114 0-.58-.324-.943a2.4 2.4 0 0 0-.852-.591 9 9 0 0 0-1.142-.398l-1.432-.409q-1.364-.391-2.159-1.119-.796-.727-.796-1.903 0-.978.529-1.705a3.5 3.5 0 0 1 1.432-1.136q.903-.41 2.017-.409 1.125 0 2 .403.875.398 1.386 1.091.517.693.545 1.574z"/>
        <path stroke-dasharray="4 8" stroke-width="3" stroke="#A1A3BC" d="m310 114-.006 76" fill="none"/>
        <g filter="url(#f49bfaee-fb2d-434e-8878-ebf580194dfc)">
            <path fill="#A1A3BC" d="M299 149a6 6 0 0 1 6-6h10a6 6 0 0 1 6 6v10a6 6 0 0 1-6 6h-10a6 6 0 0 1-6-6z"/>
            <path stroke-width="2" stroke="url(#a3453bf6-4b6a-4c0b-bace-ac66126ff9e9)" d="M305 144h10a5 5 0 0 1 5 5v10a5 5 0 0 1-5 5h-10a5 5 0 0 1-5-5v-10a5 5 0 0 1 5-5Z" fill="none"/>
            <g clip-path="url(#adb30622-71a9-4b22-90b9-d71a0d4cb38a)">
                <path stroke-linejoin="round" stroke-linecap="round" stroke-width="2" stroke="#ffffff" d="M310 149.334v9.333" fill="none"/>
                <path stroke-linejoin="round" stroke-linecap="round" stroke-width="2" stroke="#ffffff" d="M305.333 154h9.333" fill="none"/>
            </g>
        </g>
        <path stroke-dasharray="4 8" stroke-width="3" stroke="#A1A3BC" d="m39 257-.006 76" fill="none"/>
        <g filter="url(#363b23fd-516a-4afd-91c2-6b347431fac2)">
            <path fill="#A1A3BC" d="M28 292a6 6 0 0 1 6-6h10a6 6 0 0 1 6 6v10a6 6 0 0 1-6 6H34a6 6 0 0 1-6-6z"/>
            <path stroke-width="2" stroke="url(#24944821-28dc-453f-ba5a-015cff834c28)" d="M34 287h10a5 5 0 0 1 5 5v10a5 5 0 0 1-5 5H34a5 5 0 0 1-5-5v-10a5 5 0 0 1 5-5Z" fill="none"/>
            <g clip-path="url(#54d7448c-fbec-4e0a-9fc0-14541921a99b)">
                <path stroke-linejoin="round" stroke-linecap="round" stroke-width="2" stroke="#ffffff" d="M39 292.334v9.333" fill="none"/>
                <path stroke-linejoin="round" stroke-linecap="round" stroke-width="2" stroke="#ffffff" d="M34.333 297h9.333" fill="none"/>
            </g>
        </g>
        <path stroke-dasharray="4 8" stroke-width="3" stroke="#A1A3BC" d="m101 257-.003 45" fill="none"/>
        <path stroke-dasharray="4 8" stroke-width="3" stroke="#A1A3BC" d="M205 302H101" fill="none"/>
        <path stroke-dasharray="4 8" stroke-width="3" stroke="#A1A3BC" d="M203 331v-31" fill="none"/>
        <g filter="url(#11ee6dd4-87e7-485c-b8a9-c2983b5cd507)">
            <path fill="#A1A3BC" d="M90 292a6 6 0 0 1 6-6h10a6 6 0 0 1 6 6v10a6 6 0 0 1-6 6H96a6 6 0 0 1-6-6z"/>
            <path stroke-width="2" stroke="url(#794ae319-47ab-4da2-a28d-fe1ae5c0965d)" d="M96 287h10a5 5 0 0 1 5 5v10a5 5 0 0 1-5 5H96a5 5 0 0 1-5-5v-10a5 5 0 0 1 5-5Z" fill="none"/>
            <g clip-path="url(#af4cc44e-f6f2-438d-a213-05440c40a3f0)">
                <path stroke-linejoin="round" stroke-linecap="round" stroke-width="2" stroke="#ffffff" d="M101 292.334v9.333" fill="none"/>
                <path stroke-linejoin="round" stroke-linecap="round" stroke-width="2" stroke="#ffffff" d="M96.333 297h9.333" fill="none"/>
            </g>
        </g>
        <defs fill="none">
            <linearGradient gradientUnits="userSpaceOnUse" y2="98" x2="212" y1="66" x1="212" id="baf6f4ba-5c71-408c-ad41-316dc04bcf3c">
                <stop stop-opacity=".12" stop-color="#ffffff"/>
                <stop stop-opacity="0" stop-color="#ffffff" offset="1"/>
            </linearGradient>
            <linearGradient gradientUnits="userSpaceOnUse" y2="241" x2="36" y1="209" x1="36" id="6991214c-2494-4a8a-b45a-0c3614eb2564">
                <stop stop-opacity=".12" stop-color="#ffffff"/>
                <stop stop-opacity="0" stop-color="#ffffff" offset="1"/>
            </linearGradient>
            <linearGradient gradientUnits="userSpaceOnUse" y2="241" x2="265" y1="209" x1="265" id="8d8b073e-21c4-4b0f-a17d-faff0c1a676e">
                <stop stop-opacity=".12" stop-color="#ffffff"/>
                <stop stop-opacity="0" stop-color="#ffffff" offset="1"/>
            </linearGradient>
            <linearGradient gradientUnits="userSpaceOnUse" y2="241" x2="508" y1="209" x1="508" id="b5b5de6a-6bde-458e-93b8-925ea76b331b">
                <stop stop-opacity=".12" stop-color="#ffffff"/>
                <stop stop-opacity="0" stop-color="#ffffff" offset="1"/>
            </linearGradient>
            <linearGradient gradientUnits="userSpaceOnUse" y2="165" x2="310" y1="143" x1="310" id="a3453bf6-4b6a-4c0b-bace-ac66126ff9e9">
                <stop stop-opacity=".12" stop-color="#ffffff"/>
                <stop stop-opacity="0" stop-color="#ffffff" offset="1"/>
            </linearGradient>
            <linearGradient gradientUnits="userSpaceOnUse" y2="308" x2="39" y1="286" x1="39" id="24944821-28dc-453f-ba5a-015cff834c28">
                <stop stop-opacity=".12" stop-color="#ffffff"/>
                <stop stop-opacity="0" stop-color="#ffffff" offset="1"/>
            </linearGradient>
            <linearGradient gradientUnits="userSpaceOnUse" y2="308" x2="101" y1="286" x1="101" id="794ae319-47ab-4da2-a28d-fe1ae5c0965d">
                <stop stop-opacity=".12" stop-color="#ffffff"/>
                <stop stop-opacity="0" stop-color="#ffffff" offset="1"/>
            </linearGradient>
            <clipPath id="eb29609f-6430-4428-bdf4-32ba23c93c42">
                <path fill="#ffffff" d="M220 74v16h-16V74z"/>
            </clipPath>
            <clipPath id="ab6a8217-1195-47a1-9b3e-2ba5c8788576">
                <path fill="#ffffff" d="M44 217v16H28v-16z"/>
            </clipPath>
            <clipPath id="fcd6cb95-c9fb-481b-aa09-b742202b4a60">
                <path fill="#ffffff" d="M273 217v16h-16v-16z"/>
            </clipPath>
            <clipPath id="5d25e12a-5f20-40f7-ac53-4a84f4069533">
                <path fill="#ffffff" d="M516 217v16h-16v-16z"/>
            </clipPath>
            <clipPath id="adb30622-71a9-4b22-90b9-d71a0d4cb38a">
                <path fill="#ffffff" d="M318 146v16h-16v-16z"/>
            </clipPath>
            <clipPath id="54d7448c-fbec-4e0a-9fc0-14541921a99b">
                <path fill="#ffffff" d="M47 289v16H31v-16z"/>
            </clipPath>
            <clipPath id="af4cc44e-f6f2-438d-a213-05440c40a3f0">
                <path fill="#ffffff" d="M109 289v16H93v-16z"/>
            </clipPath>
            <filter color-interpolation-filters="sRGB" filterUnits="userSpaceOnUse" height="36" width="36" y="65" x="194" id="1f3e7aa1-f16c-463f-9714-c9fd82b799f7">
                <feFlood result="BackgroundImageFix" flood-opacity="0"/>
                <feColorMatrix result="hardAlpha" values="0 0 0 0 0 0 0 0 0 0 0 0 0 0 0 0 0 0 127 0" in="SourceAlpha"/>
                <feOffset dy="1"/>
                <feGaussianBlur stdDeviation="1"/>
                <feComposite operator="out" in2="hardAlpha"/>
                <feColorMatrix values="0 0 0 0 0.0392157 0 0 0 0 0.0496732 0 0 0 0 0.0705882 0 0 0 0.05 0"/>
                <feBlend result="effect1_dropShadow_84_7862" in2="BackgroundImageFix"/>
                <feBlend result="shape" in2="effect1_dropShadow_84_7862" in="SourceGraphic"/>
                <feColorMatrix result="hardAlpha" values="0 0 0 0 0 0 0 0 0 0 0 0 0 0 0 0 0 0 127 0" in="SourceAlpha"/>
                <feOffset dy="-2"/>
                <feComposite k3="1" k2="-1" operator="arithmetic" in2="hardAlpha"/>
                <feColorMatrix values="0 0 0 0 0.0392157 0 0 0 0 0.0496732 0 0 0 0 0.0705882 0 0 0 0.05 0"/>
                <feBlend result="effect2_innerShadow_84_7862" in2="shape"/>
                <feColorMatrix result="hardAlpha" values="0 0 0 0 0 0 0 0 0 0 0 0 0 0 0 0 0 0 127 0" in="SourceAlpha"/>
                <feMorphology result="effect3_innerShadow_84_7862" in="SourceAlpha" radius="1"/>
                <feOffset/>
                <feComposite k3="1" k2="-1" operator="arithmetic" in2="hardAlpha"/>
                <feColorMatrix values="0 0 0 0 0.0392157 0 0 0 0 0.0496732 0 0 0 0 0.0705882 0 0 0 0.18 0"/>
                <feBlend result="effect3_innerShadow_84_7862" in2="effect2_innerShadow_84_7862"/>
            </filter>
            <filter color-interpolation-filters="sRGB" filterUnits="userSpaceOnUse" height="36" width="36" y="208" x="18" id="b349074e-0c4f-452e-a1f1-b977bb57ca7e">
                <feFlood result="BackgroundImageFix" flood-opacity="0"/>
                <feColorMatrix result="hardAlpha" values="0 0 0 0 0 0 0 0 0 0 0 0 0 0 0 0 0 0 127 0" in="SourceAlpha"/>
                <feOffset dy="1"/>
                <feGaussianBlur stdDeviation="1"/>
                <feComposite operator="out" in2="hardAlpha"/>
                <feColorMatrix values="0 0 0 0 0.0392157 0 0 0 0 0.0496732 0 0 0 0 0.0705882 0 0 0 0.05 0"/>
                <feBlend result="effect1_dropShadow_84_7862" in2="BackgroundImageFix"/>
                <feBlend result="shape" in2="effect1_dropShadow_84_7862" in="SourceGraphic"/>
                <feColorMatrix result="hardAlpha" values="0 0 0 0 0 0 0 0 0 0 0 0 0 0 0 0 0 0 127 0" in="SourceAlpha"/>
                <feOffset dy="-2"/>
                <feComposite k3="1" k2="-1" operator="arithmetic" in2="hardAlpha"/>
                <feColorMatrix values="0 0 0 0 0.0392157 0 0 0 0 0.0496732 0 0 0 0 0.0705882 0 0 0 0.05 0"/>
                <feBlend result="effect2_innerShadow_84_7862" in2="shape"/>
                <feColorMatrix result="hardAlpha" values="0 0 0 0 0 0 0 0 0 0 0 0 0 0 0 0 0 0 127 0" in="SourceAlpha"/>
                <feMorphology result="effect3_innerShadow_84_7862" in="SourceAlpha" radius="1"/>
                <feOffset/>
                <feComposite k3="1" k2="-1" operator="arithmetic" in2="hardAlpha"/>
                <feColorMatrix values="0 0 0 0 0.0392157 0 0 0 0 0.0496732 0 0 0 0 0.0705882 0 0 0 0.18 0"/>
                <feBlend result="effect3_innerShadow_84_7862" in2="effect2_innerShadow_84_7862"/>
            </filter>
            <filter color-interpolation-filters="sRGB" filterUnits="userSpaceOnUse" height="36" width="36" y="208" x="247" id="c3bbb466-af40-4964-9f0e-f878e2b00049">
                <feFlood result="BackgroundImageFix" flood-opacity="0"/>
                <feColorMatrix result="hardAlpha" values="0 0 0 0 0 0 0 0 0 0 0 0 0 0 0 0 0 0 127 0" in="SourceAlpha"/>
                <feOffset dy="1"/>
                <feGaussianBlur stdDeviation="1"/>
                <feComposite operator="out" in2="hardAlpha"/>
                <feColorMatrix values="0 0 0 0 0.0392157 0 0 0 0 0.0496732 0 0 0 0 0.0705882 0 0 0 0.05 0"/>
                <feBlend result="effect1_dropShadow_84_7862" in2="BackgroundImageFix"/>
                <feBlend result="shape" in2="effect1_dropShadow_84_7862" in="SourceGraphic"/>
                <feColorMatrix result="hardAlpha" values="0 0 0 0 0 0 0 0 0 0 0 0 0 0 0 0 0 0 127 0" in="SourceAlpha"/>
                <feOffset dy="-2"/>
                <feComposite k3="1" k2="-1" operator="arithmetic" in2="hardAlpha"/>
                <feColorMatrix values="0 0 0 0 0.0392157 0 0 0 0 0.0496732 0 0 0 0 0.0705882 0 0 0 0.05 0"/>
                <feBlend result="effect2_innerShadow_84_7862" in2="shape"/>
                <feColorMatrix result="hardAlpha" values="0 0 0 0 0 0 0 0 0 0 0 0 0 0 0 0 0 0 127 0" in="SourceAlpha"/>
                <feMorphology result="effect3_innerShadow_84_7862" in="SourceAlpha" radius="1"/>
                <feOffset/>
                <feComposite k3="1" k2="-1" operator="arithmetic" in2="hardAlpha"/>
                <feColorMatrix values="0 0 0 0 0.0392157 0 0 0 0 0.0496732 0 0 0 0 0.0705882 0 0 0 0.18 0"/>
                <feBlend result="effect3_innerShadow_84_7862" in2="effect2_innerShadow_84_7862"/>
            </filter>
            <filter color-interpolation-filters="sRGB" filterUnits="userSpaceOnUse" height="36" width="36" y="208" x="490" id="33b1b381-1726-40f9-8624-06954f313155">
                <feFlood result="BackgroundImageFix" flood-opacity="0"/>
                <feColorMatrix result="hardAlpha" values="0 0 0 0 0 0 0 0 0 0 0 0 0 0 0 0 0 0 127 0" in="SourceAlpha"/>
                <feOffset dy="1"/>
                <feGaussianBlur stdDeviation="1"/>
                <feComposite operator="out" in2="hardAlpha"/>
                <feColorMatrix values="0 0 0 0 0.0392157 0 0 0 0 0.0496732 0 0 0 0 0.0705882 0 0 0 0.05 0"/>
                <feBlend result="effect1_dropShadow_84_7862" in2="BackgroundImageFix"/>
                <feBlend result="shape" in2="effect1_dropShadow_84_7862" in="SourceGraphic"/>
                <feColorMatrix result="hardAlpha" values="0 0 0 0 0 0 0 0 0 0 0 0 0 0 0 0 0 0 127 0" in="SourceAlpha"/>
                <feOffset dy="-2"/>
                <feComposite k3="1" k2="-1" operator="arithmetic" in2="hardAlpha"/>
                <feColorMatrix values="0 0 0 0 0.0392157 0 0 0 0 0.0496732 0 0 0 0 0.0705882 0 0 0 0.05 0"/>
                <feBlend result="effect2_innerShadow_84_7862" in2="shape"/>
                <feColorMatrix result="hardAlpha" values="0 0 0 0 0 0 0 0 0 0 0 0 0 0 0 0 0 0 127 0" in="SourceAlpha"/>
                <feMorphology result="effect3_innerShadow_84_7862" in="SourceAlpha" radius="1"/>
                <feOffset/>
                <feComposite k3="1" k2="-1" operator="arithmetic" in2="hardAlpha"/>
                <feColorMatrix values="0 0 0 0 0.0392157 0 0 0 0 0.0496732 0 0 0 0 0.0705882 0 0 0 0.18 0"/>
                <feBlend result="effect3_innerShadow_84_7862" in2="effect2_innerShadow_84_7862"/>
            </filter>
            <filter color-interpolation-filters="sRGB" filterUnits="userSpaceOnUse" height="26" width="26" y="142" x="297" id="f49bfaee-fb2d-434e-8878-ebf580194dfc">
                <feFlood result="BackgroundImageFix" flood-opacity="0"/>
                <feColorMatrix result="hardAlpha" values="0 0 0 0 0 0 0 0 0 0 0 0 0 0 0 0 0 0 127 0" in="SourceAlpha"/>
                <feOffset dy="1"/>
                <feGaussianBlur stdDeviation="1"/>
                <feComposite operator="out" in2="hardAlpha"/>
                <feColorMatrix values="0 0 0 0 0.0392157 0 0 0 0 0.0496732 0 0 0 0 0.0705882 0 0 0 0.05 0"/>
                <feBlend result="effect1_dropShadow_84_7862" in2="BackgroundImageFix"/>
                <feBlend result="shape" in2="effect1_dropShadow_84_7862" in="SourceGraphic"/>
                <feColorMatrix result="hardAlpha" values="0 0 0 0 0 0 0 0 0 0 0 0 0 0 0 0 0 0 127 0" in="SourceAlpha"/>
                <feOffset dy="-2"/>
                <feComposite k3="1" k2="-1" operator="arithmetic" in2="hardAlpha"/>
                <feColorMatrix values="0 0 0 0 0.0392157 0 0 0 0 0.0496732 0 0 0 0 0.0705882 0 0 0 0.05 0"/>
                <feBlend result="effect2_innerShadow_84_7862" in2="shape"/>
                <feColorMatrix result="hardAlpha" values="0 0 0 0 0 0 0 0 0 0 0 0 0 0 0 0 0 0 127 0" in="SourceAlpha"/>
                <feMorphology result="effect3_innerShadow_84_7862" in="SourceAlpha" radius="1"/>
                <feOffset/>
                <feComposite k3="1" k2="-1" operator="arithmetic" in2="hardAlpha"/>
                <feColorMatrix values="0 0 0 0 0.0392157 0 0 0 0 0.0496732 0 0 0 0 0.0705882 0 0 0 0.18 0"/>
                <feBlend result="effect3_innerShadow_84_7862" in2="effect2_innerShadow_84_7862"/>
            </filter>
            <filter color-interpolation-filters="sRGB" filterUnits="userSpaceOnUse" height="26" width="26" y="285" x="26" id="363b23fd-516a-4afd-91c2-6b347431fac2">
                <feFlood result="BackgroundImageFix" flood-opacity="0"/>
                <feColorMatrix result="hardAlpha" values="0 0 0 0 0 0 0 0 0 0 0 0 0 0 0 0 0 0 127 0" in="SourceAlpha"/>
                <feOffset dy="1"/>
                <feGaussianBlur stdDeviation="1"/>
                <feComposite operator="out" in2="hardAlpha"/>
                <feColorMatrix values="0 0 0 0 0.0392157 0 0 0 0 0.0496732 0 0 0 0 0.0705882 0 0 0 0.05 0"/>
                <feBlend result="effect1_dropShadow_84_7862" in2="BackgroundImageFix"/>
                <feBlend result="shape" in2="effect1_dropShadow_84_7862" in="SourceGraphic"/>
                <feColorMatrix result="hardAlpha" values="0 0 0 0 0 0 0 0 0 0 0 0 0 0 0 0 0 0 127 0" in="SourceAlpha"/>
                <feOffset dy="-2"/>
                <feComposite k3="1" k2="-1" operator="arithmetic" in2="hardAlpha"/>
                <feColorMatrix values="0 0 0 0 0.0392157 0 0 0 0 0.0496732 0 0 0 0 0.0705882 0 0 0 0.05 0"/>
                <feBlend result="effect2_innerShadow_84_7862" in2="shape"/>
                <feColorMatrix result="hardAlpha" values="0 0 0 0 0 0 0 0 0 0 0 0 0 0 0 0 0 0 127 0" in="SourceAlpha"/>
                <feMorphology result="effect3_innerShadow_84_7862" in="SourceAlpha" radius="1"/>
                <feOffset/>
                <feComposite k3="1" k2="-1" operator="arithmetic" in2="hardAlpha"/>
                <feColorMatrix values="0 0 0 0 0.0392157 0 0 0 0 0.0496732 0 0 0 0 0.0705882 0 0 0 0.18 0"/>
                <feBlend result="effect3_innerShadow_84_7862" in2="effect2_innerShadow_84_7862"/>
            </filter>
            <filter color-interpolation-filters="sRGB" filterUnits="userSpaceOnUse" height="26" width="26" y="285" x="88" id="11ee6dd4-87e7-485c-b8a9-c2983b5cd507">
                <feFlood result="BackgroundImageFix" flood-opacity="0"/>
                <feColorMatrix result="hardAlpha" values="0 0 0 0 0 0 0 0 0 0 0 0 0 0 0 0 0 0 127 0" in="SourceAlpha"/>
                <feOffset dy="1"/>
                <feGaussianBlur stdDeviation="1"/>
                <feComposite operator="out" in2="hardAlpha"/>
                <feColorMatrix values="0 0 0 0 0.0392157 0 0 0 0 0.0496732 0 0 0 0 0.0705882 0 0 0 0.05 0"/>
                <feBlend result="effect1_dropShadow_84_7862" in2="BackgroundImageFix"/>
                <feBlend result="shape" in2="effect1_dropShadow_84_7862" in="SourceGraphic"/>
                <feColorMatrix result="hardAlpha" values="0 0 0 0 0 0 0 0 0 0 0 0 0 0 0 0 0 0 127 0" in="SourceAlpha"/>
                <feOffset dy="-2"/>
                <feComposite k3="1" k2="-1" operator="arithmetic" in2="hardAlpha"/>
                <feColorMatrix values="0 0 0 0 0.0392157 0 0 0 0 0.0496732 0 0 0 0 0.0705882 0 0 0 0.05 0"/>
                <feBlend result="effect2_innerShadow_84_7862" in2="shape"/>
                <feColorMatrix result="hardAlpha" values="0 0 0 0 0 0 0 0 0 0 0 0 0 0 0 0 0 0 127 0" in="SourceAlpha"/>
                <feMorphology result="effect3_innerShadow_84_7862" in="SourceAlpha" radius="1"/>
                <feOffset/>
                <feComposite k3="1" k2="-1" operator="arithmetic" in2="hardAlpha"/>
                <feColorMatrix values="0 0 0 0 0.0392157 0 0 0 0 0.0496732 0 0 0 0 0.0705882 0 0 0 0.18 0"/>
                <feBlend result="effect3_innerShadow_84_7862" in2="effect2_innerShadow_84_7862"/>
            </filter>
        </defs>
    </g>
</svg>
