<svg width="1026" height="1026" viewBox="0 0 1026 1026" fill="none" xmlns="http://www.w3.org/2000/svg">
<path d="M0 228C0 102.079 102.079 0 228 0H798C923.921 0 1026 102.079 1026 228V798C1026 923.921 923.921 1026 798 1026H228C102.079 1026 0 923.921 0 798V228Z" fill="#07394C"/>
<path d="M535.841 157.43C607.96 153.715 672.374 173.991 726.509 222.182C777.711 267.761 806.276 325.566 812.166 394.017C820.87 495.156 767.669 593.754 678.704 641.883C636.09 664.937 590.342 675.118 542.067 672.518C502.497 670.387 467.906 655.106 437.702 629.618C434.428 626.855 431.625 623.437 426.009 621.051C425.98 730.797 425.951 839.842 425.717 949.797C382.847 950.751 340.183 950.795 296.575 950.857C294.51 947.285 295.069 943.592 295.069 939.953C295.038 686.331 295.042 432.709 295.042 179.087C295.042 166.84 295.044 166.838 306.986 166.838C343.979 166.837 380.973 166.855 417.966 166.825C426.746 166.818 425.984 166.745 425.971 175.067C425.957 184.359 425.967 193.65 425.967 202.676C427.822 203.86 428.847 203.024 429.794 202.067C458.992 172.573 495.161 159.525 535.841 157.43ZM623.226 305.226C595.232 286.975 565.254 279.782 533.109 285.767C449.616 301.311 402.601 391.636 437.993 468.739C474.395 548.039 573.383 574.568 640.607 510.147C673.766 478.371 687.437 438.856 679.907 393.083C673.816 356.052 654.294 327.23 623.226 305.226Z" fill="white"/>
</svg>
